<svg width="39" height="28" viewBox="0 0 39 28" fill="none" xmlns="http://www.w3.org/2000/svg">
<rect width="39" height="28" rx="10" fill="#F93939"/>
<path fill-rule="evenodd" clip-rule="evenodd" d="M26.0031 16.1498L23.8451 17.2885L24.2574 14.8749L22.5117 13.1631L24.926 12.8085L26.0031 10.6133L27.0803 12.8103L29.4946 13.165L27.7489 14.873L28.1611 17.2866" fill="white"/>
<path fill-rule="evenodd" clip-rule="evenodd" d="M17.6445 20.5315C21.2344 20.5315 24.1445 17.6064 24.1445 13.9982C24.1445 10.3899 21.2344 7.46484 17.6445 7.46484C14.0547 7.46484 11.1445 10.3899 11.1445 13.9982C11.1445 17.6064 14.0547 20.5315 17.6445 20.5315ZM19.5017 18.6648C22.0645 18.6648 24.1445 16.5742 24.1445 13.9982C24.1445 11.4222 22.0645 9.33151 19.5017 9.33151C16.9388 9.33151 14.8588 11.4222 14.8588 13.9982C14.8588 16.5742 16.9388 18.6648 19.5017 18.6648Z" fill="white"/>
</svg>
