<svg width="20" height="20" viewBox="0 0 20 20" fill="none" xmlns="http://www.w3.org/2000/svg">
<g clip-path="url(#clip0_5124_8662)">
<rect width="20" height="20" rx="4" fill="#005DFF"/>
<path d="M7.60935 6.03906C7.98932 6.03906 8.34034 6.0661 8.66241 6.14722C8.98448 6.20129 9.24865 6.31283 9.48388 6.44802C9.7191 6.58322 9.8928 6.77587 10.0122 7.02259C10.128 7.26932 10.1895 7.57013 10.1895 7.89797C10.1895 8.27989 10.1027 8.60774 9.89642 8.85446C9.7191 9.10119 9.42959 9.32088 9.07495 9.48311C9.57434 9.61831 9.95432 9.86503 10.1859 10.1929C10.4175 10.5207 10.5659 10.9297 10.5659 11.3961C10.5659 11.778 10.479 12.1059 10.3307 12.3796C10.1859 12.6534 9.9507 12.9001 9.68653 13.0624C9.42236 13.228 9.10028 13.3632 8.74926 13.4443C8.39824 13.5254 8.04722 13.5795 7.6962 13.5795L3.77344 13.5862V6.03906H7.60935ZM7.37413 9.10119C7.6962 9.10119 7.96037 9.02008 8.16302 8.8815C8.36567 8.74293 8.45614 8.49958 8.45614 8.19878C8.45614 8.03316 8.42719 7.87093 8.36929 7.76278C8.31139 7.65462 8.22454 7.57013 8.10512 7.48901C7.98932 7.43493 7.8699 7.38086 7.72515 7.35382C7.5804 7.32678 7.43203 7.32678 7.25832 7.32678H5.56112V9.10457C5.56112 9.10119 7.37413 9.10119 7.37413 9.10119ZM7.46098 12.3289C7.6383 12.3289 7.812 12.3019 7.96037 12.2749C8.10512 12.2478 8.25349 12.1937 8.36929 12.1092C8.48509 12.0247 8.57556 11.9436 8.66241 11.8084C8.72031 11.6732 8.77821 11.5076 8.77821 11.315C8.77821 10.9331 8.66241 10.6593 8.42719 10.4666C8.19197 10.301 7.8699 10.2199 7.48993 10.2199H5.56112V12.3256H7.46098V12.3289Z" fill="white"/>
<path d="M13.1064 12.4986C13.3202 12.7169 13.6392 12.8243 14.0636 12.8243C14.3563 12.8243 14.6227 12.7437 14.8365 12.6061C15.0503 12.4415 15.1819 12.2803 15.2345 12.1158H16.5371C16.3233 12.7673 16.0042 13.2307 15.5799 13.5296C15.1556 13.8016 14.6491 13.9628 14.0372 13.9628C13.6129 13.9628 13.238 13.8822 12.8926 13.7445C12.5472 13.6102 12.2808 13.4187 12.0407 13.1467C11.8005 12.9016 11.6163 12.6027 11.5078 12.2501C11.3762 11.8975 11.3203 11.518 11.3203 11.0814C11.3203 10.6751 11.3729 10.2922 11.5078 9.93963C11.6427 9.58701 11.8269 9.28813 12.067 9.01611C12.3071 8.77096 12.5998 8.55268 12.9189 8.41835C13.2643 8.28402 13.6096 8.20007 14.0372 8.20007C14.4912 8.20007 14.8892 8.28066 15.2345 8.47208C15.5799 8.6635 15.8463 8.87843 16.0601 9.20417C16.2739 9.50306 16.4318 9.85567 16.5404 10.2351C16.593 10.6146 16.6193 10.9975 16.593 11.4307H12.7347C12.7347 11.874 12.8926 12.2803 13.1064 12.4986ZM14.7839 9.6441C14.5964 9.45268 14.3037 9.34522 13.9583 9.34522C13.7182 9.34522 13.534 9.39895 13.3728 9.47955C13.2116 9.56015 13.1064 9.67097 13.0011 9.77843C12.8959 9.88589 12.84 10.0236 12.8136 10.1579C12.7873 10.2922 12.761 10.4031 12.761 10.5105H15.1556C15.103 10.1075 14.9681 9.83552 14.7839 9.6441ZM12.442 6.79297H15.422V7.52506H12.442V6.79297Z" fill="white"/>
</g>
<defs>
<clipPath id="clip0_5124_8662">
<rect width="20" height="20" fill="white"/>
</clipPath>
</defs>
</svg>
