<svg width="20" height="20" viewBox="0 0 20 20" fill="none" xmlns="http://www.w3.org/2000/svg">
<g clip-path="url(#clip0_5124_8671)">
<path fill-rule="evenodd" clip-rule="evenodd" d="M9.99667 0.5C7.63749 0.501224 5.35566 1.3368 3.5592 2.85732C1.76275 4.37784 0.568814 6.48416 0.190885 8.79963C-0.187044 11.1151 0.275672 13.4887 1.49631 15.4961C2.71694 17.5035 4.61589 19.0137 6.8536 19.7567C7.34727 19.8484 7.53323 19.5424 7.53323 19.2822C7.53323 19.0221 7.52335 18.2678 7.52006 17.4431C4.75547 18.0403 4.1713 16.2765 4.1713 16.2765C3.72041 15.1311 3.06875 14.8301 3.06875 14.8301C2.16697 14.2181 3.13623 14.2296 3.13623 14.2296C4.1351 14.2999 4.66004 15.2489 4.66004 15.2489C5.54536 16.7592 6.98524 16.3223 7.55132 16.0671C7.64019 15.4273 7.89855 14.9921 8.18323 14.745C5.97486 14.4963 3.65458 13.6487 3.65458 9.86248C3.64089 8.88055 4.00735 7.93095 4.67814 7.21016C4.57611 6.96146 4.23547 5.95681 4.77522 4.5922C4.77522 4.5922 5.60954 4.32713 7.50855 5.60503C9.13739 5.16212 10.8559 5.16212 12.4848 5.60503C14.3822 4.32713 15.2148 4.5922 15.2148 4.5922C15.7562 5.95354 15.4156 6.95818 15.3136 7.21016C15.9865 7.93107 16.3537 8.88232 16.3388 9.86576C16.3388 13.6602 14.0135 14.4963 11.8019 14.7401C12.1573 15.0477 12.4749 15.6482 12.4749 16.571C12.4749 17.8931 12.4634 18.9566 12.4634 19.2822C12.4634 19.5457 12.6428 19.8533 13.1463 19.7567C15.3843 19.0136 17.2834 17.5031 18.504 15.4954C19.7247 13.4877 20.1871 11.1137 19.8088 8.79801C19.4304 6.48233 18.2359 4.37599 16.4388 2.85573C14.6418 1.33548 12.3594 0.500448 9.99996 0.5H9.99667Z" fill="white"/>
<path d="M3.8218 14.6876C3.80041 14.7367 3.72142 14.7514 3.65724 14.717C3.59307 14.6827 3.54535 14.6189 3.56839 14.5681C3.59142 14.5174 3.66877 14.5043 3.73294 14.5387C3.79712 14.573 3.84649 14.6385 3.8218 14.6876Z" fill="white"/>
<path d="M4.2249 15.1337C4.19082 15.1508 4.15183 15.1556 4.11461 15.1472C4.07739 15.1389 4.04425 15.1179 4.02085 15.0879C3.95667 15.0192 3.9435 14.9243 3.99287 14.8818C4.04224 14.8392 4.13111 14.8589 4.19528 14.9276C4.25946 14.9963 4.27427 15.0912 4.2249 15.1337Z" fill="white"/>
<path d="M4.61627 15.7039C4.55538 15.7464 4.45171 15.7039 4.39411 15.6188C4.37818 15.6036 4.36552 15.5853 4.35687 15.565C4.34821 15.5448 4.34375 15.523 4.34375 15.501C4.34375 15.479 4.34821 15.4572 4.35687 15.437C4.36552 15.4168 4.37818 15.3985 4.39411 15.3832C4.455 15.3423 4.55867 15.3832 4.61627 15.4666C4.67387 15.5501 4.67551 15.6614 4.61627 15.7039Z" fill="white"/>
<path d="M5.14883 16.2507C5.09453 16.3112 4.98428 16.2949 4.89377 16.2131C4.80326 16.1312 4.78186 16.02 4.83617 15.9611C4.89047 15.9022 5.00073 15.9185 5.09453 15.9987C5.18832 16.0789 5.20643 16.1918 5.14883 16.2507Z" fill="white"/>
<path d="M5.89329 16.5724C5.8686 16.6493 5.7567 16.6836 5.6448 16.6509C5.5329 16.6182 5.45885 16.5265 5.48024 16.448C5.50164 16.3695 5.61518 16.3335 5.72873 16.3695C5.84227 16.4055 5.91468 16.4922 5.89329 16.5724Z" fill="white"/>
<path d="M6.70745 16.6284C6.70745 16.7086 6.6153 16.7773 6.49682 16.7789C6.37834 16.7806 6.28125 16.7151 6.28125 16.6349C6.28125 16.5548 6.3734 16.486 6.49188 16.4844C6.61036 16.4828 6.70745 16.5466 6.70745 16.6284Z" fill="white"/>
<path d="M7.46365 16.5036C7.47846 16.5838 7.39618 16.6672 7.2777 16.6868C7.15921 16.7065 7.05554 16.659 7.04073 16.5805C7.02592 16.5019 7.11149 16.4169 7.22668 16.3956C7.34187 16.3743 7.44884 16.4234 7.46365 16.5036Z" fill="white"/>
</g>
<defs>
<clipPath id="clip0_5124_8671">
<rect width="20" height="20" rx="6" fill="white"/>
</clipPath>
</defs>
</svg>
