<svg width="20" height="20" viewBox="0 0 20 20" fill="none" xmlns="http://www.w3.org/2000/svg">
<g clip-path="url(#clip0_5124_8657)">
<path d="M0 9.6C0 5.0745 0 2.81177 1.40589 1.40589C2.81177 0 5.0745 0 9.6 0H10.4C14.9255 0 17.1882 0 18.5941 1.40589C20 2.81177 20 5.0745 20 9.6V10.4C20 14.9255 20 17.1882 18.5941 18.5941C17.1882 20 14.9255 20 10.4 20H9.6C5.0745 20 2.81177 20 1.40589 18.5941C0 17.1882 0 14.9255 0 10.4V9.6Z" fill="#0077FF"/>
<path d="M10.6065 14.4C5.95995 14.4 3.30965 11.2468 3.19922 6H5.52676C5.60322 9.85105 7.3191 11.4823 8.67825 11.8186V6H10.87V9.32132C12.2121 9.17838 13.6221 7.66486 14.0978 6H16.2895C15.9242 8.05165 14.3951 9.56517 13.3078 10.1874C14.3951 10.6919 16.1366 12.012 16.7992 14.4H14.3866C13.8685 12.8024 12.5774 11.5664 10.87 11.3982V14.4H10.6065Z" fill="white"/>
</g>
<defs>
<clipPath id="clip0_5124_8657">
<rect width="20" height="20" fill="white"/>
</clipPath>
</defs>
</svg>
