<svg width="20" height="20" viewBox="0 0 20 20" fill="none" xmlns="http://www.w3.org/2000/svg">
<path d="M0 9.6C0 5.0745 0 2.81177 1.40589 1.40589C2.81177 0 5.0745 0 9.6 0H10.4C14.9255 0 17.1882 0 18.5941 1.40589C20 2.81177 20 5.0745 20 9.6V10.4C20 14.9255 20 17.1882 18.5941 18.5941C17.1882 20 14.9255 20 10.4 20H9.6C5.0745 20 2.81177 20 1.40589 18.5941C0 17.1882 0 14.9255 0 10.4V9.6Z" fill="url(#paint0_linear_5124_8668)"/>
<path d="M7.36026 13.9923L7.54335 14.0829C8.30636 14.5353 9.16084 14.7465 10.0154 14.7465C12.701 14.7465 14.8983 12.5746 14.8983 9.92013C14.8983 8.65324 14.3794 7.41648 13.4639 6.51153C12.5484 5.60658 11.3276 5.0938 10.0154 5.0938C7.32977 5.0938 5.13242 7.26565 5.16296 9.95032C5.16296 10.8552 5.43762 11.73 5.89538 12.4841L6.01744 12.6651L5.52919 14.4448L7.36026 13.9923Z" fill="#31D652"/>
<path d="M13.9827 6.02889C12.9451 4.97315 11.5107 4.4 10.0459 4.4C6.93304 4.4 4.43054 6.90365 4.46103 9.95027C4.46103 10.9155 4.73569 11.8507 5.19349 12.6953L4.4 15.5609L7.36026 14.8068C8.18424 15.2593 9.09976 15.4704 10.0154 15.4704C13.0977 15.4704 15.6002 12.9667 15.6002 9.92017C15.6002 8.44208 15.0203 7.05449 13.9827 6.02889ZM10.0459 14.5354C9.22186 14.5354 8.39788 14.3242 7.69595 13.9019L7.51286 13.8114L5.74282 14.2639L6.20057 12.5445L6.07851 12.3635C4.73569 10.2218 5.37659 7.38629 7.57389 6.05903C9.77119 4.73181 12.6094 5.36528 13.9522 7.53712C15.295 9.70897 14.6541 12.5143 12.4568 13.8416C11.7549 14.294 10.9004 14.5354 10.0459 14.5354ZM12.7314 11.1871L12.3958 11.0363C12.3958 11.0363 11.9075 10.8251 11.6023 10.6743C11.5718 10.6743 11.5413 10.6441 11.5107 10.6441C11.4192 10.6441 11.3581 10.6743 11.2971 10.7045C11.2971 10.7045 11.2666 10.7346 10.8393 11.2173C10.8088 11.2776 10.7478 11.3078 10.6867 11.3078H10.6562C10.6257 11.3078 10.5647 11.2776 10.5341 11.2474L10.3815 11.1871C10.0459 11.0363 9.74069 10.8553 9.49652 10.614C9.43549 10.5536 9.34393 10.4933 9.28289 10.433C9.06926 10.2218 8.85563 9.9805 8.70308 9.70902L8.67254 9.64869C8.64204 9.61851 8.64204 9.58837 8.61151 9.52804C8.61151 9.46772 8.61151 9.4074 8.64204 9.37721C8.64204 9.37721 8.76411 9.22638 8.85563 9.13591C8.91671 9.07555 8.9472 8.98508 9.00823 8.92476C9.06926 8.83425 9.0998 8.7136 9.06926 8.62309C9.03877 8.47226 8.67254 7.65782 8.58101 7.47684C8.51994 7.38634 8.45895 7.35619 8.36738 7.32601H8.03169C7.97061 7.32601 7.90963 7.35619 7.84855 7.35619L7.81801 7.38633C7.75698 7.41652 7.69595 7.47684 7.63492 7.50698C7.57389 7.56735 7.54335 7.62763 7.48232 7.688C7.26869 7.95948 7.14663 8.29129 7.14663 8.62309C7.14663 8.86439 7.20766 9.10573 7.29922 9.31689L7.32976 9.40739C7.60442 9.9805 7.97061 10.4933 8.45895 10.9458L8.58101 11.0664C8.67254 11.1569 8.76411 11.2173 8.82514 11.3077C9.46603 11.8507 10.1985 12.2429 11.0224 12.454C11.114 12.4842 11.2361 12.4842 11.3276 12.5143H11.6328C11.7854 12.5143 11.9685 12.454 12.0906 12.3937C12.1821 12.3334 12.2432 12.3334 12.3042 12.273L12.3653 12.2127C12.4263 12.1523 12.4873 12.1222 12.5484 12.0619C12.6094 12.0016 12.6704 11.9412 12.7009 11.8809C12.762 11.7602 12.7925 11.6094 12.823 11.4586V11.2474C12.823 11.2474 12.7925 11.2173 12.7314 11.1871Z" fill="white"/>
<defs>
<linearGradient id="paint0_linear_5124_8668" x1="10" y1="0" x2="10" y2="20" gradientUnits="userSpaceOnUse">
<stop stop-color="#42E760"/>
<stop offset="0.765625" stop-color="#29CB4A"/>
</linearGradient>
</defs>
</svg>
