<svg width="5" height="5" viewBox="0 0 5 5" fill="none" xmlns="http://www.w3.org/2000/svg">
<mask id="path-1-inside-1_5438_3713" fill="white">
<path d="M0.389933 5L0 4.61007L2.11677 2.49329L0 0.389933L0.389933 0L2.50671 2.11677L4.61007 0L5 0.389933L2.88323 2.49329L5 4.61007L4.61007 5L2.50671 2.88323L0.389933 5Z"/>
</mask>
<path d="M0.389933 5L0 4.61007L2.11677 2.49329L0 0.389933L0.389933 0L2.50671 2.11677L4.61007 0L5 0.389933L2.88323 2.49329L5 4.61007L4.61007 5L2.50671 2.88323L0.389933 5Z" fill="white"/>
<path d="M0.389933 5L-0.317174 5.70711L0.389933 6.41421L1.09704 5.70711L0.389933 5ZM0 4.61007L-0.707107 3.90296L-1.41421 4.61007L-0.707107 5.31717L0 4.61007ZM2.11677 2.49329L2.82388 3.2004L3.53324 2.49104L2.82163 1.78394L2.11677 2.49329ZM0 0.389933L-0.707106 -0.317175L-1.41646 0.392183L-0.704856 1.09928L0 0.389933ZM0.389933 0L1.09704 -0.707107L0.389933 -1.41421L-0.317173 -0.707107L0.389933 0ZM2.50671 2.11677L1.7996 2.82388L2.50896 3.53324L3.21606 2.82163L2.50671 2.11677ZM4.61007 0L5.31717 -0.707107L4.60782 -1.41646L3.90072 -0.704856L4.61007 0ZM5 0.389933L5.70486 1.09928L6.41646 0.392183L5.70711 -0.317174L5 0.389933ZM2.88323 2.49329L2.17837 1.78394L1.46676 2.49104L2.17612 3.2004L2.88323 2.49329ZM5 4.61007L5.70711 5.31717L6.41421 4.61007L5.70711 3.90296L5 4.61007ZM4.61007 5L3.90072 5.70486L4.60782 6.41646L5.31717 5.70711L4.61007 5ZM2.50671 2.88323L3.21606 2.17837L2.50896 1.46676L1.7996 2.17612L2.50671 2.88323ZM1.09704 4.29289L0.707107 3.90296L-0.707107 5.31717L-0.317174 5.70711L1.09704 4.29289ZM0.707107 5.31717L2.82388 3.2004L1.40967 1.78619L-0.707107 3.90296L0.707107 5.31717ZM2.82163 1.78394L0.704856 -0.319418L-0.704856 1.09928L1.41192 3.20264L2.82163 1.78394ZM0.707106 1.09704L1.09704 0.707107L-0.317173 -0.707107L-0.707106 -0.317175L0.707106 1.09704ZM-0.317174 0.707107L1.7996 2.82388L3.21381 1.40967L1.09704 -0.707107L-0.317174 0.707107ZM3.21606 2.82163L5.31942 0.704856L3.90072 -0.704856L1.79736 1.41192L3.21606 2.82163ZM3.90296 0.707107L4.29289 1.09704L5.70711 -0.317174L5.31717 -0.707107L3.90296 0.707107ZM4.29514 -0.319417L2.17837 1.78394L3.58808 3.20264L5.70486 1.09928L4.29514 -0.319417ZM2.17612 3.2004L4.29289 5.31717L5.70711 3.90296L3.59033 1.78619L2.17612 3.2004ZM4.29289 3.90296L3.90296 4.29289L5.31717 5.70711L5.70711 5.31717L4.29289 3.90296ZM5.31942 4.29514L3.21606 2.17837L1.79736 3.58808L3.90072 5.70486L5.31942 4.29514ZM1.7996 2.17612L-0.317174 4.29289L1.09704 5.70711L3.21381 3.59033L1.7996 2.17612Z" fill="white" mask="url(#path-1-inside-1_5438_3713)"/>
</svg>
