<svg width="22" height="19" viewBox="0 0 22 19" fill="none" xmlns="http://www.w3.org/2000/svg">
<path d="M0.378906 17.2729V15.2152C0.378906 14.6991 0.529146 14.2164 0.829625 13.7668C1.1301 13.3173 1.53435 12.9684 2.04238 12.72C3.22185 12.1543 4.40213 11.73 5.58322 11.4471C6.76432 11.1643 7.94622 11.0228 9.12891 11.0228C9.69141 11.0228 10.2555 11.0577 10.8212 11.1274C11.3869 11.1971 11.9566 11.2961 12.5303 11.4243L11.4943 12.4676C11.0899 12.4119 10.6957 12.3656 10.3116 12.3285C9.92747 12.2914 9.53324 12.2728 9.12891 12.2728C8.0163 12.2728 6.91364 12.4055 5.82091 12.6707C4.72816 12.9359 3.66737 13.3177 2.63853 13.8161C2.32282 13.9844 2.07562 14.1903 1.89694 14.4339C1.71825 14.6775 1.62891 14.9379 1.62891 15.2152V16.0228H8.93659V17.2729H0.378906ZM11.9174 19.0036V16.2416L18.5832 9.607C18.7066 9.48361 18.834 9.40027 18.9652 9.357C19.0964 9.31373 19.2276 9.29209 19.3589 9.29209C19.502 9.29209 19.6427 9.31894 19.7809 9.37263C19.9191 9.42631 20.0447 9.50683 20.1577 9.61419L21.314 10.7945C21.4166 10.9179 21.4947 11.0461 21.5484 11.1791C21.6021 11.3121 21.6289 11.4451 21.6289 11.5782C21.6289 11.7112 21.6033 11.8454 21.552 11.9808C21.5007 12.1162 21.4214 12.2456 21.314 12.369L14.6794 19.0036H11.9174ZM13.0231 17.8978H14.2106L18.5448 13.5565L17.9582 12.9628L17.3885 12.3522L13.0231 16.7103V17.8978ZM17.9582 12.9628L17.3885 12.3522L18.5448 13.5565L17.9582 12.9628ZM9.12891 8.23441C8.09766 8.23441 7.21484 7.86722 6.48047 7.13284C5.74609 6.39847 5.37891 5.51566 5.37891 4.48441C5.37891 3.45314 5.74609 2.57031 6.48047 1.83594C7.21484 1.10156 8.09766 0.734375 9.12891 0.734375C10.1602 0.734375 11.043 1.10156 11.7773 1.83594C12.5117 2.57031 12.8789 3.45314 12.8789 4.48441C12.8789 5.51566 12.5117 6.39847 11.7773 7.13284C11.043 7.86722 10.1602 8.23441 9.12891 8.23441ZM9.12891 6.98441C9.81641 6.98441 10.4049 6.73962 10.8945 6.25003C11.3841 5.76045 11.6289 5.17191 11.6289 4.48441C11.6289 3.79691 11.3841 3.20837 10.8945 2.71878C10.4049 2.2292 9.81641 1.98441 9.12891 1.98441C8.44141 1.98441 7.85286 2.2292 7.36328 2.71878C6.8737 3.20837 6.62891 3.79691 6.62891 4.48441C6.62891 5.17191 6.8737 5.76045 7.36328 6.25003C7.85286 6.73962 8.44141 6.98441 9.12891 6.98441Z" fill="white"/>
</svg>
