<svg width="182" height="55" viewBox="0 0 182 55" fill="none" xmlns="http://www.w3.org/2000/svg">
<g id="cta-button">
<path id="Rectangle 3" d="M1.5 18.7204C1.5 17.2692 2.39552 15.9685 3.75118 15.4507L39.6735 1.73037L39.1383 0.329105L39.6736 1.73037C40.0723 1.57808 40.4955 1.5 40.9224 1.5H177C178.933 1.5 180.5 3.067 180.5 5V36.2796C180.5 37.7308 179.604 39.0315 178.249 39.5493L142.326 53.2696C141.928 53.4219 141.504 53.5 141.078 53.5H5C3.067 53.5 1.5 51.933 1.5 50V18.7204Z" fill="url(#paint0_linear_1525_2575)" fill-opacity="0.4" stroke="url(#paint1_linear_1525_2575)" stroke-width="3"/>
</g>
<defs>
<linearGradient id="paint0_linear_1525_2575" x1="-50.4971" y1="-63.5" x2="138.472" y2="22.7803" gradientUnits="userSpaceOnUse">
<stop stop-color="#89C6FF"/>
<stop offset="1" stop-color="#3633D0"/>
</linearGradient>
<linearGradient id="paint1_linear_1525_2575" x1="-50.4971" y1="-63.5" x2="138.472" y2="22.7803" gradientUnits="userSpaceOnUse">
<stop stop-color="#89C6FF"/>
<stop offset="1" stop-color="#3633D0"/>
</linearGradient>
</defs>
</svg>
