<svg width="16" height="17" viewBox="0 0 16 17" fill="none" xmlns="http://www.w3.org/2000/svg">
<path d="M2.3125 16.975C1.91528 16.975 1.58681 16.8451 1.32708 16.5854C1.06736 16.3257 0.9375 15.9972 0.9375 15.6V4.23333C0.9375 3.83611 1.06736 3.50764 1.32708 3.24792C1.58681 2.98819 1.91528 2.85833 2.3125 2.85833H4.14583V0.75H4.87917V2.85833H11.2042V0.75H11.8458V2.85833H13.6792C14.0764 2.85833 14.4049 2.98819 14.6646 3.24792C14.9243 3.50764 15.0542 3.83611 15.0542 4.23333V15.6C15.0542 15.9972 14.9243 16.3257 14.6646 16.5854C14.4049 16.8451 14.0764 16.975 13.6792 16.975H2.3125ZM2.3125 16.3333H13.6792C13.8625 16.3333 14.0306 16.2569 14.1833 16.1042C14.3361 15.9514 14.4125 15.7833 14.4125 15.6V7.9H1.57917V15.6C1.57917 15.7833 1.65556 15.9514 1.80833 16.1042C1.96111 16.2569 2.12917 16.3333 2.3125 16.3333ZM1.57917 7.25833H14.4125V4.23333C14.4125 4.05 14.3361 3.88194 14.1833 3.72917C14.0306 3.57639 13.8625 3.5 13.6792 3.5H2.3125C2.12917 3.5 1.96111 3.57639 1.80833 3.72917C1.65556 3.88194 1.57917 4.05 1.57917 4.23333V7.25833ZM7.99583 11.0167C7.82778 11.0167 7.67882 10.9517 7.54896 10.8219C7.4191 10.692 7.35417 10.5431 7.35417 10.375C7.35417 10.2069 7.4191 10.058 7.54896 9.92812C7.67882 9.79826 7.82778 9.73333 7.99583 9.73333C8.16389 9.73333 8.31285 9.79826 8.44271 9.92812C8.57257 10.058 8.6375 10.2069 8.6375 10.375C8.6375 10.5431 8.57257 10.692 8.44271 10.8219C8.31285 10.9517 8.16389 11.0167 7.99583 11.0167ZM4.32917 11.0167C4.16111 11.0167 4.01215 10.9517 3.88229 10.8219C3.75243 10.692 3.6875 10.5431 3.6875 10.375C3.6875 10.2069 3.75243 10.058 3.88229 9.92812C4.01215 9.79826 4.16111 9.73333 4.32917 9.73333C4.49722 9.73333 4.64618 9.79826 4.77604 9.92812C4.9059 10.058 4.97083 10.2069 4.97083 10.375C4.97083 10.5431 4.9059 10.692 4.77604 10.8219C4.64618 10.9517 4.49722 11.0167 4.32917 11.0167ZM11.6625 11.0167C11.4944 11.0167 11.3455 10.9517 11.2156 10.8219C11.0858 10.692 11.0208 10.5431 11.0208 10.375C11.0208 10.2069 11.0858 10.058 11.2156 9.92812C11.3455 9.79826 11.4944 9.73333 11.6625 9.73333C11.8306 9.73333 11.9795 9.79826 12.1094 9.92812C12.2392 10.058 12.3042 10.2069 12.3042 10.375C12.3042 10.5431 12.2392 10.692 12.1094 10.8219C11.9795 10.9517 11.8306 11.0167 11.6625 11.0167ZM7.99583 14.5C7.82778 14.5 7.67882 14.4351 7.54896 14.3052C7.4191 14.1753 7.35417 14.0264 7.35417 13.8583C7.35417 13.6903 7.4191 13.5413 7.54896 13.4115C7.67882 13.2816 7.82778 13.2167 7.99583 13.2167C8.16389 13.2167 8.31285 13.2816 8.44271 13.4115C8.57257 13.5413 8.6375 13.6903 8.6375 13.8583C8.6375 14.0264 8.57257 14.1753 8.44271 14.3052C8.31285 14.4351 8.16389 14.5 7.99583 14.5ZM4.32917 14.5C4.16111 14.5 4.01215 14.4351 3.88229 14.3052C3.75243 14.1753 3.6875 14.0264 3.6875 13.8583C3.6875 13.6903 3.75243 13.5413 3.88229 13.4115C4.01215 13.2816 4.16111 13.2167 4.32917 13.2167C4.49722 13.2167 4.64618 13.2816 4.77604 13.4115C4.9059 13.5413 4.97083 13.6903 4.97083 13.8583C4.97083 14.0264 4.9059 14.1753 4.77604 14.3052C4.64618 14.4351 4.49722 14.5 4.32917 14.5ZM11.6625 14.5C11.4944 14.5 11.3455 14.4351 11.2156 14.3052C11.0858 14.1753 11.0208 14.0264 11.0208 13.8583C11.0208 13.6903 11.0858 13.5413 11.2156 13.4115C11.3455 13.2816 11.4944 13.2167 11.6625 13.2167C11.8306 13.2167 11.9795 13.2816 12.1094 13.4115C12.2392 13.5413 12.3042 13.6903 12.3042 13.8583C12.3042 14.0264 12.2392 14.1753 12.1094 14.3052C11.9795 14.4351 11.8306 14.5 11.6625 14.5Z" fill="white" fill-opacity="0.9"/>
</svg>
