<svg width="19" height="13" viewBox="0 0 19 13" fill="none" xmlns="http://www.w3.org/2000/svg">
<path id="visibility" d="M9.5 10.3636C10.5795 10.3636 11.4972 9.9858 12.2528 9.23011C13.0085 8.47443 13.3864 7.55682 13.3864 6.47727C13.3864 5.39773 13.0085 4.48011 12.2528 3.72443C11.4972 2.96875 10.5795 2.59091 9.5 2.59091C8.42045 2.59091 7.50284 2.96875 6.74716 3.72443C5.99148 4.48011 5.61364 5.39773 5.61364 6.47727C5.61364 7.55682 5.99148 8.47443 6.74716 9.23011C7.50284 9.9858 8.42045 10.3636 9.5 10.3636ZM9.5 8.80909C8.85227 8.80909 8.30171 8.58239 7.8483 8.12898C7.39489 7.67557 7.16818 7.125 7.16818 6.47727C7.16818 5.82955 7.39489 5.27898 7.8483 4.82557C8.30171 4.37216 8.85227 4.14545 9.5 4.14545C10.1477 4.14545 10.6983 4.37216 11.1517 4.82557C11.6051 5.27898 11.8318 5.82955 11.8318 6.47727C11.8318 7.125 11.6051 7.67557 11.1517 8.12898C10.6983 8.58239 10.1477 8.80909 9.5 8.80909ZM9.5 12.9545C7.39848 12.9545 5.48409 12.368 3.75682 11.1949C2.02955 10.0218 0.777273 8.44924 0 6.47727C0.777273 4.5053 2.02955 2.93277 3.75682 1.75966C5.48409 0.586553 7.39848 0 9.5 0C11.6015 0 13.5159 0.586553 15.2432 1.75966C16.9705 2.93277 18.2227 4.5053 19 6.47727C18.2227 8.44924 16.9705 10.0218 15.2432 11.1949C13.5159 12.368 11.6015 12.9545 9.5 12.9545ZM9.5 11.2273C11.1265 11.2273 12.6199 10.7991 13.9801 9.94261C15.3403 9.08617 16.3803 7.93106 17.1 6.47727C16.3803 5.02348 15.3403 3.86837 13.9801 3.01193C12.6199 2.15549 11.1265 1.72727 9.5 1.72727C7.87349 1.72727 6.38011 2.15549 5.01989 3.01193C3.65966 3.86837 2.6197 5.02348 1.9 6.47727C2.6197 7.93106 3.65966 9.08617 5.01989 9.94261C6.38011 10.7991 7.87349 11.2273 9.5 11.2273Z" fill="white"/>
</svg>
