<svg width="20" height="17" viewBox="0 0 20 17" fill="none" xmlns="http://www.w3.org/2000/svg">
<g id="Layer 8">
<path id="Vector" d="M3.57337 13.0846L1.78587 14.8639C1.70972 14.9395 1.64927 15.0293 1.60802 15.1284C1.56677 15.2274 1.54554 15.3336 1.54554 15.4408C1.54554 15.5481 1.56677 15.6543 1.60802 15.7533C1.64927 15.8523 1.70972 15.9422 1.78587 16.0177C1.8614 16.0939 1.95127 16.1543 2.05028 16.1955C2.14929 16.2368 2.25549 16.258 2.36275 16.258C2.47001 16.258 2.57621 16.2368 2.67522 16.1955C2.77423 16.1543 2.86409 16.0939 2.93962 16.0177L5.42587 13.5233L8.23712 10.7121L17.5646 1.3927C17.7176 1.2397 17.8036 1.03219 17.8036 0.815825C17.8036 0.599454 17.7176 0.391946 17.5646 0.23895C17.4116 0.0859527 17.2041 0 16.9877 0C16.7714 0 16.5639 0.0859527 16.4109 0.23895L14.3309 2.32707C11.8483 1.08789 8.97604 0.881996 6.34207 1.7544C3.7081 2.62681 1.52665 4.50655 0.274622 6.9827C0.0940979 7.3376 0 7.73015 0 8.12832C0 8.5265 0.0940979 8.91904 0.274622 9.27395C1.04898 10.7928 2.18109 12.1006 3.57337 13.0846ZM7.63587 8.12832C7.63587 7.86089 7.68868 7.59609 7.79127 7.34912C7.89385 7.10214 8.0442 6.87786 8.23368 6.68913C8.42316 6.50041 8.64804 6.35096 8.89543 6.24936C9.14281 6.14776 9.40782 6.096 9.67525 6.09707C9.9281 6.09725 10.1788 6.14408 10.4146 6.2352L7.78212 8.8677C7.691 8.63183 7.64417 8.38118 7.644 8.12832H7.63587ZM1.71275 7.72207C2.46166 6.25451 3.60167 5.02252 5.00684 4.16222C6.41201 3.30191 8.02764 2.84677 9.67525 2.84707C10.855 2.85006 12.0228 3.08471 13.1121 3.5377L11.6171 5.04082C11.0372 4.67029 10.3635 4.47298 9.67525 4.47207C8.70621 4.47422 7.77747 4.86012 7.09226 5.54534C6.40704 6.23055 6.02114 7.15929 6.019 8.12832C6.0199 8.81655 6.21721 9.49023 6.58775 10.0702L4.7515 11.8983C3.46763 11.0578 2.42349 9.89884 1.72087 8.53457C1.64956 8.41106 1.61202 8.27095 1.61202 8.12832C1.61202 7.9857 1.64956 7.84559 1.72087 7.72207H1.71275ZM17.7434 4.98395C17.7101 4.95683 17.6748 4.93237 17.6377 4.91082L17.4996 4.82145C17.4532 4.80048 17.4039 4.78678 17.3534 4.78082C17.3023 4.77234 17.2501 4.77234 17.199 4.78082H17.0527C17.0016 4.77234 16.9495 4.77234 16.8984 4.78082C16.8473 4.80022 16.7983 4.82472 16.7521 4.85395C16.7152 4.87262 16.6798 4.89436 16.6465 4.91895L7.95275 13.5802C7.95275 13.5802 7.95275 13.6371 7.89587 13.6614C7.85698 13.7056 7.82419 13.7548 7.79837 13.8077C7.77484 13.8566 7.75843 13.9086 7.74962 13.9621C7.74962 13.9621 7.74962 14.0271 7.74962 14.0596C7.74883 14.0731 7.74883 14.0867 7.74962 14.1002C7.74129 14.1595 7.74129 14.2197 7.74962 14.2789C7.74501 14.3249 7.74501 14.3711 7.74962 14.4171C7.76793 14.4646 7.78965 14.5108 7.81462 14.5552L7.904 14.6852C7.904 14.6852 7.904 14.6852 7.904 14.7258C7.904 14.7664 7.96087 14.7664 7.98525 14.7908L8.12337 14.8802C8.17598 14.9013 8.23036 14.9176 8.28587 14.9289C8.28587 14.9289 8.34275 14.9289 8.38337 14.9289H8.47275C8.87134 14.9862 9.27278 15.0214 9.67525 15.0346C11.6207 15.0332 13.528 14.4946 15.1868 13.4781C16.8456 12.4616 18.1914 11.0068 19.0759 9.27395C19.2564 8.91904 19.3505 8.5265 19.3505 8.12832C19.3505 7.73015 19.2564 7.3376 19.0759 6.9827C18.7231 6.28053 18.2954 5.61856 17.8002 5.00832L17.7434 4.98395ZM17.6296 8.53457C16.9459 9.87773 15.9315 11.0248 14.6821 11.8677C13.4326 12.7106 11.9892 13.2216 10.4877 13.3527L17.0771 6.77145C17.2898 7.07395 17.4799 7.39168 17.6459 7.72207C17.7147 7.84701 17.7495 7.98787 17.7466 8.1305C17.7438 8.27313 17.7034 8.41249 17.6296 8.53457Z" fill="white"/>
</g>
</svg>
