<svg width="14" height="27" viewBox="0 0 14 27" fill="none" xmlns="http://www.w3.org/2000/svg">
<mask id="mask0_3868_4118" style="mask-type:alpha" maskUnits="userSpaceOnUse" x="0" y="0" width="14" height="27">
<rect width="14" height="27" fill="#D9D9D9"/>
</mask>
<g mask="url(#mask0_3868_4118)">
<path d="M11.0337 12.8044V7.61173H12.1587V12.8044H11.0337ZM4.80292 18.9447C4.46397 18.7427 4.19173 18.4672 3.98619 18.1182C3.78066 17.7691 3.67789 17.3825 3.67789 16.9585V7.61173H4.80292V18.9447ZM6.09962 23.6223C4.39571 23.6223 2.95313 23.0243 1.77188 21.8281C0.590626 20.632 0 19.1818 0 17.4777V7.65502C0 6.46503 0.409257 5.45355 1.22777 4.62057C2.04629 3.78758 3.0505 3.37109 4.24042 3.37109C5.43031 3.37109 6.43452 3.78758 7.25303 4.62057C8.07155 5.45355 8.48081 6.46503 8.48081 7.65502V15.7469H7.3558V7.63336C7.35147 6.75928 7.05097 6.01789 6.45431 5.40921C5.85766 4.80051 5.1197 4.49616 4.24042 4.49616C3.36811 4.49616 2.63079 4.80411 2.02846 5.42001C1.42616 6.03591 1.125 6.78092 1.125 7.65502V17.4777C1.12069 18.8668 1.6017 20.0506 2.56804 21.0293C3.5344 22.0079 4.71205 22.4973 6.10097 22.4973C6.51766 22.4973 6.9135 22.4507 7.2885 22.3577C7.6635 22.2647 8.01767 22.1251 8.35101 21.9391V23.1875C8.00051 23.3375 7.63597 23.4475 7.25736 23.5174C6.87876 23.5874 6.49285 23.6223 6.09962 23.6223ZM11.0337 22.4973V19.5548H8.09138V18.4297H11.0337V15.4872H12.1587V18.4297H15.101V19.5548H12.1587V22.4973H11.0337Z" fill="white" fill-opacity="0.8"/>
</g>
</svg>
