<svg width="18" height="17" viewBox="0 0 18 17" fill="none" xmlns="http://www.w3.org/2000/svg">
<path d="M6.28276 10.6923H14.9751L12.2174 7.03845L9.76353 10.1154L8.17506 8.23077L6.28276 10.6923ZM5.24428 14C4.78403 14 4.39974 13.8458 4.09141 13.5375C3.78307 13.2292 3.62891 12.8449 3.62891 12.3846V1.61537C3.62891 1.15512 3.78307 0.770833 4.09141 0.4625C4.39974 0.154167 4.78403 0 5.24428 0H16.0135C16.4738 0 16.8581 0.154167 17.1664 0.4625C17.4747 0.770833 17.6289 1.15512 17.6289 1.61537V12.3846C17.6289 12.8449 17.4747 13.2292 17.1664 13.5375C16.8581 13.8458 16.4738 14 16.0135 14H5.24428ZM5.24428 13H16.0135C16.1674 13 16.3084 12.9359 16.4366 12.8077C16.5648 12.6795 16.6289 12.5385 16.6289 12.3846V1.61537C16.6289 1.46154 16.5648 1.32052 16.4366 1.1923C16.3084 1.0641 16.1674 1 16.0135 1H5.24428C5.09045 1 4.94942 1.0641 4.82121 1.1923C4.69301 1.32052 4.62891 1.46154 4.62891 1.61537V12.3846C4.62891 12.5385 4.69301 12.6795 4.82121 12.8077C4.94942 12.9359 5.09045 13 5.24428 13ZM2.24428 17C1.78403 17 1.39974 16.8458 1.09141 16.5375C0.783073 16.2292 0.628906 15.8449 0.628906 15.3846V3.61537H1.62891V15.3846C1.62891 15.5385 1.69301 15.6795 1.82121 15.8077C1.94941 15.9359 2.09043 16 2.24428 16H14.0135V17H2.24428Z" fill="url(#paint0_linear_5124_9376)"/>
<defs>
<linearGradient id="paint0_linear_5124_9376" x1="-4.08786" y1="-19.6273" x2="16.8443" y2="-16.7391" gradientUnits="userSpaceOnUse">
<stop stop-color="#0085FF"/>
<stop offset="1" stop-color="#211CF2"/>
</linearGradient>
</defs>
</svg>
