<svg width="19" height="18" viewBox="0 0 19 18" fill="none" xmlns="http://www.w3.org/2000/svg">
<path d="M6.64621 10.6731L9.12891 9.1673L11.6116 10.6731L10.952 7.84807L13.1481 5.96345L10.2616 5.7077L9.12891 3.05768L7.99621 5.7077L5.10968 5.96345L7.30583 7.84807L6.64621 10.6731ZM0.128906 17.0769V1.61537C0.128906 1.15512 0.283073 0.770833 0.591406 0.4625C0.89974 0.154167 1.28403 0 1.74428 0H16.5135C16.9738 0 17.3581 0.154167 17.6664 0.4625C17.9747 0.770833 18.1289 1.15512 18.1289 1.61537V12.3846C18.1289 12.8449 17.9747 13.2292 17.6664 13.5375C17.3581 13.8458 16.9738 14 16.5135 14H3.20583L0.128906 17.0769ZM2.77891 13H16.5135C16.6674 13 16.8084 12.9359 16.9366 12.8077C17.0648 12.6795 17.1289 12.5385 17.1289 12.3846V1.61537C17.1289 1.46154 17.0648 1.32052 16.9366 1.1923C16.8084 1.0641 16.6674 1 16.5135 1H1.74428C1.59045 1 1.44942 1.0641 1.32121 1.1923C1.19301 1.32052 1.12891 1.46154 1.12891 1.61537V14.6442L2.77891 13Z" fill="url(#paint0_linear_5124_9373)"/>
<defs>
<linearGradient id="paint0_linear_5124_9373" x1="-4.86531" y1="-19.7161" x2="17.2522" y2="-16.4994" gradientUnits="userSpaceOnUse">
<stop stop-color="#0085FF"/>
<stop offset="1" stop-color="#211CF2"/>
</linearGradient>
</defs>
</svg>
