<svg width="20" height="20" viewBox="0 0 20 20" fill="currentColor" xmlns="http://www.w3.org/2000/svg">
<path d="M10 9.5789C8.71668 9.5789 7.61808 9.10994 6.70419 8.17202C5.7903 7.23408 5.33335 6.10656 5.33335 4.78947C5.33335 3.47235 5.7903 2.34484 6.70419 1.40692C7.61808 0.468972 8.71668 0 10 0C11.2833 0 12.3819 0.468972 13.2958 1.40692C14.2097 2.34484 14.6666 3.47235 14.6666 4.78947C14.6666 6.10656 14.2097 7.23408 13.2958 8.17202C12.3819 9.10994 11.2833 9.5789 10 9.5789ZM0 20V16.9579C0 16.2877 0.177356 15.6671 0.532068 15.0961C0.886758 14.5251 1.36068 14.086 1.95384 13.779C3.2718 13.1158 4.60129 12.6185 5.94232 12.2869C7.28335 11.9553 8.63591 11.7895 10 11.7895C11.3641 11.7895 12.7167 11.9553 14.0577 12.2869C15.3987 12.6185 16.7282 13.1158 18.0462 13.779C18.6393 14.086 19.1132 14.5251 19.4679 15.0961C19.8226 15.6671 20 16.2877 20 16.9579V20H0ZM1.99997 17.9474H18V16.9579C18 16.6807 17.9218 16.4241 17.7654 16.1882C17.609 15.9522 17.3966 15.7597 17.1282 15.6105C15.9795 15.0298 14.8082 14.5899 13.6143 14.2908C12.4204 13.9917 11.2156 13.8421 10 13.8421C8.7844 13.8421 7.57964 13.9917 6.38572 14.2908C5.19181 14.5899 4.02049 15.0298 2.87178 15.6105C2.6034 15.7597 2.39101 15.9522 2.23461 16.1882C2.07818 16.4241 1.99997 16.6807 1.99997 16.9579V17.9474ZM10 7.52633C10.7333 7.52633 11.3611 7.25834 11.8833 6.72237C12.4056 6.18641 12.6667 5.5421 12.6667 4.78947C12.6667 4.03683 12.4056 3.39253 11.8833 2.85656C11.3611 2.32059 10.7333 2.05261 10 2.05261C9.26666 2.05261 8.63888 2.32059 8.11666 2.85656C7.59444 3.39253 7.33332 4.03683 7.33332 4.78947C7.33332 5.5421 7.59444 6.18641 8.11666 6.72237C8.63888 7.25834 9.26666 7.52633 10 7.52633Z" fill="currentColor"/>
</svg>
