<svg width="24" height="23" viewBox="0 0 24 23" fill="none" xmlns="http://www.w3.org/2000/svg">
<path d="M12 11.0157C10.46 11.0157 9.1417 10.4764 8.04503 9.39782C6.94836 8.31919 6.40002 7.02254 6.40002 5.50789C6.40002 3.99321 6.94836 2.69656 8.04503 1.61795C9.1417 0.539318 10.46 0 12 0C13.54 0 14.8583 0.539318 15.955 1.61795C17.0516 2.69656 17.6 3.99321 17.6 5.50789C17.6 7.02254 17.0516 8.31919 15.955 9.39782C14.8583 10.4764 13.54 11.0157 12 11.0157ZM0 23V19.5016C0 18.7309 0.212827 18.0172 0.638482 17.3605C1.06411 16.7038 1.63282 16.1989 2.34461 15.8458C3.92616 15.0832 5.52155 14.5112 7.13078 14.1299C8.74001 13.7486 10.3631 13.558 12 13.558C13.6369 13.558 15.26 13.7486 16.8692 14.1299C18.4784 14.5112 20.0738 15.0832 21.6554 15.8458C22.3672 16.1989 22.9359 16.7038 23.3615 17.3605C23.7872 18.0172 24 18.7309 24 19.5016V23H0ZM2.39997 20.6395H21.6V19.5016C21.6 19.1828 21.5062 18.8878 21.3185 18.6164C21.1308 18.345 20.8759 18.1236 20.5539 17.9521C19.1754 17.2843 17.7698 16.7784 16.3371 16.4344C14.9044 16.0904 13.4587 15.9184 12 15.9184C10.5413 15.9184 9.09556 16.0904 7.66286 16.4344C6.23017 16.7784 4.82459 17.2843 3.44613 17.9521C3.12408 18.1236 2.86921 18.345 2.68153 18.6164C2.49382 18.8878 2.39997 19.1828 2.39997 19.5016V20.6395ZM12 8.65527C12.88 8.65527 13.6333 8.34709 14.26 7.73073C14.8867 7.11437 15.2 6.37342 15.2 5.50789C15.2 4.64236 14.8867 3.90141 14.26 3.28505C13.6333 2.66868 12.88 2.3605 12 2.3605C11.12 2.3605 10.3667 2.66868 9.73999 3.28505C9.11332 3.90141 8.79999 4.64236 8.79999 5.50789C8.79999 6.37342 9.11332 7.11437 9.73999 7.73073C10.3667 8.34709 11.12 8.65527 12 8.65527Z" fill="url(#paint0_linear_2556_5395)"/>
<defs>
<linearGradient id="paint0_linear_2556_5395" x1="-6.65896" y1="-26.5545" x2="22.8433" y2="-22.3069" gradientUnits="userSpaceOnUse">
<stop offset="1" stop-color="#211CF2"/>
</linearGradient>
</defs>
</svg>
