<svg width="48" height="46" viewBox="0 0 48 46" fill="none" xmlns="http://www.w3.org/2000/svg">
<path d="M23.8677 20.7745C21.0579 20.7745 18.6526 19.7741 16.6517 17.7732C14.6508 15.7723 13.6504 13.367 13.6504 10.5572C13.6504 7.74741 14.6508 5.34206 16.6517 3.34117C18.6526 1.34029 21.0579 0.339844 23.8677 0.339844C26.6774 0.339844 29.0828 1.34029 31.0836 3.34117C33.0845 5.34206 34.085 7.74741 34.085 10.5572C34.085 13.367 33.0845 15.7723 31.0836 17.7732C29.0828 19.7741 26.6774 20.7745 23.8677 20.7745ZM0.0273438 45.4008V39.7943C0.0273438 38.3884 0.436688 37.073 1.25538 35.8482C2.07406 34.6235 3.17549 33.6727 4.55965 32.9959C7.77327 31.4546 10.9891 30.2986 14.2071 29.5279C17.4251 28.7572 20.6453 28.3719 23.8677 28.3719C27.09 28.3719 30.3102 28.7572 33.5283 29.5279C36.7463 30.2986 39.9621 31.4546 43.1757 32.9959C44.5599 33.6727 45.6613 34.6235 46.48 35.8482C47.2987 37.073 47.708 38.3884 47.708 39.7943V45.4008H0.0273438ZM3.43311 41.995H44.3022V39.7943C44.3022 39.039 44.0588 38.3294 43.572 37.6657C43.0851 37.002 42.4116 36.441 41.5514 35.9825C38.7482 34.6246 35.858 33.5843 32.8807 32.8616C29.9034 32.139 26.8991 31.7777 23.8677 31.7777C20.8363 31.7777 17.8319 32.139 14.8547 32.8616C11.8774 33.5843 8.98711 34.6246 6.18394 35.9825C5.32376 36.441 4.65024 37.002 4.16339 37.6657C3.67653 38.3294 3.43311 39.039 3.43311 39.7943V41.995ZM23.8677 17.3687C25.7408 17.3687 27.3444 16.7018 28.6783 15.3679C30.0122 14.0339 30.6792 12.4304 30.6792 10.5572C30.6792 8.68405 30.0122 7.0805 28.6783 5.74658C27.3444 4.41266 25.7408 3.74569 23.8677 3.74569C21.9945 3.74569 20.391 4.41266 19.057 5.74658C17.7231 7.0805 17.0562 8.68405 17.0562 10.5572C17.0562 12.4304 17.7231 14.0339 19.057 15.3679C20.391 16.7018 21.9945 17.3687 23.8677 17.3687Z" fill="#30363D"/>
</svg>
