<svg width="50" height="23" viewBox="0 0 50 23" fill="none" xmlns="http://www.w3.org/2000/svg">
<path d="M22.2167 10.7263C21.575 10.7263 21.05 10.4374 20.6417 9.86058C20.225 9.28282 20.075 8.60846 20.175 7.83842L20.6417 4.35254C20.825 3.08386 21.3333 2.04147 22.175 1.22451C23.0083 0.408474 23.9583 0 25.0083 0C26.0833 0 27.0416 0.408474 27.8833 1.22451C28.7166 2.04147 29.2334 3.08386 29.4167 4.35254L29.8833 7.83842C29.9833 8.60846 29.8334 9.28282 29.4167 9.86058C29.0084 10.4374 28.4834 10.7263 27.8417 10.7263H22.2167ZM22.4417 8.0445H27.6167L27.1583 4.76009C27.0833 4.13449 26.8333 3.63124 26.4166 3.25128C26 2.87132 25.5333 2.68178 25 2.68178C24.4667 2.68178 24.0083 2.87132 23.6083 3.25128C23.2083 3.63124 22.975 4.13449 22.9 4.76009L22.4417 8.0445ZM6.26668 12.5672C5.65002 12.6123 5.11664 12.4743 4.65831 12.1532C4.19164 11.8321 3.89167 11.3335 3.75834 10.6591C3.67501 10.3601 3.66663 10.0694 3.71663 9.78786C3.77497 9.50634 3.84165 9.23217 3.94165 8.96629C3.94165 8.99941 3.9167 8.93319 3.88336 8.76667C3.83336 8.67743 3.69995 8.29562 3.49162 7.62218C3.44162 7.2229 3.4833 6.85402 3.61664 6.51362C3.74997 6.17322 3.92497 5.87877 4.1333 5.63129C4.16663 5.63129 4.18337 5.60373 4.20837 5.54853C4.25837 4.94685 4.47496 4.43901 4.84996 4.02685C5.22496 3.61469 5.67495 3.40862 6.19995 3.40862C6.22495 3.40862 6.48333 3.46381 6.975 3.57421L7.10002 3.55854C7.23335 3.3865 7.40001 3.25774 7.61668 3.17126C7.82501 3.0857 8.04995 3.04245 8.28329 3.04245C8.58328 3.04245 8.85002 3.09491 9.08335 3.19979C9.31669 3.30467 9.49996 3.4831 9.64162 3.7361C9.66662 3.7361 9.68334 3.74532 9.70001 3.76372C9.70835 3.7812 9.7333 3.7904 9.7583 3.7904C10.1166 3.83548 10.4417 3.97438 10.7333 4.20806C11.025 4.44174 11.2417 4.76192 11.375 5.16764C11.425 5.41144 11.4417 5.62673 11.4417 5.81441C11.4333 6.00209 11.3916 6.19527 11.3166 6.39491C11.3166 6.40503 11.3417 6.47678 11.375 6.6111C11.5834 6.8549 11.7333 7.09872 11.825 7.34068C11.9166 7.58356 11.9667 7.85404 11.9667 8.15304C11.9667 8.22848 11.9 8.56057 11.7583 9.14845C11.75 9.16869 11.75 9.24142 11.7583 9.36469C11.7833 9.46865 11.8083 9.72253 11.825 10.1283C11.825 10.798 11.5916 11.3721 11.1166 11.8505C10.6333 12.328 10.0583 12.5672 9.38334 12.5672H6.26668ZM42.1084 12.7889C41.225 12.7889 40.4584 12.4136 39.8167 11.6619C39.175 10.9103 38.8583 10.0059 38.8583 8.95068C38.8583 8.56704 38.9 8.21006 38.9917 7.8807C39.0917 7.55134 39.2167 7.22939 39.375 6.91567L38.2333 5.74725C37.9667 5.49793 37.9166 5.18235 38.0916 4.80147C38.2666 4.41967 38.5167 4.22833 38.8417 4.22833H42.1C42.9917 4.22833 43.75 4.59998 44.3833 5.34334C45.0083 6.0867 45.325 6.98003 45.325 8.02423V8.97275C45.325 10.0013 45.0083 10.8937 44.375 11.6518C43.75 12.4099 42.9917 12.7889 42.1084 12.7889ZM0 23V20.6843C0 19.0274 0.741703 17.6585 2.22504 16.5766C3.70837 15.4956 5.63331 14.9555 7.99998 14.9555C8.43331 14.9555 8.84997 14.9748 9.24164 15.0144C9.64164 15.054 10.0166 15.1184 10.375 15.2076C10.05 15.8958 9.80003 16.618 9.6167 17.3742C9.4417 18.1314 9.34998 18.9373 9.34998 19.792V23H0ZM13.6333 23V19.9833C13.6333 17.7661 14.6834 16.0034 16.7917 14.697C18.8917 13.3906 21.6333 12.7374 25.0083 12.7374C28.425 12.7374 31.1667 13.3906 33.25 14.697C35.325 16.0034 36.3667 17.7661 36.3667 19.9833V23H13.6333ZM42.0416 14.9555C44.4333 14.9555 46.3583 15.4956 47.8167 16.5766C49.275 17.6585 50 19.0274 50 20.6843V23H40.65V19.792C40.65 18.9373 40.5667 18.1314 40.4083 17.3742C40.25 16.618 40.0083 15.8958 39.6917 15.2076C40.05 15.1184 40.4333 15.054 40.825 15.0144C41.225 14.9748 41.6333 14.9555 42.0416 14.9555ZM24.9917 15.4192C22.4333 15.4192 20.3083 15.8231 18.6166 16.6309C16.925 17.4395 16.0417 18.4791 15.975 19.7515V20.3182H34.0416V19.7515C33.9583 18.4791 33.0833 17.4395 31.4166 16.6309C29.7416 15.8231 27.6 15.4192 24.9917 15.4192Z" fill="url(#paint0_linear_2953_3840)"/>
<defs>
<linearGradient id="paint0_linear_2953_3840" x1="-13.875" y1="-26.5549" x2="43.6878" y2="-9.28981" gradientUnits="userSpaceOnUse">
<stop stop-color="#0085FF"/>
<stop offset="1" stop-color="#3633D0"/>
</linearGradient>
</defs>
</svg>
