<svg width="41" height="20" viewBox="0 0 41 20" fill="currentColor" xmlns="http://www.w3.org/2000/svg">
<path  d="M18.2177 9.3272C17.6915 9.3272 17.261 9.07601 16.9262 8.57441C16.5845 8.07201 16.4615 7.48562 16.5435 6.81602L16.9262 3.78481C17.0765 2.68161 17.4933 1.7752 18.1835 1.0648C18.8668 0.355195 19.6458 0 20.5068 0C21.3883 0 22.1741 0.355195 22.8643 1.0648C23.5476 1.7752 23.9714 2.68161 24.1217 3.78481L24.5043 6.81602C24.5863 7.48562 24.4634 8.07201 24.1217 8.57441C23.7869 9.07601 23.3564 9.3272 22.8302 9.3272H18.2177ZM18.4022 6.99522H22.6457L22.2698 4.13921C22.2083 3.59521 22.0033 3.1576 21.6616 2.8272C21.32 2.4968 20.9373 2.33198 20.5 2.33198C20.0627 2.33198 19.6868 2.4968 19.3588 2.8272C19.0308 3.1576 18.8395 3.59521 18.778 4.13921L18.4022 6.99522ZM5.13868 10.928C4.63301 10.9672 4.19564 10.8472 3.81981 10.568C3.43714 10.2888 3.19117 9.8552 3.08184 9.2688C3.01351 9.0088 3.00664 8.75598 3.04764 8.51118C3.09547 8.26638 3.15015 8.02798 3.23215 7.79678C3.23215 7.82558 3.21169 7.76799 3.18436 7.62319C3.14336 7.54559 3.03396 7.21358 2.86313 6.62798C2.82213 6.28078 2.85631 5.96001 2.96564 5.66401C3.07498 5.36801 3.21847 5.11198 3.38931 4.89678C3.41664 4.89678 3.43037 4.87281 3.45087 4.82481C3.49187 4.30161 3.66946 3.86001 3.97696 3.50161C4.28446 3.14321 4.65346 2.96401 5.08396 2.96401C5.10446 2.96401 5.31633 3.01201 5.7195 3.10801L5.82201 3.09438C5.93135 2.94478 6.06801 2.83282 6.24568 2.75762C6.41651 2.68322 6.60096 2.64561 6.79229 2.64561C7.03829 2.64561 7.25702 2.69122 7.44835 2.78242C7.63968 2.87362 7.78996 3.02878 7.90613 3.24878C7.92663 3.24878 7.94034 3.2568 7.95401 3.2728C7.96084 3.288 7.98131 3.296 8.00181 3.296C8.29564 3.3352 8.56217 3.45598 8.80134 3.65918C9.0405 3.86238 9.21818 4.1408 9.32752 4.4936C9.36852 4.7056 9.38215 4.89281 9.38215 5.05601C9.37532 5.21921 9.34114 5.38719 9.27964 5.56079C9.27964 5.56959 9.30018 5.63198 9.32752 5.74878C9.49835 5.96078 9.62129 6.1728 9.69646 6.3832C9.77163 6.5944 9.81266 6.8296 9.81266 7.0896C9.81266 7.1552 9.75799 7.44398 9.64182 7.95518C9.63499 7.97278 9.63499 8.03601 9.64182 8.14321C9.66232 8.23361 9.68279 8.45438 9.69646 8.80718C9.69646 9.38958 9.50514 9.88879 9.11564 10.3048C8.71931 10.72 8.24784 10.928 7.69434 10.928H5.13868ZM34.5289 11.1208C33.8045 11.1208 33.1759 10.7944 32.6497 10.1408C32.1235 9.48722 31.8638 8.7008 31.8638 7.7832C31.8638 7.4496 31.898 7.13918 31.9732 6.85278C32.0552 6.56638 32.1577 6.28642 32.2875 6.01362L31.3513 4.99761C31.1327 4.78081 31.0916 4.5064 31.2351 4.1752C31.3786 3.8432 31.5837 3.67681 31.8502 3.67681H34.522C35.2532 3.67681 35.875 3.99999 36.3943 4.64639C36.9068 5.29279 37.1665 6.06959 37.1665 6.97759V7.80239C37.1665 8.69679 36.9068 9.47278 36.3875 10.132C35.875 10.7912 35.2532 11.1208 34.5289 11.1208ZM0 20V17.9864C0 16.5456 0.608197 15.3552 1.82453 14.4144C3.04086 13.4744 4.61932 13.0048 6.55998 13.0048C6.91532 13.0048 7.25698 13.0216 7.57814 13.056C7.90614 13.0904 8.21363 13.1464 8.50747 13.224C8.24097 13.8224 8.03603 14.4504 7.88569 15.108C7.74219 15.7664 7.66698 16.4672 7.66698 17.2104V20H0ZM11.1793 20V17.3768C11.1793 15.4488 12.0403 13.916 13.7692 12.78C15.4912 11.644 17.7393 11.076 20.5068 11.076C23.3085 11.076 25.5567 11.644 27.265 12.78C28.9665 13.916 29.8207 15.4488 29.8207 17.3768V20H11.1793ZM34.4741 13.0048C36.4353 13.0048 38.0138 13.4744 39.2097 14.4144C40.4055 15.3552 41 16.5456 41 17.9864V20H33.333V17.2104C33.333 16.4672 33.2647 15.7664 33.1348 15.108C33.005 14.4504 32.8068 13.8224 32.5472 13.224C32.841 13.1464 33.1553 13.0904 33.4765 13.056C33.8045 13.0216 34.1393 13.0048 34.4741 13.0048ZM20.4932 13.408C18.3953 13.408 16.6528 13.7592 15.2656 14.4616C13.8785 15.1648 13.1542 16.0688 13.0995 17.1752V17.668H27.9141V17.1752C27.8458 16.0688 27.1283 15.1648 25.7616 14.4616C24.3881 13.7592 22.632 13.408 20.4932 13.408Z" fill="inherit"/>
</svg>
