<svg width="21" height="21" viewBox="0 0 21 21" fill="none" xmlns="http://www.w3.org/2000/svg">
<path d="M7.3737 12.582H17.7904L14.1966 7.89453L11.8008 11.0195L10.1862 8.9362L7.3737 12.582ZM6.33203 16.7487C5.75912 16.7487 5.26866 16.5447 4.86068 16.1367C4.45269 15.7287 4.2487 15.2383 4.2487 14.6654V2.16536C4.2487 1.59245 4.45269 1.102 4.86068 0.694011C5.26866 0.286024 5.75912 0.0820312 6.33203 0.0820312H18.832C19.4049 0.0820312 19.8954 0.286024 20.3034 0.694011C20.7114 1.102 20.9154 1.59245 20.9154 2.16536V14.6654C20.9154 15.2383 20.7114 15.7287 20.3034 16.1367C19.8954 16.5447 19.4049 16.7487 18.832 16.7487H6.33203ZM6.33203 14.6654H18.832V2.16536H6.33203V14.6654ZM2.16536 20.9154C1.59245 20.9154 1.102 20.7114 0.694011 20.3034C0.286024 19.8954 0.0820312 19.4049 0.0820312 18.832V4.2487H2.16536V18.832H16.7487V20.9154H2.16536Z" fill="url(#paint0_linear_2953_3554)"/>
<defs>
<linearGradient id="paint0_linear_2953_3554" x1="-5.69832" y1="-23.971" x2="19.9538" y2="-20.4316" gradientUnits="userSpaceOnUse">
<stop stop-color="#0085FF"/>
<stop offset="1" stop-color="#3633D0"/>
</linearGradient>
</defs>
</svg>
