<svg width="21" height="21" viewBox="0 0 21 21" fill="none" xmlns="http://www.w3.org/2000/svg">
<path d="M7.45182 12.8424L10.4987 10.9935L13.5456 12.8424L12.7383 9.37891L15.4466 7.03516L11.8789 6.7487L10.4987 3.46745L9.11849 6.7487L5.55078 7.03516L8.25912 9.37891L7.45182 12.8424ZM0.0820312 20.9154V2.16536C0.0820312 1.59245 0.286024 1.102 0.694011 0.694011C1.102 0.286024 1.59245 0.0820312 2.16536 0.0820312H18.832C19.4049 0.0820312 19.8954 0.286024 20.3034 0.694011C20.7114 1.102 20.9154 1.59245 20.9154 2.16536V14.6654C20.9154 15.2383 20.7114 15.7287 20.3034 16.1367C19.8954 16.5447 19.4049 16.7487 18.832 16.7487H4.2487L0.0820312 20.9154ZM3.36328 14.6654H18.832V2.16536H2.16536V15.8372L3.36328 14.6654Z" fill="url(#paint0_linear_2953_3551)"/>
<defs>
<linearGradient id="paint0_linear_2953_3551" x1="-5.69832" y1="-23.971" x2="19.9538" y2="-20.4316" gradientUnits="userSpaceOnUse">
<stop stop-color="#0085FF"/>
<stop offset="1" stop-color="#3633D0"/>
</linearGradient>
</defs>
</svg>
