<svg width="66" height="66" viewBox="0 0 66 66" fill="none" xmlns="http://www.w3.org/2000/svg">
<path d="M59.5031 15.8281L34.5984 1.49375C34.1859 1.23594 33.6187 1.13281 33 1.13281C32.3813 1.13281 31.8141 1.2875 31.4016 1.49375L6.65156 15.8797C5.775 16.3953 5.15625 17.6844 5.15625 18.6641V47.3844C5.15625 47.9516 5.25937 48.6219 5.67188 49.1891L60.7406 17.2203C60.4313 16.6016 59.9672 16.1375 59.5031 15.8281Z" fill="#D26383"/>
<path d="M5.51758 49.1406C5.77539 49.5531 6.13633 49.9141 6.49727 50.1203L31.3504 64.5063C31.7629 64.7641 32.3301 64.8672 32.9488 64.8672C33.5676 64.8672 34.1348 64.7125 34.5473 64.5063L59.2973 50.1203C60.1738 49.6047 60.7926 48.3156 60.7926 47.3359V18.6156C60.7926 18.1516 60.741 17.6359 60.4832 17.1719L5.51758 49.1406Z" fill="#9C033A"/>
<path d="M43.9828 39.2391C41.8172 43.0547 37.6922 45.6328 33 45.6328C26.0391 45.6328 20.3672 39.9609 20.3672 33C20.3672 26.0391 26.0391 20.3672 33 20.3672C37.6922 20.3672 41.8172 22.9453 43.9828 26.8125L50.6859 22.9453C47.1797 16.8094 40.5797 12.6328 33 12.6328C21.7594 12.6328 12.6328 21.7594 12.6328 33C12.6328 44.2406 21.7594 53.3672 33 53.3672C40.5281 53.3672 47.1281 49.2422 50.6344 43.1578L43.9828 39.2391Z" fill="white"/>
<path d="M42.333 31.8656H45.0143V29.1328H47.283V31.8656H50.0158V34.1344H47.283V36.8156H45.0143V34.1344H42.333V31.8656ZM51.8721 31.8656H54.5533V29.1328H56.8221V31.8656H59.5549V34.1344H56.8221V36.8156H54.5533V34.1344H51.8721V31.8656Z" fill="white"/>
</svg>
