<svg width="58" height="67" viewBox="0 0 58 67" fill="none" xmlns="http://www.w3.org/2000/svg">
<path d="M56.7087 15.2897L30.7217 0.375537C30.2913 0.107296 29.6994 0 29.0538 0C28.4082 0 27.8163 0.160944 27.3859 0.375537L1.5603 15.3433C0.64564 15.8798 0 17.221 0 18.2403V48.1223C0 48.7124 0.107607 49.4099 0.538033 50L58 16.7382C57.6772 16.0944 57.1929 15.6116 56.7087 15.2897Z" fill="#9B4F96"/>
<path d="M0 50.5135C0.270522 50.9459 0.649254 51.3243 1.02799 51.5405L27.1063 66.6216C27.5392 66.8919 28.1343 67 28.7836 67C29.4328 67 30.028 66.8378 30.4608 66.6216L56.431 51.5405C57.3507 51 58 49.6487 58 48.6216V18.5135C58 18.027 57.9459 17.4865 57.6754 17L0 50.5135Z" fill="#68217A"/>
<path d="M40.3548 40.0861C38.1197 44.1139 33.8625 46.8354 29.02 46.8354C21.8359 46.8354 15.9823 40.8481 15.9823 33.5C15.9823 26.1519 21.8359 20.1646 29.02 20.1646C33.8625 20.1646 38.1197 22.8861 40.3548 26.9684L47.2727 22.8861C43.6541 16.4089 36.8426 12 29.02 12C17.4191 12 8 21.6342 8 33.5C8 45.3658 17.4191 55 29.02 55C36.7894 55 43.6009 50.6456 47.2195 44.2228L40.3548 40.0861ZM46.5809 34.6975L47.0599 32.357H44.8248V29.7987H47.5388L48.1774 26.4241H50.7849L50.1463 29.7443H52.1685L52.8071 26.4241H55.3614L54.7228 29.7443H56V32.3025H54.2439L53.765 34.643H56V37.2013H53.286L52.6475 40.4671H50.0399L50.6785 37.2013H48.6563L48.0177 40.4671H45.4634L46.102 37.2013H44.8248V34.643H46.5809V34.6975ZM49.1353 34.6975H51.1574L51.6364 32.357H49.6142L49.1353 34.6975Z" fill="white"/>
</svg>
