<svg width="12" height="12" viewBox="0 0 12 12" fill="none" xmlns="http://www.w3.org/2000/svg">
<g id="Logos/css3-original">
<path id="Vector" d="M1.76287 10.6973L0.820312 0.125H11.1778L10.2343 10.6957L5.99278 11.8716L1.76287 10.6973Z" fill="#1572B6"/>
<path id="Vector_2" d="M6 10.9756L9.42741 10.0254L10.2338 0.992188H6V10.9756Z" fill="#33A9DC"/>
<path id="Vector_3" d="M6 4.81975H7.71581L7.83431 3.49197H6V2.19531H9.25144L9.22031 2.54322L8.90156 6.11641H6V4.81975Z" fill="white"/>
<path id="Vector_4" d="M6.00759 8.188L6.00188 8.18969L4.55784 7.79978L4.4655 6.76562H3.16406L3.34566 8.80159L6.00169 9.53875L6.00759 9.53706V8.188Z" fill="#EBEBEB"/>
<path id="Vector_5" d="M7.60628 6.0625L7.45009 7.79894L6.00391 8.18931V9.53837L8.66209 8.80169L8.68159 8.58259L8.90716 6.0625H7.60628Z" fill="white"/>
<path id="Vector_6" d="M6.00587 2.19531V3.49197H2.87387L2.84791 3.20059L2.78884 2.54322L2.75781 2.19531H6.00587ZM6.00147 4.81994V6.11659H4.57562L4.54966 5.82522L4.4905 5.16784L4.45956 4.81994H6.00147Z" fill="#EBEBEB"/>
</g>
</svg>
