<svg width="59" height="59" viewBox="0 0 59 59" fill="none" xmlns="http://www.w3.org/2000/svg">
<path d="M16.2252 16.0875L12.3994 12.2617V39.7797L12.4455 41.0703C12.4455 41.6695 12.5377 42.3609 12.7682 43.0523L43.0057 53.7L50.5189 50.3813L16.2252 16.0875Z" fill="#00C4B3"/>
<path d="M50.5189 50.3797L43.0057 53.6984L12.8604 43.0508C13.4596 45.2633 14.7041 47.7062 16.0869 49.1352L25.9049 58.907L47.8455 58.9531L50.5189 50.3797Z" fill="#22D3C5"/>
<path d="M0.783167 30.007C-0.184802 31.0211 0.322229 33.1875 1.84332 34.8008L8.61911 41.6227L12.8597 43.1437C12.7214 42.4523 12.5371 41.7609 12.5371 41.1617L12.491 39.8711L12.3988 12.307M50.5183 50.3805L53.8371 42.8211L43.2355 12.5836C42.5441 12.4453 41.8527 12.307 41.2535 12.2609L39.9168 12.2148L12.4449 12.2609" fill="#0075C9"/>
<path d="M0.783167 30.007C-0.184802 31.0211 0.322229 33.1875 1.84332 34.8008L8.61911 41.6227L12.8597 43.1437C12.7214 42.4523 12.5371 41.7609 12.5371 41.1617L12.491 39.8711L12.3988 12.307M50.5183 50.3805L53.8371 42.8211L43.2355 12.5836C42.5441 12.4453 41.8527 12.307 41.2535 12.2609L39.9168 12.2148L12.4449 12.2609" fill="#0075C9"/>
<path d="M43.1436 12.582C43.2357 12.582 43.2357 12.582 43.1436 12.582C43.2357 12.582 43.2357 12.582 43.1436 12.582ZM50.5186 50.3789L58.6772 47.7055V25.2578L49.274 15.8086C47.8912 14.4258 45.4482 13.1352 43.1896 12.582L53.8373 42.8195" fill="#00A8E1"/>
<path d="M41.715 8.38792L34.8932 1.61214C33.326 0.0449517 31.2057 -0.415986 30.0994 0.551983L12.3994 12.2598H39.8252L41.1619 12.3059C41.7611 12.3059 42.4525 12.3981 43.1439 12.6285L41.715 8.38792Z" fill="#00C4B3"/>
</svg>
