<svg width="63" height="64" viewBox="0 0 63 64" fill="none" xmlns="http://www.w3.org/2000/svg">
<path d="M27.9626 63.7946C27.026 63.6828 26.0436 63.5386 25.7803 63.4736C25.3928 63.3818 25.003 63.2997 24.6113 63.2276C24.164 63.1408 23.7203 63.0369 23.281 62.916C21.2408 62.3313 21.0947 62.2835 19.5566 61.6545C18.1415 61.0777 15.5344 59.7301 14.6426 59.1168C14.3985 58.9475 14.1701 58.8112 14.1351 58.8112C14.1007 58.8112 13.5297 58.4095 12.8663 57.9188C8.64823 54.7969 5.48149 51.007 3.19331 46.3391C2.79956 45.5373 2.47816 44.8261 2.47816 44.7592C2.47816 44.6932 2.40729 44.5106 2.32066 44.3571C2.142 44.0377 1.88754 43.3496 1.6823 42.6384C1.59405 42.3362 1.4914 42.0384 1.37468 41.746C1.2787 41.5196 1.20143 41.244 1.20143 41.1328C1.20143 41.021 1.10545 40.6578 0.988312 40.3231C0.871172 39.9909 0.776672 39.5986 0.776672 39.4519C0.776672 39.3063 0.684633 38.8023 0.570937 38.3317C0.294328 37.1702 0 34.1614 0 32.4752C0 30.7909 0.294328 27.7822 0.570937 26.6211C0.684141 26.1501 0.776672 25.6367 0.776672 25.4792C0.776672 25.3212 0.848039 25.0117 0.934172 24.7902C1.02277 24.5697 1.13597 24.1735 1.18814 23.9101C1.24228 23.6468 1.36533 23.193 1.46524 22.8987L1.75563 22.0492C1.96875 21.4128 2.16661 20.8743 2.26111 20.6647C2.31525 20.5475 2.5264 20.0691 2.73213 19.6015C3.06485 18.846 3.77803 17.4211 4.19491 16.6755C4.347 16.4023 4.40459 16.3117 5.22752 15.0257C6.53133 12.9841 8.75946 10.4439 10.8335 8.63313C11.5644 7.99476 14.0062 6.14118 14.1159 6.14118C14.1465 6.14118 14.3768 6.00288 14.6293 5.83357C15.2923 5.38961 15.9424 5.0126 16.79 4.58784C17.0942 4.43738 17.3955 4.28099 17.6936 4.11879C17.8339 4.03807 18.0972 3.91699 19.4493 3.3116C19.7471 3.17871 20.068 3.05763 20.9928 2.73426C21.1965 2.66339 21.606 2.51327 21.8984 2.40351C22.1927 2.29425 22.5387 2.20368 22.6677 2.20368C22.7947 2.20368 23.1289 2.11509 23.4099 2.00582C23.6905 1.89607 24.1999 1.77105 24.5439 1.72872C24.8865 1.68836 25.3418 1.59239 25.5554 1.51708C25.767 1.44424 26.3478 1.34974 26.8454 1.3079C27.4939 1.24931 28.1407 1.17299 28.7851 1.07904C30.1081 0.885113 32.9844 0.885113 34.2937 1.07904C34.912 1.16777 35.5325 1.24081 36.1546 1.29806C36.6237 1.33694 37.2217 1.43489 37.485 1.51561C37.7483 1.59436 38.2041 1.69279 38.4964 1.72872C38.7888 1.76761 39.281 1.88868 39.5901 1.99992C39.9002 2.11312 40.2516 2.20368 40.3727 2.20368C40.4937 2.20368 40.7438 2.27111 40.9264 2.35577C41.1109 2.43846 41.5013 2.57676 41.7956 2.66339C42.0879 2.75198 42.5895 2.92671 42.9128 3.05566C43.2338 3.18412 43.6644 3.35343 43.8702 3.43021C44.2491 3.57295 47.0497 4.97421 47.4306 5.21292C50.5221 7.14082 52.1123 8.40032 54.2504 10.6093C56.8285 13.274 58.5398 15.8117 60.2816 19.5474C60.4047 19.8112 60.5927 20.2015 60.7005 20.4127C60.8063 20.6263 60.8949 20.8763 60.8949 20.9688C60.8949 21.0623 60.9835 21.3429 61.0928 21.5934C61.3891 22.2741 61.6425 23.0488 61.7621 23.6409C61.8212 23.9313 61.931 24.2906 62.0058 24.4387C62.0811 24.5864 62.1692 24.9619 62.2041 25.2696C62.2386 25.5767 62.3405 26.0807 62.4271 26.3863C62.9291 28.1242 63.1787 33.2445 62.875 35.509C62.7849 36.1818 62.683 36.9954 62.6486 37.3163C62.5905 37.8661 62.3001 39.2871 62.052 40.2424L61.7961 41.2538C61.3138 43.2014 60.1217 45.9759 58.6663 48.5426C58.0894 49.5615 56.1556 52.3167 55.7904 52.6396C55.7575 52.6682 55.5941 52.8611 55.4287 53.0644C55.2633 53.2701 54.7327 53.845 54.2523 54.3411C52.1355 56.5269 50.4281 57.8785 47.4306 59.7399C47.0753 59.9609 44.0606 61.4335 43.4971 61.6624C43.2047 61.7795 42.7165 61.9774 42.4128 62.1004C42.1111 62.222 41.7744 62.3239 41.6686 62.3259C41.5628 62.3273 41.2842 62.4218 41.0494 62.535C40.8151 62.6482 40.5169 62.7427 40.3845 62.7447C40.2536 62.7467 39.8711 62.8392 39.5345 62.9505C39.1983 63.0637 38.7307 63.1852 38.496 63.2211C38.2617 63.2581 37.7601 63.358 37.3792 63.4426C36.9987 63.5273 35.8485 63.6927 34.8262 63.8098C32.5458 64.0758 30.2419 64.0707 27.9626 63.7946ZM30.2774 57.6422C30.4251 57.527 30.5771 57.2977 30.6175 57.1367C30.7061 56.7809 45.0061 28.1124 45.2753 27.7531C45.5022 27.4495 45.5234 26.9632 45.3157 26.7919C45.2064 26.6999 43.8372 26.6708 40.1822 26.6767C37.4407 26.6826 35.1358 26.6846 35.0605 26.6826C34.9492 26.6787 34.9261 24.8468 34.9374 17.0003C34.9453 11.6763 34.9202 7.27174 34.8818 7.21071C34.8434 7.14869 34.6933 7.09898 34.5471 7.09898C34.3414 7.09898 34.2454 7.18757 34.1189 7.49667C33.8802 8.07154 33.2207 9.37682 30.0101 15.6104C29.3433 16.904 28.678 18.1985 28.0143 19.4937C27.4454 20.6071 26.5476 22.3548 26.0224 23.3771C24.6089 26.1251 23.1983 28.8746 21.7906 31.6257C19.3627 36.3684 19.0688 36.9339 18.9645 37.0589C18.7627 37.3031 18.6529 37.8661 18.7666 38.0778C18.87 38.2717 19.0762 38.2796 24.2018 38.2717C27.1318 38.2682 29.5485 38.2835 29.5736 38.3061C29.641 38.3755 29.6159 56.6696 29.5465 57.1057C29.5007 57.3922 29.5312 57.5438 29.6622 57.6747C29.8886 57.9016 29.9506 57.8996 30.2774 57.6422Z" fill="#049688"/>
</svg>
