<svg width="12" height="12" viewBox="0 0 12 12" fill="none" xmlns="http://www.w3.org/2000/svg">
<g id="Logos/html5-original">
<path id="Vector" d="M1.87938 10.6764L0.941406 0.15625H11.2479L10.3089 10.6748L6.08838 11.8448L1.87938 10.6764Z" fill="#E44D26"/>
<path id="Vector_2" d="M6.09375 10.9498L9.50419 10.0042L10.3066 1.01562H6.09375V10.9498Z" fill="#F16529"/>
<path id="Vector_3" d="M6.09478 4.91619H4.38741L4.26947 3.59487H6.09478V2.30469H2.85938L2.89031 2.65081L3.20737 6.20647H6.09478V4.91619ZM6.09478 8.26709L6.08906 8.26869L4.65216 7.88056L4.56037 6.85166H3.26503L3.44578 8.8775L6.08887 9.61119L6.09478 9.60959V8.26709Z" fill="#EBEBEB"/>
<path id="Vector_4" d="M6.08984 4.91619V6.20647H7.67863L7.52891 7.87981L6.08984 8.26822V9.61063L8.735 8.8775L8.75441 8.65953L9.05759 5.26269L9.089 4.91619H8.74137H6.08984ZM6.08984 2.30469V3.59487H9.20647L9.23234 3.305L9.29122 2.65081L9.32206 2.30469H6.08984Z" fill="white"/>
</g>
</svg>
