<svg width="14" height="14" viewBox="0 0 14 14" fill="none" xmlns="http://www.w3.org/2000/svg">
<g id="Logos/javascript-original">
<path id="Vector" d="M0.152344 0.152344H13.8443V13.8445H0.152344V0.152344Z" fill="#F0DB4F"/>
<path id="Vector_2" d="M12.7267 10.5822C12.6264 9.9576 12.2191 9.43293 11.0126 8.94369C10.5935 8.75108 10.1262 8.61316 9.98697 8.29554C9.93753 8.11069 9.93097 8.00657 9.96225 7.89468C10.052 7.53155 10.4855 7.41835 10.829 7.52248C11.0503 7.59663 11.2598 7.76715 11.3861 8.03916C11.9769 7.65657 11.9757 7.65909 12.3883 7.39615C12.2372 7.16198 12.1566 7.05391 12.0578 6.95373C11.7024 6.5568 11.2182 6.35238 10.4438 6.36802L10.0405 6.42019C9.65392 6.51787 9.28555 6.72076 9.06953 6.99277C8.42138 7.72821 8.60622 9.01533 9.39492 9.54504C10.1719 10.1282 11.3134 10.2609 11.4592 10.8062C11.601 11.4739 10.9685 11.69 10.3398 11.6132C9.8765 11.5169 9.61881 11.2814 9.34023 10.8532C8.82748 11.1499 8.82748 11.1499 8.3003 11.4531C8.42531 11.7264 8.55667 11.8501 8.76623 12.0869C9.75805 13.0929 12.24 13.0435 12.6851 11.5208C12.7032 11.4685 12.8231 11.1198 12.7267 10.5822ZM7.59866 6.44863H6.31798L6.31273 9.75963C6.31273 10.4638 6.34916 11.1093 6.23464 11.3072C6.04728 11.6963 5.56177 11.6481 5.3405 11.5726C5.1153 11.4619 5.00078 11.3046 4.86811 11.0821C4.83169 11.0182 4.80434 10.9688 4.79516 10.9649L3.75391 11.6026C3.92705 11.958 4.18211 12.2664 4.50881 12.4668C4.99684 12.7597 5.65277 12.8495 6.33877 12.692C6.78523 12.5619 7.17045 12.2925 7.37214 11.8825C7.66373 11.3449 7.60117 10.6942 7.59855 9.97455C7.60511 8.80041 7.59866 7.62649 7.59866 6.44863Z" fill="#323330"/>
</g>
</svg>
