<svg width="62" height="62" viewBox="0 0 62 62" fill="none" xmlns="http://www.w3.org/2000/svg">
<path fill-rule="evenodd" clip-rule="evenodd" d="M8.20241 0.832031C7.65652 0.874656 7.12031 0.867875 6.59186 1.0127C5.43566 1.32997 4.4083 1.83711 3.50203 2.61889C2.96922 3.07808 2.50422 3.57311 2.10945 4.1563C1.50011 5.05675 1.085 6.02453 0.876719 7.11389C0.960031 7.25969 1.0477 7.41275 1.1407 7.56823C1.73116 8.55539 2.32209 9.53577 2.914 10.522L4.46981 13.109C4.94837 13.9063 5.42597 14.704 5.90356 15.5013L8.13556 19.2252L9.65795 21.7653C10.3976 22.998 11.1392 24.2298 11.8778 25.463L14.5947 30.0021C15.3779 31.3094 16.1626 32.6157 16.9473 33.9221L17.0519 34.0742C17.1658 34.1105 17.2563 34.0795 17.3503 34.0573C18.384 33.8092 19.4176 33.5627 20.4513 33.3157C22.1277 32.9151 23.8041 32.516 25.4805 32.1149L28.1063 31.4867C29.8012 31.0817 31.4965 30.6778 33.1913 30.2719C34.9045 29.8621 36.6173 29.4504 38.331 29.0401C39.1971 28.8323 40.0631 28.6255 40.9297 28.4186C42.6061 28.0185 44.2825 27.6194 45.959 27.2203L51.4363 25.9159L51.7322 25.836L51.6513 25.6756L50.1565 23.5628L48.6802 21.4727L47.1011 19.2426L45.5918 17.1051L44.096 14.9927L42.5519 12.8097C42.0476 12.0976 41.5424 11.3866 41.0377 10.675L40.2399 9.54836C40.1171 9.37681 40.0212 9.18749 39.9556 8.98697C39.7977 8.49727 39.9779 8.17128 40.2637 7.93055C40.4487 7.77409 40.6618 7.6593 40.8924 7.59148C41.2126 7.49308 41.5376 7.41063 41.866 7.34445C42.5243 7.21997 43.1869 7.11438 43.8476 7.00442L46.0873 6.6392C46.5596 6.56122 47.0314 6.47936 47.5036 6.39944C48.1454 6.29094 48.7872 6.18195 49.4295 6.07491C50.0529 5.97028 50.6763 5.86663 51.2997 5.76394L53.3403 5.4302L54.7567 5.19237C55.2953 5.10228 55.8334 5.01267 56.3716 4.92452C57.0429 4.81505 57.7138 4.70461 58.3851 4.5995C58.7852 4.53702 59.1853 4.51522 59.5825 4.62953C59.8771 4.71679 60.1548 4.8532 60.404 5.03302L60.7532 5.27666C60.7881 5.19625 60.7377 5.15266 60.7145 5.10664C60.2188 4.096 59.5157 3.20113 58.651 2.48036C57.8487 1.80626 56.9209 1.29759 55.9211 0.983641C55.3258 0.795219 54.714 0.882891 54.0911 0.835906M26.9744 61.515C26.9443 61.515 26.9177 61.297 26.8838 61.2394C26.1572 59.9994 25.4229 58.6683 24.7051 57.424C23.8012 55.8552 22.904 54.2825 22.0134 52.7062C21.0616 51.0215 20.118 49.332 19.1735 47.6435C18.276 46.0382 17.38 44.432 16.4857 42.8249C15.9456 41.8537 15.4089 40.8806 14.8693 39.909L14.726 39.6867L14.4634 39.7385C13.9442 39.8727 13.4259 40.0078 12.9076 40.1444C12.1859 40.3343 11.4647 40.5275 10.7425 40.716C9.12127 41.1378 7.50006 41.5573 5.87886 41.9777C4.23005 42.4059 2.51197 42.8351 0.862672 43.2613C0.762406 43.287 0.96875 43.2957 0.484375 43.3127V53.5548C0.683938 53.8725 0.665047 53.7229 0.677641 53.8275C0.715906 54.1307 0.777906 54.4364 0.831187 54.7367C1.03075 55.8556 1.47977 56.88 2.12883 57.8129C3.08063 59.1818 4.34823 60.1602 5.90114 60.7589C6.45575 60.972 7.03458 61.1222 7.62648 61.1948L8.22759 61.3537" fill="#FD4F31"/>
<path fill-rule="evenodd" clip-rule="evenodd" d="M2.41025 37.6574C4.3182 37.2036 6.22664 36.7502 8.13459 36.2973C8.97256 36.0987 9.81102 35.9025 10.649 35.703C11.068 35.6032 11.4879 35.5083 11.9035 35.3959C12.2736 35.2961 12.3191 35.1735 12.1288 34.8398C11.8536 34.3574 11.5737 33.8778 11.2951 33.3969L8.84227 29.1731L6.39036 24.9489C5.55869 23.5161 4.72605 22.0833 3.89389 20.651L1.75683 16.9746C1.44877 16.4447 1.07483 15.9133 0.765313 15.3839C0.707672 15.2875 0.96875 15.1723 0.484375 15.1209V38.0783C0.484375 38.0628 0.703797 38.0498 0.777906 38.0318L2.41025 37.6574ZM61.1397 54.0671C60.3919 54.333 59.6435 54.6009 58.8961 54.8687L53.7884 56.7001C52.8424 57.0397 51.8984 57.3831 50.9519 57.7212C49.0231 58.4095 47.0934 59.0954 45.1641 59.7822C44.0462 60.1804 42.9277 60.6725 41.8103 61.0726C41.5042 61.1825 41.2024 61.5168 40.8992 61.5168H53.7303L54.0064 61.3584C54.3328 61.3443 54.654 61.2475 54.9746 61.1888C56.2916 60.9481 57.4711 60.3785 58.5159 59.5458C59.3185 58.906 59.9714 58.1237 60.4829 57.2315C61.009 56.3131 61.3214 55.3197 61.4715 54.2763C61.4846 54.1862 61.5127 54.084 61.4372 53.991C61.3306 53.9828 61.2366 54.0327 61.1397 54.0671ZM60.0378 36.8374C59.472 36.0633 58.9048 35.2908 58.3401 34.5163C57.5607 33.4472 56.7828 32.3773 56.0044 31.3078C55.6881 30.8738 55.3675 30.4431 55.0589 30.0043C54.9659 29.8721 54.8598 29.8367 54.715 29.8759L54.6322 29.8997C53.1994 30.2479 51.7661 30.5952 50.3329 30.9425L47.7647 31.5659L42.7408 32.7861C41.0847 33.1886 39.4286 33.5916 37.772 33.9931L32.6076 35.2438C30.9138 35.655 29.2209 36.0677 27.5275 36.4794L22.615 37.672C21.7494 37.8822 20.8838 38.0914 20.0192 38.3026C19.8918 38.3336 19.7548 38.3414 19.6191 38.444L19.7349 38.6644C21.2803 41.3357 22.83 44.0044 24.3839 46.6707C25.2916 48.227 26.2018 49.7823 27.111 51.3381C27.6336 52.2318 28.1528 53.1264 28.6798 54.0177C29.2643 55.0082 29.8541 55.9955 30.4493 56.9796C30.628 57.2736 30.831 57.5546 31.0354 57.8316C31.1722 58.0179 31.3444 58.1754 31.542 58.2952C31.7484 58.4197 31.9707 58.4589 32.2051 58.4061C32.3262 58.3785 32.4449 58.3388 32.5621 58.2981L32.9932 58.1383C34.5611 57.6021 36.1286 57.0658 37.697 56.5316C38.9205 56.115 40.1455 55.7004 41.37 55.2863C42.5853 54.8741 43.8015 54.4638 45.0173 54.0535L48.6375 52.831C49.8717 52.4139 51.1054 51.9969 52.3391 51.5788C53.8533 51.0649 55.367 50.5491 56.8821 50.0361C58.3425 49.542 59.8043 49.0509 61.2652 48.5578C61.3548 48.5278 61.4536 48.5152 61.5277 48.4168L61.5369 48.2042C61.5374 45.1744 61.5365 42.1442 61.5398 39.1144C61.5429 38.9616 61.4935 38.8124 61.3999 38.6916C60.9407 38.0769 60.4907 37.4559 60.0378 36.8374ZM59.7864 8.28928C59.4464 7.85867 59.0133 7.72208 58.4825 7.86061C58.2514 7.92116 58.0141 7.95942 57.7787 8.00253C57.0066 8.14397 56.2335 8.28299 55.4614 8.42297C54.3309 8.62835 53.2008 8.83566 52.0703 9.0391C51.1752 9.19991 50.2796 9.3583 49.384 9.51524L45.7909 10.144C45.6402 10.1701 45.4881 10.1963 45.3428 10.2428C45.1312 10.3106 45.0701 10.4433 45.167 10.6424C45.246 10.8051 45.3443 10.9606 45.4508 11.1069C46.1939 12.1309 46.9403 13.1524 47.6867 14.1744C48.7155 15.5835 49.7448 16.992 50.7741 18.4001C51.645 19.5917 52.5169 20.7833 53.3883 21.9743C54.0732 22.9101 54.7581 23.846 55.444 24.7813L55.5791 24.945L61.5229 23.4759L61.5369 23.1678C61.5374 19.0453 61.5365 14.9228 61.5398 10.7998C61.5398 10.6177 61.4958 10.4714 61.381 10.327C60.8811 9.69591 60.3904 9.0575 59.8959 8.422L59.7864 8.28928ZM61.3853 28.2654C60.4863 28.4814 59.5839 28.6868 58.6631 28.9304C58.7605 29.1034 61.286 32.5124 61.4328 32.6742L61.5248 32.725L61.535 32.5172L61.5355 31.082C61.536 30.2494 61.5379 29.4167 61.536 28.5841C61.536 28.4829 61.5645 28.3739 61.4948 28.2712L61.3853 28.2654Z" fill="#FD4F31"/>
</svg>
