<svg width="66" height="66" viewBox="0 0 66 66" fill="none" xmlns="http://www.w3.org/2000/svg">
<path d="M33 0C14.7984 0 0 14.7984 0 33C0 51.2016 14.7984 66 33 66C51.2016 66 66 51.2016 66 33C66 14.7984 51.2016 0 33 0ZM49.8609 58.9875L24.9563 21.5531H21.45V47.3859H24.9563V28.5141L47.7469 60.225C43.3641 62.5969 38.3625 63.9375 33 63.9375C15.8812 63.9891 2.01094 50.1188 2.01094 33C2.01094 15.8812 15.8812 2.01094 33 2.01094C50.1188 2.01094 63.9891 15.8812 63.9891 33C63.9891 43.8797 58.3687 53.4703 49.8609 58.9875Z" fill="#9C9C9C"/>
<path d="M40.5283 37.7969L44.3955 43.6234V21.5547H40.5283V37.7969Z" fill="#9C9C9C"/>
</svg>
