<svg width="60" height="60" viewBox="0 0 60 60" fill="none" xmlns="http://www.w3.org/2000/svg">
<path d="M53.5897 37.8509C53.4537 37.8509 53.3187 37.8153 53.1997 37.7459L51.9575 37.0109C51.7719 36.9073 51.8623 36.8703 51.9237 36.8492C52.1712 36.7629 52.2214 36.7428 52.4853 36.5937C52.513 36.5782 52.5491 36.5839 52.5777 36.6007L53.5316 37.1675C53.5493 37.1769 53.5691 37.1819 53.5892 37.1819C53.6093 37.1819 53.6291 37.1769 53.6469 37.1675L57.3673 35.0201C57.3849 35.0098 57.3993 34.995 57.4094 34.9774C57.4194 34.9597 57.4246 34.9397 57.4245 34.9193V30.6256C57.4245 30.605 57.4193 30.5847 57.4092 30.5667C57.3991 30.5487 57.3845 30.5336 57.3669 30.5229L53.6478 28.3775C53.6302 28.3678 53.6105 28.3627 53.5904 28.3627C53.5703 28.3627 53.5506 28.3678 53.533 28.3775L49.8144 30.5234C49.7967 30.5341 49.7821 30.549 49.7719 30.5669C49.7616 30.5848 49.7561 30.605 49.7558 30.6256V34.9193C49.7558 34.9606 49.7787 34.9995 49.8144 35.0187L50.8334 35.6079C51.3866 35.884 51.7255 35.5587 51.7255 35.2315V30.9917C51.7255 30.9321 51.7737 30.8848 51.8333 30.8848H52.3053C52.3639 30.8848 52.4127 30.9321 52.4127 30.9917V35.2315C52.4127 35.9693 52.0109 36.3926 51.3111 36.3926C51.0959 36.3926 50.9267 36.3926 50.4542 36.1601L49.4787 35.5986C49.3601 35.5294 49.2616 35.4303 49.1932 35.3112C49.1248 35.1921 49.0887 35.0572 49.0887 34.9198V30.626C49.0887 30.3471 49.2373 30.087 49.4787 29.9482L53.1992 27.7981C53.3191 27.7328 53.4534 27.6986 53.5899 27.6986C53.7264 27.6986 53.8607 27.7328 53.9806 27.7981L57.7011 29.9482C57.942 30.0875 58.0916 30.3476 58.0916 30.626V34.9198C58.0913 35.0572 58.0552 35.1921 57.9867 35.3111C57.9182 35.4302 57.8197 35.5293 57.7011 35.5986L53.9806 37.7464C53.8619 37.8153 53.727 37.8513 53.5897 37.8509ZM54.7395 34.8926C53.1106 34.8926 52.7698 34.145 52.7698 33.5182C52.77 33.4897 52.7814 33.4624 52.8016 33.4423C52.8218 33.4222 52.8491 33.4109 52.8777 33.4109H53.3586C53.3843 33.4108 53.4092 33.4199 53.4288 33.4366C53.4484 33.4533 53.4614 33.4764 53.4655 33.5018C53.5377 33.9917 53.7547 34.2387 54.7395 34.2387C55.5228 34.2387 55.8566 34.0615 55.8566 33.6453C55.8566 33.4053 55.7619 33.2276 54.5441 33.1081C53.5259 33.0073 52.8964 32.7828 52.8964 31.9676C52.8964 31.2171 53.5292 30.769 54.5895 30.769C55.7816 30.769 56.3712 31.1829 56.4458 32.0707C56.4469 32.0857 56.4451 32.1007 56.4402 32.1149C56.4354 32.1291 56.4277 32.1421 56.4177 32.1532C56.4075 32.1639 56.3953 32.1724 56.3817 32.1783C56.3682 32.1842 56.3536 32.1873 56.3389 32.1875H55.8556C55.8312 32.1875 55.8076 32.1792 55.7886 32.1639C55.7696 32.1487 55.7563 32.1274 55.7511 32.1035C55.6348 31.5879 55.3536 31.4234 54.5891 31.4234C53.7336 31.4234 53.6342 31.722 53.6342 31.9446C53.6342 32.2151 53.7514 32.2939 54.9069 32.4467C56.0502 32.5981 56.5934 32.8118 56.5934 33.6157C56.5939 34.4281 55.918 34.8926 54.7395 34.8926ZM45.9289 32.0764C46.0756 31.9906 46.1661 31.834 46.1661 31.6639V30.5604C46.1661 30.3907 46.0761 30.2342 45.9289 30.1484L42.0083 27.8721C41.9358 27.83 41.8534 27.8077 41.7696 27.8075C41.6857 27.8074 41.6033 27.8293 41.5306 27.8712L37.5856 30.1489C37.5133 30.1907 37.4532 30.2509 37.4114 30.3233C37.3696 30.3957 37.3476 30.4778 37.3475 30.5614V35.1157C37.3475 35.2868 37.4394 35.4453 37.5884 35.5301L41.5086 37.7637C41.653 37.8467 41.8302 37.8471 41.9759 37.7665L44.3469 36.4484C44.3838 36.4279 44.4146 36.398 44.4361 36.3617C44.4577 36.3254 44.4692 36.284 44.4694 36.2418C44.4697 36.1996 44.4588 36.1581 44.4377 36.1215C44.4167 36.0849 44.3863 36.0545 44.3497 36.0336L40.3803 33.7554C40.3439 33.7347 40.3136 33.7047 40.2925 33.6685C40.2715 33.6322 40.2604 33.5911 40.2603 33.5492V32.1214C40.2603 32.0361 40.3058 31.9578 40.3794 31.9156L41.6155 31.2031C41.6516 31.1821 41.6926 31.1711 41.7343 31.1711C41.776 31.1711 41.817 31.1821 41.8531 31.2031L43.0892 31.9156C43.1255 31.9363 43.1556 31.9663 43.1766 32.0024C43.1976 32.0386 43.2087 32.0796 43.2087 32.1214V33.2445C43.2085 33.2865 43.2194 33.3278 43.2403 33.3642C43.2612 33.4006 43.2914 33.4309 43.3278 33.4518C43.3642 33.4728 43.4055 33.4837 43.4475 33.4835C43.4895 33.4833 43.5307 33.472 43.5669 33.4507L45.9289 32.0764ZM41.7111 31.8626C41.7251 31.8548 41.7408 31.8507 41.7568 31.8507C41.7728 31.8507 41.7885 31.8548 41.8025 31.8626L42.5595 32.3C42.5877 32.3164 42.605 32.3468 42.605 32.3792V33.2534C42.605 33.2862 42.5877 33.3162 42.5595 33.3326L41.8025 33.7695C41.7886 33.7776 41.7728 33.7818 41.7568 33.7818C41.7407 33.7818 41.725 33.7776 41.7111 33.7695L40.9545 33.3326C40.9405 33.3247 40.9289 33.3131 40.9209 33.2992C40.9128 33.2853 40.9086 33.2695 40.9086 33.2534V32.3792C40.9086 32.3468 40.9259 32.3164 40.9545 32.3L41.7111 31.8626ZM31.445 33.6814C31.445 33.7235 31.4225 33.7629 31.3855 33.7845L30.0308 34.5654C30.0127 34.576 29.9922 34.5816 29.9712 34.5816C29.9503 34.5816 29.9298 34.576 29.9117 34.5654L28.557 33.7845C28.539 33.774 28.524 33.759 28.5135 33.7409C28.5031 33.7228 28.4975 33.7023 28.4975 33.6814V32.1167C28.4975 32.0745 28.5205 32.0346 28.557 32.0131L29.9117 31.2312C29.9298 31.2204 29.9504 31.2147 29.9715 31.2147C29.9925 31.2147 30.0132 31.2204 30.0312 31.2312L31.3864 32.0131C31.4044 32.0238 31.4192 32.0389 31.4296 32.0571C31.4399 32.0752 31.4454 32.0958 31.4455 32.1167V33.6814H31.445ZM31.8111 22.0957C31.7748 22.0759 31.7339 22.0658 31.6925 22.0664C31.6511 22.0671 31.6106 22.0784 31.5749 22.0994C31.5392 22.1204 31.5096 22.1502 31.4889 22.186C31.4682 22.2219 31.4571 22.2625 31.4567 22.3039V28.3578C31.4566 28.387 31.4489 28.4156 31.4343 28.4409C31.4198 28.4663 31.3989 28.4873 31.3737 28.5021C31.3483 28.5167 31.3196 28.5243 31.2903 28.5243C31.261 28.5243 31.2323 28.5167 31.2069 28.5021L30.2187 27.9326C30.1464 27.8909 30.0644 27.869 29.9809 27.869C29.8974 27.869 29.8153 27.8909 29.743 27.9326L25.797 30.2098C25.7245 30.2517 25.6643 30.3119 25.6224 30.3843C25.5806 30.4568 25.5585 30.5391 25.5584 30.6228V35.1785C25.5584 35.3487 25.6494 35.5057 25.7966 35.5915L29.7425 37.8701C29.8897 37.9554 30.0716 37.9554 30.2192 37.8701L34.1661 35.5915C34.2384 35.5495 34.2985 35.4893 34.3403 35.4168C34.3821 35.3444 34.4041 35.2622 34.4042 35.1785V23.8221C34.4042 23.6496 34.3105 23.4903 34.16 23.4059L31.8111 22.0957ZM17.9239 27.8468C17.9963 27.8049 18.0784 27.7829 18.162 27.7829C18.2456 27.7829 18.3278 27.8049 18.4002 27.8468L22.3461 30.1236C22.4933 30.2089 22.5842 30.3664 22.5842 30.5365V35.0937C22.5842 35.2639 22.4933 35.4214 22.3461 35.5067L18.4006 37.7853C18.3281 37.827 18.2459 37.8489 18.1623 37.8489C18.0786 37.8489 17.9964 37.827 17.9239 37.7853L13.9794 35.5067C13.907 35.4647 13.847 35.4045 13.8052 35.332C13.7634 35.2595 13.7413 35.1774 13.7413 35.0937V30.536C13.7413 30.3664 13.8322 30.2089 13.9794 30.1236L17.9239 27.8468ZM10.7483 30.4986C10.7483 30.327 10.6583 30.1695 10.5102 30.0846L6.56563 27.8145C6.49938 27.7761 6.42466 27.7547 6.34812 27.7521H6.30734C6.23082 27.7547 6.15611 27.7761 6.08984 27.8145L2.14484 30.0846C2.07227 30.1267 2.01202 30.187 1.97014 30.2597C1.92827 30.3323 1.90623 30.4147 1.90625 30.4986L1.91469 36.611C1.91469 36.6964 1.95922 36.7756 2.03375 36.8168C2.06944 36.8385 2.11037 36.8499 2.15211 36.8499C2.19384 36.8499 2.23478 36.8385 2.27047 36.8168L4.61422 35.4743C4.76234 35.3862 4.85281 35.231 4.85281 35.0609V32.2053C4.85281 32.0346 4.94281 31.8776 5.09047 31.7923L6.08891 31.2176C6.16107 31.1752 6.24333 31.153 6.32703 31.1534C6.40859 31.1534 6.49203 31.174 6.56469 31.2176L7.56219 31.7923C7.70984 31.8776 7.80078 32.0346 7.80078 32.2053V35.0609C7.80078 35.231 7.89219 35.3871 8.03937 35.4743L10.3831 36.8168C10.4193 36.8375 10.4602 36.8483 10.5018 36.8482C10.5434 36.8481 10.5843 36.8371 10.6204 36.8163C10.6564 36.7955 10.6864 36.7655 10.7072 36.7295C10.7281 36.6935 10.7392 36.6527 10.7394 36.611L10.7483 30.4986Z" fill="#83CD29"/>
</svg>
