<svg width="60" height="60" viewBox="0 0 60 60" fill="none" xmlns="http://www.w3.org/2000/svg">
<path d="M18.4063 51.0778L18.2732 50.812C18.0074 50.28 18.0074 49.748 18.1405 49.0828H3.77757L25.0565 11.3137L33.9669 27.4059L36.8924 25.2778L27.9819 9.18563C27.8493 8.91984 26.7852 7.32422 25.0565 7.32422C24.2582 7.32422 23.0615 7.59 22.1305 9.31875L0.585847 47.4872C0.452722 47.8866 -0.478215 49.6153 0.319597 51.0778C0.851629 51.8761 1.64991 52.6739 3.51178 52.6739H21.5985C19.7366 52.6739 18.8057 51.8761 18.4063 51.0783V51.0778Z" fill="#00C58E"/>
<path d="M59.3669 47.6188L42.078 16.4989C41.8122 16.2331 40.8813 14.5039 39.1521 14.5039C38.3543 14.5039 37.1575 14.9028 36.2266 16.4989L33.9658 20.2227V27.4044L39.1525 18.4939L56.3083 49.0817H49.7918C49.9008 49.7149 49.8076 50.3663 49.5255 50.9436L49.3924 51.0767C48.5946 52.5392 46.5996 52.6723 46.3338 52.6723H56.441C56.8399 52.6723 58.7018 52.5397 59.6327 51.0767C60.0316 50.4116 60.2979 49.2148 59.3669 47.6188Z" fill="#108775"/>
<path d="M49.9266 51.0802V50.947L50.0597 50.6813C50.1923 50.1492 50.3255 49.6172 50.1923 49.0852L49.6608 47.4895L36.0961 23.8172L34.1011 20.2266H33.968L31.973 23.8172L18.4083 47.4891L17.8767 49.0852C17.7479 49.7614 17.8411 50.4612 18.1425 51.0802C18.6745 51.878 19.4723 52.6763 21.3342 52.6763H46.6027C47.0016 52.6763 48.9966 52.5431 49.9275 51.0802H49.9266ZM33.9675 27.4078L46.3359 49.0852H21.5995L33.9675 27.4078Z" fill="#2F495E"/>
</svg>
