<svg width="105" height="43" viewBox="0 0 105 43" fill="none" xmlns="http://www.w3.org/2000/svg">
<path fill-rule="evenodd" clip-rule="evenodd" d="M21.5647 31.5498C16.5305 31.5498 14.0154 28.5598 13.0441 25.436C14.1401 30.5146 20.0619 35.4684 38.6953 37.6669C56.3099 39.7529 67.7877 34.5103 71.6711 32.0658C71.6711 32.0658 74.2887 30.9477 72.7186 32.6777C72.7186 32.6777 61.6378 42.6273 39.829 42.7553C18.0628 42.8578 0.75914 32.2036 0.89039 21.3919C0.78457 10.6253 18.0628 -0.0543653 39.8298 0.0317675C61.5935 0.134307 72.7194 10.106 72.7194 10.106C74.2895 11.8328 71.6719 10.7213 71.6719 10.7213C67.8008 8.28575 56.3517 3.4861 38.6961 5.12017C21.2998 6.74767 15.6503 12.4866 13.7504 16.3191C13.0841 17.6605 12.6981 19.1236 12.6159 20.6192C13.0835 16.931 15.4452 12.6047 21.5336 12.6047C28.4225 12.6047 30.5406 18.2058 30.5406 22.0801C30.5406 25.9545 28.4291 31.5137 21.5336 31.5137L21.5647 31.5498ZM91.7589 27.8231H100.942V31.0757H87.8747V13.1125H91.7359V27.8043L91.7589 27.8231ZM77.5863 21.405H85.312V31.0954H82.7387L82.354 28.8493C81.3737 29.9486 79.9538 31.5761 76.57 31.5761C72.1099 31.5761 68.0494 28.4777 68.0494 22.1876C68.0494 17.2788 70.8565 12.6679 77.0982 12.6679C82.751 12.6679 85.0003 16.2436 85.221 18.6988H81.3598C81.3598 17.9999 80.0432 15.7473 77.3156 15.7473C74.5602 15.7473 72.0156 17.5996 72.0156 22.2073C72.0156 27.1193 74.771 28.3695 77.4018 28.3695C78.2508 28.3695 81.0833 28.0454 81.8626 24.4188H77.5625V21.3943L77.5863 21.405ZM21.5196 14.8171C17.5017 14.8171 15.0761 17.89 15.0761 22.1392C15.0761 26.3622 17.4952 29.4613 21.5196 29.4613C25.5375 29.4613 27.9664 26.3851 27.9664 22.1392C27.9664 17.9129 25.5473 14.8171 21.5196 14.8171ZM31.94 19.5979H33.8145V21.2221H33.8596C34.337 20.5617 35.2377 19.264 37.3877 19.264C40.5312 19.264 42.7739 21.8496 42.7739 25.08C42.7739 27.8231 41.1431 31.412 37.1211 31.412C35.5379 31.412 34.5002 30.6877 33.9777 29.8739H33.9326V35.6448H31.9425V19.62L31.94 19.5979ZM36.971 29.7656C39.1432 29.7656 40.614 27.9363 40.614 25.4139C40.614 23.9365 39.9988 21.0178 36.9259 21.0178C34.0581 21.0178 33.7406 24.0267 33.7406 25.8888C33.7406 28.9363 35.7077 29.7533 36.971 29.7533V29.7656ZM54.8062 27.4999C54.739 28.0512 54.1976 29.6754 52.7046 30.6401C52.1632 30.9928 51.3938 31.435 49.4972 31.435C46.1708 31.435 44.2004 28.9962 44.2004 25.6608C44.2004 22.1039 45.9657 19.287 49.8942 19.287C53.3067 19.287 54.9703 21.9243 54.9703 26.0061H46.3185C46.3185 28.4031 47.4686 29.7812 49.7564 29.7812C51.6341 29.7812 52.7399 28.3809 52.8072 27.5221H54.8005L54.8062 27.4999ZM52.698 24.4525C52.5824 22.6708 51.8138 21.0268 49.3947 21.0268C47.5621 21.0268 46.1134 22.6708 46.1134 24.4525H52.698ZM65.942 31.0822H63.9519V24.0202C63.9519 22.0235 63.3621 21.0145 61.4172 21.0145C60.2859 21.0145 58.2959 21.7159 58.2959 24.8339V31.079H56.3025V19.5815H58.1802V21.2032H58.2253C58.6543 20.588 59.7601 19.2484 61.7978 19.2484C63.6271 19.2484 65.9346 19.9727 65.9346 23.2474V31.0437M104.798 30.4736C104.799 30.7658 104.721 31.053 104.571 31.3037C104.423 31.5596 104.208 31.7702 103.949 31.9124C103.69 32.0602 103.397 32.1374 103.1 32.1363C102.799 32.1363 102.516 32.0592 102.254 31.9124C101.991 31.7656 101.786 31.5629 101.632 31.3037C101.482 31.053 101.403 30.7658 101.405 30.4736C101.405 30.1791 101.482 29.9002 101.632 29.6401C101.782 29.3867 101.997 29.1777 102.254 29.0347C102.512 28.8884 102.803 28.812 103.1 28.8133C103.401 28.8133 103.689 28.8871 103.949 29.0347C104.208 29.1824 104.42 29.3842 104.571 29.6401C104.72 29.8923 104.799 30.1803 104.798 30.4736ZM104.471 30.4736C104.474 30.2965 104.44 30.1207 104.371 29.9579C104.301 29.795 104.198 29.6487 104.068 29.5286C103.802 29.2628 103.478 29.1315 103.103 29.1315C102.728 29.1315 102.402 29.2628 102.135 29.5286C102.006 29.6493 101.904 29.7958 101.835 29.9586C101.766 30.1214 101.732 30.2968 101.735 30.4736C101.732 30.6508 101.766 30.8267 101.835 30.99C101.904 31.1533 102.006 31.3004 102.135 31.4218C102.262 31.549 102.413 31.6493 102.579 31.7165C102.745 31.7838 102.924 31.8166 103.103 31.8131C103.481 31.8131 103.802 31.6852 104.068 31.4218C104.197 31.3001 104.299 31.153 104.368 30.9898C104.438 30.8267 104.473 30.6509 104.471 30.4736ZM102.334 29.5827H103.145C103.372 29.5827 103.542 29.6311 103.644 29.7205C103.747 29.8099 103.799 29.9354 103.799 30.0856C103.799 30.2045 103.76 30.307 103.68 30.3965C103.603 30.4801 103.478 30.5441 103.308 30.5851C103.364 30.6025 103.416 30.6297 103.462 30.6655C103.52 30.7187 103.568 30.7804 103.607 30.8484C103.706 31.0186 103.804 31.1895 103.901 31.3611H103.366L103.017 30.7558C102.959 30.6885 102.898 30.6532 102.84 30.6532C102.824 30.6532 102.808 30.6565 102.783 30.6598V31.3611H102.331L102.334 29.5827ZM102.786 30.339H102.982C103.11 30.339 103.203 30.3169 103.257 30.275C103.282 30.2566 103.303 30.2325 103.317 30.2047C103.331 30.1769 103.338 30.1462 103.338 30.1151C103.338 30.0847 103.332 30.0546 103.318 30.0273C103.305 30 103.285 29.9764 103.26 29.9584C103.21 29.9166 103.123 29.8944 102.998 29.8944H102.786V30.339Z" fill="#5586A4"/>
</svg>
