<svg width="66" height="66" viewBox="0 0 66 66" fill="none" xmlns="http://www.w3.org/2000/svg">
<path d="M58.1991 34.3398C62.8418 37.0608 65.9619 42.0881 65.9717 47.8446C65.9882 56.5097 58.9504 63.5469 50.2554 63.5608C41.5604 63.5773 34.4984 56.5638 34.4824 47.8987C34.4721 42.1423 37.5741 37.1051 42.2086 34.3656L46.7327 41.9855C46.8456 42.1763 46.7811 42.4223 46.5976 42.5476C44.8857 43.7077 43.7637 45.665 43.7678 47.8827C43.774 51.438 46.6723 54.3162 50.2389 54.3079C53.8065 54.3018 56.6925 51.4153 56.6863 47.8606C56.6827 45.6434 55.5545 43.6892 53.8385 42.5352C53.6554 42.4104 53.5889 42.1645 53.7013 41.9732L58.1991 34.3398Z" fill="#128DFF"/>
<path d="M23.4486 34.2478C21.0993 32.9365 18.4527 32.25 15.7622 32.2539C7.06514 32.2539 0.0175781 39.2793 0.0175781 47.9444C0.0175781 56.609 7.06514 63.6349 15.7622 63.6349C24.5 63.6349 31.7208 56.2423 31.5011 47.5412H22.6386C22.405 47.5412 22.2219 47.7387 22.2199 47.9702C22.1977 51.4367 19.2952 54.3815 15.7622 54.3815C12.193 54.3815 9.30295 51.4991 9.30295 47.9439C9.30295 44.3892 12.193 41.5068 15.7622 41.5068C16.695 41.5068 17.5834 41.7043 18.3847 42.0606C18.5821 42.1472 18.8157 42.0812 18.9245 41.8977L23.4486 34.2478Z" fill="#8BDA67"/>
<path d="M24.7219 31.7872C20.0854 29.058 16.9736 24.025 16.9736 18.2686C16.9736 9.60352 24.0233 2.57812 32.7182 2.57812C41.4132 2.57812 48.4629 9.60352 48.4629 18.2686C48.4629 24.025 45.3511 29.058 40.7146 31.7872L36.2023 24.1622C36.0894 23.9714 36.1539 23.7255 36.3395 23.6002C38.0514 22.4421 39.177 20.4863 39.177 18.2686C39.177 14.7139 36.2848 11.8315 32.7177 11.8315C29.1506 11.8315 26.2585 14.7139 26.2585 18.2691C26.2585 20.4863 27.3841 22.4421 29.0965 23.6007C29.2821 23.7255 29.3461 23.9709 29.2331 24.1627L24.7219 31.7872Z" fill="#FF2A44"/>
</svg>
