<svg width="68" height="68" viewBox="0 0 68 68" fill="none" xmlns="http://www.w3.org/2000/svg">
<path fill-rule="evenodd" clip-rule="evenodd" d="M65.4808 40.7915C65.2417 39.2413 63.9396 38.2261 62.4251 38.1576C61.8768 38.1326 61.3201 38.19 60.7734 38.2596C60.1131 38.3435 59.4607 38.4922 58.8019 38.5905C58.3466 38.6585 57.885 38.6899 57.4302 38.7366L57.4191 38.6777C58.268 37.0743 59.1526 35.4886 59.9558 33.8624C60.5715 32.615 61.0985 31.3225 61.6431 30.0406C62.5441 27.9167 63.2639 25.7268 63.86 23.5014C64.4311 21.3706 64.9198 19.2164 65.0733 17.0058C65.135 16.1229 65.1775 15.2363 65.1727 14.3523C65.1684 13.6473 65.0925 12.9412 65.0218 12.2384C64.9421 11.433 64.6988 10.6696 64.362 9.93491C63.9179 8.96697 63.2294 8.17275 62.5047 7.41838C61.9246 6.81434 61.2866 6.26397 60.6539 5.71412C59.7518 4.92947 58.7377 4.30312 57.6842 3.74691C56.4908 3.11277 55.2265 2.62237 53.9176 2.28597C53.1245 2.08356 52.3132 1.93322 51.51 1.77278C51.221 1.71434 50.9315 1.59375 50.6425 1.59375H45.2019C45.0054 1.59375 44.8104 1.69522 44.6122 1.71753C43.3096 1.86256 42.0224 2.108 40.7724 2.49528C40.3049 2.64031 39.8777 2.54894 39.4336 2.50803C39.0931 2.47669 38.7584 2.38531 38.4179 2.36831C37.1206 2.3035 35.8217 2.20841 34.5249 2.22222C33.2823 2.23497 32.0524 2.4395 30.8497 2.78109C29.843 3.06691 28.858 3.41594 27.956 3.94506C27.5697 4.17138 27.2637 4.12888 26.8642 4.01359C25.5218 3.62631 24.1697 3.26241 22.806 2.95694C21.956 2.76675 21.0821 2.67219 20.2141 2.58134C19.3811 2.49477 18.5449 2.44267 17.7076 2.42516C16.8906 2.40763 16.0677 2.40816 15.2543 2.48041C13.9588 2.59303 12.6819 2.86294 11.4516 3.28419C10.0891 3.74942 8.81602 4.44382 7.68719 5.33747C6.53597 6.24856 5.61266 7.361 4.86997 8.63122C4.08744 9.97156 3.55088 11.4065 3.21725 12.9136C3.03663 13.7302 2.92241 14.5695 2.79863 15.3988C2.75984 15.657 3.1875 15.9152 2.65625 16.1723V19.7816C3.1875 20.0217 2.76675 20.2613 2.79756 20.502C2.87141 21.0805 2.93675 21.6638 3.0345 22.2381C3.18909 23.1471 3.37237 24.0534 3.55937 24.9565C3.81903 26.2188 4.09282 27.4781 4.38069 28.7343C4.59106 29.648 4.83066 30.5564 5.08141 31.4601C5.46444 32.8403 5.84162 34.2231 6.27459 35.5879C6.67675 36.856 7.13734 38.106 7.59422 39.3561C8.22694 41.0853 8.9845 42.7587 9.89294 44.3626C10.6787 45.7512 11.5765 47.0518 12.7808 48.1217C13.5745 48.8267 14.458 49.3685 15.4865 49.6395C16.2945 49.852 17.1158 49.8775 17.943 49.708C18.8854 49.5163 19.7657 49.0945 20.5057 48.4803C20.5923 48.4091 20.6874 48.3549 20.7899 48.4856C21.1804 48.9802 21.7032 49.3101 22.2498 49.5954C23.7251 50.3646 25.3327 50.5952 26.9657 50.6892C27.361 50.7121 27.7605 50.6552 28.1589 50.6441C28.9351 50.6228 29.6894 50.4714 30.4316 50.2568C30.8205 50.1442 31.2003 50.0013 31.5961 49.8679C31.6168 50.2892 31.6434 50.6951 31.6556 51.1009L31.7108 53.3141C31.7209 53.6509 31.7342 53.9888 31.7656 54.324C31.8458 55.1884 31.9244 56.0533 32.0275 56.9149C32.0992 57.5089 32.1736 58.1076 32.3133 58.6872C32.5934 59.8572 32.977 61 33.4597 62.1021C33.9218 63.1717 34.632 64.116 35.5316 64.8566C36.711 65.832 38.0933 66.2479 39.5861 66.325C40.2034 66.3574 40.8382 66.3271 41.446 66.2166C42.4119 66.0449 43.3674 65.8188 44.3078 65.5392C46.2156 64.9634 47.8646 63.9689 49.0965 62.3618C49.7978 61.446 50.3736 60.4552 50.7434 59.3613C51.0483 58.4577 51.3357 57.545 51.5642 56.6201C51.7448 55.8912 51.8341 55.1395 51.944 54.3952C52.0168 53.9027 52.0604 53.4055 52.1061 52.9093C52.1804 52.1034 52.2564 51.298 52.3101 50.4905C52.3472 49.9285 52.3456 49.3638 52.368 48.8006C52.3749 48.629 52.4025 48.4585 52.4184 48.2874C52.4333 48.1291 52.513 48.0744 52.6745 48.0771C53.2435 48.0856 53.8135 48.1004 54.3809 48.0749C55.0168 48.0463 55.6585 48.0192 56.2843 47.914C57.1761 47.765 58.0606 47.5759 58.9353 47.3471C59.9675 47.0773 60.9142 46.5938 61.8253 46.0429C62.8867 45.4017 63.8541 44.6494 64.6393 43.6804C65.322 42.8352 65.6455 41.8582 65.4808 40.7915ZM63.6682 41.3132C63.6331 41.7993 63.4105 42.2158 63.0875 42.5717C61.5634 44.2521 59.6514 45.2715 57.4642 45.7736C56.6334 45.9638 55.7759 46.0626 54.9254 46.1412C54.1987 46.2051 53.4687 46.2223 52.7398 46.1927C52.2054 46.1725 51.6752 46.0503 51.1291 45.9717C51.0744 46.4711 51.0223 46.9912 50.9591 47.5102L50.7046 49.4998C50.6276 50.1303 50.5676 50.7631 50.4884 51.3931C50.4108 52.0046 50.3142 52.6139 50.2329 53.2254C50.1569 53.7949 50.1011 54.3671 50.0167 54.9355C49.8865 55.8067 49.7622 56.6801 49.5922 57.5445C49.3882 58.5778 49.0753 59.5786 48.5647 60.5104C47.9421 61.6478 47.0592 62.5143 45.9356 63.1561C44.7775 63.818 43.5115 64.1623 42.228 64.4502C41.3196 64.6542 40.3835 64.6877 39.4634 64.6048C37.8675 64.4603 36.5054 63.7776 35.4758 62.5403C34.493 61.3594 33.8279 60.0057 33.5899 58.4736C33.4788 57.7443 33.3918 57.0115 33.329 56.2764C33.2586 55.4595 33.2056 54.6412 33.1702 53.822C33.1231 52.7828 33.0882 51.7431 33.0655 50.703C33.0374 49.4248 33.0283 48.1467 33.0103 46.8685L33.0071 46.8196C32.3568 47.2095 31.7177 47.6367 31.0399 47.9883C30.2477 48.3981 29.3805 48.6427 28.4909 48.7071C27.7907 48.7603 27.0815 48.8086 26.3845 48.7528C25.2418 48.6609 24.1002 48.4819 23.077 47.9193C22.6621 47.6908 22.2291 47.413 21.9433 47.048C21.258 46.1736 21.5863 45.0686 22.6196 44.5368C23.3336 44.1687 24.1129 44.0151 24.8869 43.8361C25.5606 43.6832 26.2273 43.5008 26.885 43.2894C27.5342 43.0769 27.9437 42.5505 28.348 42.0341L28.9887 41.2101C28.7215 41.182 28.4697 41.1533 28.2179 41.1299C27.4534 41.0577 26.724 40.8473 26.0265 40.5381C25.4293 40.2741 25.4203 40.2454 24.9826 40.7203C24.2516 41.514 23.5407 42.3263 22.8246 43.1333C22.2976 43.7267 21.7738 44.3238 21.2495 44.9188C20.7299 45.5074 20.2433 46.1295 19.6839 46.6772C18.853 47.4906 17.8516 47.9798 16.6568 47.9246C15.8902 47.8895 15.1884 47.6207 14.5573 47.1814C13.2547 46.274 12.3771 45.0048 11.5781 43.6719C10.5543 41.964 9.76862 40.1444 9.09606 38.275C8.63069 36.983 8.16319 35.6899 7.75678 34.3793C7.31531 32.955 6.92803 31.5127 6.54712 30.0709C6.2626 28.9816 6.00011 27.8866 5.75981 26.7867C5.47961 25.5375 5.22033 24.2838 4.98206 23.026C4.82375 22.1765 4.73184 21.3148 4.60381 20.4595C4.43116 19.3067 4.39928 18.1432 4.46197 16.9857C4.51775 15.9428 4.66756 14.9026 4.81631 13.8667C5.02244 12.4334 5.49472 11.0808 6.17419 9.80369C6.59016 9.02116 7.10653 8.30981 7.70366 7.64894C8.68381 6.56413 9.87009 5.78 11.1897 5.19138C12.112 4.78019 13.0863 4.53263 14.0792 4.33925C15.5529 4.05238 17.0398 4.06353 18.5273 4.09434C19.1776 4.10762 19.8252 4.22609 20.4749 4.29038C21.8737 4.42956 23.2448 4.72388 24.5985 5.08725C25.585 5.35181 26.5513 5.69447 27.5299 5.99197C27.6282 6.02172 27.7722 6.01906 27.8524 5.96647C29.1784 5.10106 30.6276 4.52997 32.1688 4.20325C32.7537 4.07947 33.3572 4.02528 33.9554 3.98703C34.6827 3.94081 35.4158 3.89831 36.1415 3.94028C37.0138 3.99022 37.8818 4.11878 38.7488 4.23778C39.1696 4.29516 39.5802 4.44125 40.0021 4.48109C40.2039 4.50022 40.418 4.35253 40.6316 4.30313C41.7201 4.05184 42.8039 3.77187 43.902 3.57319C44.7196 3.4255 45.5547 3.35591 46.3861 3.30809C47.3131 3.25497 48.2471 3.21619 49.1736 3.26081C50.3467 3.31891 51.5123 3.48303 52.6559 3.75116C54.0781 4.08212 55.4423 4.56291 56.7391 5.23016C57.7081 5.72847 58.6293 6.30647 59.4586 7.01728C60.002 7.48372 60.5582 7.94431 61.0491 8.46388C61.6547 9.10456 62.2726 9.74578 62.6524 10.5666C62.9382 11.1855 63.1422 11.8262 63.1986 12.504C63.2687 13.3466 63.3537 14.1923 63.3457 15.036C63.3383 15.8429 63.2283 16.6494 63.1502 17.4542C62.9728 19.2892 62.5738 21.0842 62.0893 22.8554C61.684 24.3185 61.2252 25.7663 60.7139 27.1958C60.2469 28.5138 59.7082 29.8079 59.1637 31.0967C58.7629 32.0514 58.3273 32.9911 57.8579 33.9139C56.967 35.6596 56.0405 37.3872 54.969 39.0315C54.7841 39.3157 54.6088 39.6068 54.4282 39.8969C54.8957 40.2124 55.4253 40.3235 55.9587 40.3808C56.466 40.4361 56.9835 40.469 57.4903 40.4313C58.3015 40.3713 59.1101 40.2555 59.9165 40.1423C60.7155 40.0307 61.4986 39.8034 62.3188 39.8634C63.138 39.9229 63.724 40.5455 63.6682 41.3132ZM51.9738 39.5319C51.6258 39.0825 51.2709 38.6383 50.9304 38.1836C50.396 37.4696 50.0119 36.6722 49.6262 35.8711C49.2607 35.1119 48.8123 34.3931 48.4272 33.6425C47.7551 32.3329 47.0709 31.0277 46.452 29.6926C45.6737 28.0155 45.0601 26.2788 44.8667 24.421C44.7849 23.6348 44.7642 22.8496 44.923 22.0708C45.1775 20.8271 45.8272 19.8544 46.9195 19.1872C47.9326 18.5683 49.0615 18.3685 50.218 18.3058C50.9357 18.267 51.6566 18.2989 52.4014 18.2989L52.3765 18.173C51.9132 17.2045 51.4802 16.2196 50.9734 15.274C50.2584 13.9395 49.3436 12.7362 48.3246 11.6206C47.5697 10.7945 46.7521 10.0279 45.8564 9.35053C44.9756 8.68381 44.0475 8.08828 43.0573 7.60112C41.8763 7.02047 40.6465 6.57156 39.3561 6.28522C38.1161 6.01003 36.8682 5.84163 35.5964 5.82781C34.5116 5.81612 33.4337 5.865 32.377 6.10991C30.7822 6.47913 29.3234 7.13575 28.0542 8.19931C27.3521 8.7882 26.7246 9.4608 26.1858 10.2021C25.5505 11.075 25.0378 12.0174 24.5995 13.0055C23.9982 14.3613 23.5854 15.7723 23.3033 17.2226C23.162 17.9456 23.0515 18.675 22.9388 19.4039C22.8995 19.6589 22.8963 19.9198 22.8735 20.2119C23.0695 20.1099 23.2108 20.0313 23.3553 19.9612L23.8255 19.7503C25.4155 19.023 27.0629 18.555 28.8336 18.6086C29.5858 18.6315 30.3057 18.7802 30.9745 19.1096C32.2575 19.7423 33.0082 20.8181 33.3343 22.1797C33.5596 23.1195 33.7137 24.0778 33.8635 25.0336C33.9809 25.78 34.1009 26.5343 34.1147 27.2871C34.1344 28.3873 34.0786 29.4897 34.0186 30.5894C33.967 31.5245 33.7736 32.4463 33.4448 33.3232C32.8498 34.9132 32.1868 36.4772 31.5674 38.0582C31.3629 38.5804 31.2056 39.1213 31.0122 39.6955C31.3108 39.6955 31.5531 39.6934 31.7953 39.6966C31.8899 39.6982 31.9866 39.7008 32.0779 39.7226C32.7898 39.8905 33.4071 40.213 33.9134 40.7607C34.5886 41.4896 34.943 42.3401 34.961 43.3245C34.9711 43.8701 34.9137 44.4173 34.9164 44.9629C34.9276 47.5054 34.9467 50.048 34.9679 52.59C34.9717 53.0055 34.9924 53.4214 35.0221 53.8363C35.0843 54.7049 35.147 55.5741 35.232 56.4405C35.2915 57.0552 35.3743 57.6688 35.4716 58.2792C35.6091 59.1441 36.0028 59.9138 36.4496 60.6496C36.8342 61.2823 37.3341 61.82 37.9929 62.1908C39.1122 62.8208 40.3176 62.8734 41.5326 62.6413C42.3534 62.4846 43.1593 62.2327 43.9562 61.973C44.7398 61.7216 45.4553 61.2937 46.0477 60.7224C46.606 60.1811 47.0023 59.5212 47.2696 58.7929C47.7881 57.3803 47.9496 55.8928 48.1642 54.417C48.2444 53.8645 48.314 53.3104 48.3873 52.7568C48.4707 52.1268 48.5552 51.4972 48.6359 50.8677C48.6954 50.3986 48.7496 49.9285 48.807 49.4594C48.8888 48.7857 48.9754 48.1127 49.0535 47.4385C49.1135 46.9173 49.1645 46.3941 49.2176 45.8718C49.2862 45.2046 49.36 44.5373 49.419 43.869C49.4647 43.3617 49.4461 42.8453 49.5359 42.3475C49.7011 41.4348 50.1325 40.6582 50.9416 40.1561C51.28 39.9463 51.6619 39.8082 52.0375 39.6307L51.9738 39.5319ZM21.3754 35.7855C20.9719 34.8367 20.7288 33.8274 20.6561 32.7988C20.5881 31.8293 20.7033 30.8635 20.8027 29.8982C20.8994 28.9632 20.9796 28.024 21.0077 27.0847C21.0545 25.5409 20.9504 23.9992 20.8765 22.4565C20.8319 21.5379 20.9387 20.6082 21.0205 19.6876C21.0943 18.8583 21.1862 18.0269 21.343 17.2098C21.6059 15.8387 21.955 14.4872 22.4512 13.1771C22.9224 11.9351 23.4637 10.7254 24.2282 9.63634C24.752 8.88941 25.3465 8.19134 25.9176 7.46141L25.7481 7.40138C23.8898 6.81116 22.0012 6.35003 20.0589 6.14869C19.1404 6.05359 18.2187 5.99781 17.2975 5.94309C17.0149 5.92609 16.728 5.96434 16.4443 5.99144C15.742 6.05837 15.0312 6.08494 14.34 6.21669C13.1638 6.44034 12.0355 6.81647 10.9905 7.429C10.0523 7.97884 9.26447 8.68966 8.60466 9.54231C7.87578 10.4837 7.38544 11.5483 7.03322 12.6836C6.61725 14.0229 6.41909 15.4009 6.36544 16.7917C6.31869 18.011 6.29531 19.2371 6.50569 20.4515C6.66241 21.3557 6.76706 22.2695 6.93972 23.1699C7.17506 24.3977 7.42741 25.6227 7.71906 26.8377C8.13609 28.577 8.55259 30.319 9.04666 32.037C9.51947 33.6834 10.0528 35.3148 10.6308 36.9267C11.1037 38.242 11.6503 39.533 12.2262 40.8069C12.6012 41.6367 13.0555 42.4352 13.5315 43.2124C14.0377 44.0374 14.6136 44.8205 15.3951 45.4192C16.3811 46.1752 17.1445 46.2926 18.1464 45.4633C18.5757 45.1079 18.9385 44.6691 19.312 44.251C19.9054 43.5869 20.4781 42.9048 21.0688 42.2386C21.8211 41.3897 22.5829 40.5498 23.3389 39.7051C23.4988 39.5266 23.6523 39.3428 23.808 39.1622L23.5508 38.9364C22.6172 38.0465 21.8767 36.9739 21.3754 35.7855ZM49.8971 10.5145C50.5152 11.2331 51.1017 11.9783 51.655 12.7479C52.7175 14.2402 53.5665 15.8514 54.1917 17.5753C54.4685 18.335 54.6895 19.1022 54.5907 19.9336C54.5222 20.5158 54.528 21.1066 54.4765 21.692C54.4335 22.1792 54.3564 22.6637 54.2932 23.1492C54.1987 23.8813 54.0616 24.6112 54.0207 25.3465C53.9819 26.0461 54.0223 26.7532 54.0664 27.4545C54.111 28.1669 54.2072 28.8761 54.2725 29.5874C54.3463 30.3939 54.4457 31.2003 54.4685 32.0083C54.4871 32.6719 54.4282 33.3397 54.3702 34.0021C54.3012 34.8001 54.0988 35.5725 53.797 36.3136C53.5851 36.8353 53.3317 37.341 53.0921 37.8633L53.1882 37.9652L53.3343 38.0784L53.4815 37.8149C54.7242 35.8592 55.8287 33.819 56.7869 31.7092C57.4 30.3474 57.9822 28.9718 58.5331 27.5836C59.3959 25.4246 60.0785 23.205 60.6066 20.9413C60.8435 19.9251 61.0247 18.8934 61.1856 17.8617C61.311 17.0553 61.4157 16.2392 61.4391 15.4254C61.464 14.5621 61.4162 13.6919 61.3365 12.8308C61.277 12.1805 61.1166 11.526 60.7091 10.9974C60.0541 10.1463 59.347 9.33247 58.4773 8.68859C57.7453 8.14619 57.0159 7.58997 56.2302 7.13363C54.9844 6.41113 53.6361 5.92981 52.2272 5.60203C50.8523 5.28169 49.4594 5.14356 48.0574 5.11434C47.2308 5.09681 46.4004 5.18553 45.5754 5.26309C44.8279 5.33322 44.0852 5.45275 43.3325 5.55156C44.14 6.00578 44.9363 6.40953 45.6875 6.88553C47.2669 7.88588 48.6822 9.08969 49.8971 10.5145ZM29.3776 38.5231C29.8881 36.8905 30.5835 35.3318 31.2572 33.7636C31.8033 32.4918 32.1018 31.152 32.2012 29.776C32.2506 29.0976 32.2368 28.4107 32.2033 27.7302C32.1701 26.9731 32.1006 26.218 31.9951 25.4676C31.8537 24.5108 31.6928 23.5535 31.4665 22.6143C31.221 21.598 30.6021 20.8903 29.5417 20.6295C28.8957 20.4707 28.254 20.477 27.6011 20.5801C26.0063 20.8314 24.5464 21.4189 23.1864 22.2796C22.9128 22.4527 22.7625 22.5925 22.8097 22.9851C22.9096 23.8165 22.9314 24.6612 22.9277 25.5005C22.9224 26.6884 22.8719 27.8763 22.8267 29.0636C22.8119 29.4504 22.7561 29.835 22.7147 30.2202C22.6509 30.8098 22.5282 31.399 22.5319 31.9876C22.5356 32.5943 22.5978 33.2153 22.7449 33.8029C23.2124 35.666 24.2027 37.1907 25.8257 38.2665C26.8239 38.9279 27.9283 39.2615 29.1407 39.3247C29.223 39.0463 29.2963 38.7834 29.3776 38.5231ZM27.4725 22.5393C27.259 22.091 27.3812 21.7196 27.8763 21.5475C27.9969 21.505 28.1212 21.4598 28.2466 21.4476C28.4187 21.4306 28.594 21.4434 28.7682 21.4434C29.3962 21.4466 30.0002 21.5342 30.5187 21.9337C30.8513 22.1898 30.9405 22.5298 30.7254 22.8788C30.4199 23.3739 29.954 23.6226 29.3818 23.6704C28.4803 23.7453 27.8476 23.3251 27.4725 22.5393ZM52.4625 22.3757C52.5348 21.7786 52.5927 21.1799 52.6665 20.5828C52.6963 20.3426 52.5698 20.2778 52.3685 20.272C51.7352 20.2544 51.102 20.2321 50.4687 20.2204C49.7547 20.2077 49.0599 20.3224 48.399 20.5939C47.6659 20.8957 47.1075 21.3791 46.8796 22.177C46.7129 22.7655 46.66 23.3803 46.724 23.9886C46.8127 24.9292 47.0258 25.8538 47.3577 26.7383C47.8008 27.9183 48.2646 29.0976 48.8187 30.2281C49.5693 31.7587 50.4188 33.2403 51.2162 34.7475C51.4292 35.1496 51.6083 35.5693 51.8303 36.0389C52.2781 35.1053 52.5227 34.0874 52.5481 33.0522C52.5698 32.1969 52.5013 31.3379 52.4514 30.4821C52.42 29.9583 52.3462 29.4376 52.2952 28.9149C52.224 28.1865 52.1161 27.4587 52.0997 26.7288C52.0832 25.9866 52.1358 25.2402 52.1996 24.4991C52.2596 23.7883 52.377 23.0833 52.4625 22.3757ZM51.034 21.8009C50.7987 22.4506 50.2956 22.8172 49.6432 22.925C49.0349 23.0249 48.5021 22.8002 48.1057 22.3152C47.8237 21.9698 47.9315 21.5608 48.3544 21.3276C48.8399 21.0588 49.3738 20.9908 50.0034 20.9498C50.1744 20.9812 50.4321 21.0072 50.677 21.0773C51.0324 21.1777 51.1636 21.445 51.034 21.8009ZM32.2161 41.8078C31.8681 41.5236 31.408 41.5071 31.0771 41.8189C30.6664 42.2068 30.3052 42.6503 29.9439 43.0876C29.5269 43.5928 29.1359 44.1182 28.5977 44.5097C27.8147 45.0787 26.902 45.3146 25.9845 45.5377C25.2551 45.7151 24.5225 45.8798 23.791 46.0503L23.7819 46.1449C23.9992 46.2453 24.2096 46.3707 24.4359 46.4424C25.5515 46.7957 26.6863 46.9715 27.8651 46.8717C28.7162 46.7994 29.5269 46.614 30.2951 46.2496C31.3522 45.7486 32.1656 44.9549 32.8573 44.0316C32.9731 43.8775 33.0257 43.6496 33.0395 43.4509C33.0868 42.7492 32.7303 42.2275 32.2161 41.8078ZM59.7088 42.0872C58.811 42.1834 57.9121 42.2854 57.0116 42.3369C56.5771 42.3619 56.1361 42.279 55.6973 42.2434C54.9615 42.1839 54.2433 42.0203 53.6212 41.6272C53.261 41.4003 52.9619 41.3748 52.5794 41.5034C52.0333 41.6872 51.5876 41.9666 51.4558 42.5584C51.366 42.9585 51.3336 43.3728 51.2975 43.7824C51.2906 43.8547 51.3809 43.9875 51.45 44.0056C51.8712 44.1166 52.2947 44.2478 52.7255 44.2866C53.2546 44.3344 53.7933 44.319 54.3262 44.2924C54.9015 44.2638 55.4806 44.2266 56.0474 44.1309C57.3835 43.9067 58.676 43.5412 59.8241 42.7837C60.2379 42.5101 60.648 42.2307 61.0592 41.9539L61.0252 41.8954C60.5864 41.9608 60.1497 42.0405 59.7088 42.0872Z" fill="#336791"/>
</svg>
