<svg width="60" height="60" viewBox="0 0 60 60" fill="none" xmlns="http://www.w3.org/2000/svg">
<path d="M29.7146 5.74256C27.7356 5.75194 25.8465 5.92022 24.1834 6.21459C19.2849 7.0799 18.3962 8.89115 18.3962 12.2319V16.6433H29.971V18.1138H14.0518C10.6881 18.1138 7.74244 20.1355 6.82088 23.983C5.75775 28.3916 5.71088 31.1432 6.82088 35.7468C7.64353 39.1738 9.60853 41.6151 12.9728 41.6151H16.9529V36.3266C16.9529 32.5058 20.2581 29.136 24.1838 29.136H35.7456C38.964 29.136 41.5328 26.4857 41.5328 23.2541V12.2324C41.5328 9.09506 38.8862 6.73865 35.7456 6.21506C33.7562 5.88412 31.6932 5.73365 29.7146 5.74256ZM23.4549 9.29053C24.6503 9.29053 25.6271 10.2829 25.6271 11.5035C25.6271 12.719 24.6507 13.7019 23.4549 13.7019C22.2549 13.7019 21.2832 12.719 21.2832 11.5035C21.2828 10.2829 22.2549 9.29053 23.4549 9.29053Z" fill="url(#paint0_linear_4616_6152)"/>
<path d="M42.9763 18.1137V23.2541C42.9763 27.2384 39.5976 30.5923 35.7454 30.5923H24.1837C21.0168 30.5923 18.3965 33.3031 18.3965 36.4747V47.4973C18.3965 50.6338 21.1237 52.4792 24.1837 53.3787C27.8474 54.4555 31.3612 54.6505 35.7454 53.3787C38.6591 52.5345 41.5326 50.8367 41.5326 47.4973V43.0855H29.9713V41.6145H47.3207C50.6845 41.6145 51.9388 39.2684 53.1088 35.7463C54.3173 32.1205 54.2652 28.6334 53.1088 23.9825C52.2773 20.6333 50.6896 18.1133 47.3207 18.1133H42.9763V18.1137ZM36.4734 46.0264C37.6738 46.0264 38.6455 47.0094 38.6455 48.2258C38.6455 49.4455 37.6734 50.4378 36.4734 50.4378C35.278 50.4378 34.3016 49.4455 34.3016 48.2258C34.3016 47.0094 35.278 46.0264 36.4734 46.0264Z" fill="url(#paint1_linear_4616_6152)"/>
<path opacity="0.444" d="M45.6131 56.0627C45.6131 57.7234 38.6681 59.0702 30.1017 59.0702C21.5348 59.0702 14.5898 57.7234 14.5898 56.0627C14.5898 54.4014 21.5344 53.0547 30.1017 53.0547C38.6681 53.0547 45.6131 54.4009 45.6131 56.0627Z" fill="url(#paint2_radial_4616_6152)"/>
<defs>
<linearGradient id="paint0_linear_4616_6152" x1="4.84551" y1="7.12192" x2="31.5426" y2="29.8891" gradientUnits="userSpaceOnUse">
<stop stop-color="#5A9FD4"/>
<stop offset="1" stop-color="#306998"/>
</linearGradient>
<linearGradient id="paint1_linear_4616_6152" x1="41.5874" y1="44.0414" x2="32.0134" y2="30.6154" gradientUnits="userSpaceOnUse">
<stop stop-color="#FFD43B"/>
<stop offset="1" stop-color="#FFE873"/>
</linearGradient>
<radialGradient id="paint2_radial_4616_6152" cx="0" cy="0" r="1" gradientUnits="userSpaceOnUse" gradientTransform="translate(30.039 55.9765) rotate(-90) scale(3.00859 13.2252)">
<stop stop-color="#B8B8B8" stop-opacity="0.498"/>
<stop offset="1" stop-color="#7F7F7F" stop-opacity="0"/>
</radialGradient>
</defs>
</svg>
