<svg width="67" height="67" viewBox="0 0 67 67" fill="none" xmlns="http://www.w3.org/2000/svg">
<path d="M66.1257 17.8296C66.1252 16.453 65.9867 15.08 65.7122 13.7311C65.4375 12.3502 64.9706 11.0147 64.325 9.76344C63.6504 8.5515 62.812 7.43832 61.8335 6.45531C60.8242 5.46779 59.6519 4.66206 58.3683 4.07367C57.1016 3.43492 55.7467 2.98858 54.3483 2.74938C52.9612 2.48242 51.438 2.48242 50.0509 2.35156H15.8338C14.7664 2.36894 13.7014 2.45813 12.6461 2.61852C11.5987 2.74181 10.5735 3.00956 9.59965 3.41414C9.32223 3.545 8.90871 3.68109 8.63129 3.81195C7.70991 4.30585 6.83409 4.88038 6.0141 5.52883C5.73668 5.79578 5.45926 5.92664 5.18184 6.18836C4.16169 7.13457 3.31802 8.25473 2.69027 9.49648C2.00474 10.7301 1.53559 12.0721 1.30316 13.4641C1.09689 14.8225 0.958877 16.1904 0.889648 17.5627V49.173C0.890079 50.5496 1.02861 51.9227 1.30316 53.2716C1.57785 54.6524 2.04477 55.988 2.69027 57.2392C3.36487 58.4512 4.20328 59.5643 5.18184 60.5473C6.1911 61.5349 7.3634 62.3406 8.64699 62.929C9.91374 63.5677 11.2686 64.0141 12.667 64.2533C14.0541 64.5202 15.5773 64.5202 16.9644 64.6511H50.0561C51.4978 64.65 52.9362 64.5169 54.3536 64.2533C55.7519 64.0141 57.1068 63.5677 58.3736 62.929C59.6297 62.2933 60.7951 61.4923 61.8387 60.5473C62.8589 59.6011 63.7025 58.481 64.3303 57.2392C65.0158 56.0056 65.485 54.6636 65.7174 53.2716C65.9237 51.9132 66.0617 50.5453 66.1309 49.173V17.8296H66.1257Z" fill="#F05138"/>
<path d="M44.492 50.5119C38.6766 53.7205 30.6837 54.0503 22.6384 50.7579C16.3657 48.2127 11.0024 43.8415 7.24414 38.2111C8.99071 39.5481 10.8988 40.6595 12.9234 41.5192C21.2304 45.2356 29.5321 44.9791 35.3789 41.5192C27.0562 35.4159 19.9898 27.4806 14.7241 21.0005C13.6849 19.9053 12.7574 18.7095 11.9551 17.4306C18.3201 22.9843 28.4434 29.9931 32.0446 31.977C26.9028 26.7085 22.1776 21.0488 17.9118 15.049C25.0029 21.94 32.8057 28.0584 41.1891 33.3013C41.5607 33.5002 41.8486 33.6677 42.0789 33.8247C42.3247 33.2248 42.5361 32.6113 42.7123 31.9874C44.6542 25.2403 42.4348 17.572 37.5878 11.2227C48.8103 17.6976 55.4841 29.8623 52.689 40.0484C52.6157 40.3258 52.5372 40.5718 52.4534 40.8597L52.5529 40.9748C58.0961 47.5859 56.5729 54.5842 55.8767 53.2756C52.867 47.633 47.3028 49.376 44.492 50.5119Z" fill="#FEFEFE"/>
</svg>
