<svg width="67" height="67" viewBox="0 0 67 67" fill="none" xmlns="http://www.w3.org/2000/svg">
<path d="M33.5002 1.20312C15.651 1.20312 1.2041 15.65 1.2041 33.4992C1.2041 51.3484 15.651 65.7953 33.5002 65.7953C51.3494 65.7953 65.7963 51.3484 65.7963 33.4992C65.7963 15.65 51.3494 1.20312 33.5002 1.20312ZM50.9307 19.8898C49.4127 19.9422 48.4182 19.0523 48.3658 17.6914C48.3658 17.168 48.4705 16.7492 48.8369 16.2258C49.151 15.5977 49.2557 15.493 49.2557 15.2313C49.2033 14.3938 47.9471 14.3414 47.5807 14.3414C42.7127 14.4984 41.4564 21.0414 40.4096 26.3805L39.8861 29.207C42.6603 29.6258 44.6494 29.1023 45.7486 28.4219C47.3189 27.4273 45.3299 26.3805 45.5393 25.2289C45.801 24.0773 46.8479 23.5016 47.6853 23.4492C48.8893 23.3969 49.7268 24.6531 49.6744 25.9094C49.6221 27.9508 46.9002 30.8297 41.4041 30.6727C40.7236 30.6727 40.1479 30.6203 39.5721 30.568L38.5252 36.2734C37.583 40.5656 36.3791 46.4805 31.9822 51.6102C28.2135 56.1117 24.3924 56.7922 22.665 56.8445C19.4721 56.9492 17.326 55.2219 17.2736 52.9711C17.2213 50.7727 19.158 49.5687 20.4143 49.5164C22.1416 49.4641 23.2932 50.7203 23.3455 52.1336C23.3979 53.3375 22.7697 53.7039 22.351 53.9656C22.0893 54.175 21.6705 54.4367 21.6705 54.9078C21.6705 55.1172 21.9322 55.5883 22.6127 55.5883C23.9736 55.5359 24.8635 54.8555 25.4916 54.4367C28.6322 51.8195 29.8361 47.2656 31.4064 39.0477L31.7205 37.0586C32.2439 34.3891 32.8721 31.3531 33.7619 28.3695C31.5635 26.6945 30.2549 24.6531 27.2713 23.868C25.2299 23.2922 24.026 23.7633 23.1361 24.8625C22.0893 26.1711 22.4557 27.8461 23.4502 28.8406L25.0729 30.6727C27.1143 33.0281 28.2135 34.8078 27.7947 37.268C27.2189 41.0891 22.5604 44.0727 17.0643 42.3977C12.3533 40.932 11.5158 37.6344 12.0916 35.8023C12.5627 34.1797 13.8713 33.8656 15.1275 34.2844C16.4885 34.7031 17.0119 36.3258 16.5932 37.582C16.5408 37.7391 16.4885 37.9484 16.3314 38.2102C16.1744 38.5766 15.9127 38.8383 15.7557 39.257C15.4416 40.2516 16.8025 40.932 17.7447 41.2461C19.8385 41.8742 21.8799 40.775 22.4033 39.1C22.8744 37.5297 21.8799 36.4305 21.5135 36.0117L19.5244 33.8656C18.6346 32.8711 16.5932 30.0445 17.5877 26.8516C17.9541 25.6477 18.7393 24.3391 19.8908 23.5016C22.2986 21.6695 24.9682 21.4078 27.4807 22.1406C30.726 23.0828 32.2963 25.2289 34.3377 26.9039C35.4893 23.6063 37.0596 20.3086 39.415 17.5867C41.5611 15.0742 44.3877 13.2945 47.6853 13.1375C50.983 13.0328 53.4432 14.4984 53.5479 16.8539C53.4955 17.9008 52.9197 19.8375 50.9307 19.8898Z" fill="#979398"/>
</svg>
