<svg width="67" height="67" viewBox="0 0 67 67" fill="none" xmlns="http://www.w3.org/2000/svg">
<path fill-rule="evenodd" clip-rule="evenodd" d="M53.4039 38.3245C52.8259 41.1087 50.2587 48.2554 42.067 52.1226L38.7777 48.4256L33.2257 54.0043C30.0675 53.962 26.9619 53.1899 24.1517 51.7483C21.3415 50.3067 18.9027 48.2346 17.0262 45.6941C17.6166 45.879 18.2239 45.9937 18.8399 46.0366C19.7489 46.0529 20.7346 45.7197 20.7346 44.193V29.1358C20.7475 28.7486 20.6696 28.3638 20.5073 28.0121C20.345 27.6604 20.1027 27.3516 19.7998 27.1102C19.4968 26.8688 19.1416 26.7016 18.7626 26.6219C18.3835 26.5422 17.9911 26.5522 17.6166 26.6511C15.0472 27.2432 12.9931 33.6548 12.9931 33.6548C12.9647 30.6944 13.5813 27.7632 14.8 25.0651C16.0186 22.3669 17.8102 19.9665 20.0501 18.0305C22.9982 15.4802 26.607 13.8149 30.4605 13.2266C27.6551 14.8261 26.0795 17.4341 26.0795 19.6213C26.0795 23.1428 28.1988 22.716 28.8273 22.1978V42.5201C28.9339 42.7745 29.0736 43.0149 29.2416 43.2356C29.5223 43.6232 29.8916 43.9382 30.3187 44.1542C30.7457 44.3703 31.2182 44.4813 31.6968 44.4779C33.8183 44.4779 36.5726 42.0547 36.5726 42.0547V25.604C36.5726 23.9306 35.3112 21.9108 34.0477 21.2165C34.0477 21.2165 36.3855 20.8022 38.1911 22.1826C38.5298 21.7685 38.8899 21.3724 39.2698 20.9958C43.4817 16.8649 47.4467 15.6884 50.7507 15.1001C50.7507 15.1001 44.7446 19.8209 44.7446 26.1542C44.7446 30.8647 44.8659 42.3499 44.8659 42.3499C47.0939 44.5013 50.4087 41.3941 53.4033 38.3251L53.4039 38.3245Z" fill="white"/>
<path fill-rule="evenodd" clip-rule="evenodd" d="M33.5 0C15.0002 0 0 15.0002 0 33.5C0 51.9998 15.0002 67 33.5 67C51.9998 67 67 51.9998 67 33.5C67 15.0002 51.9998 0 33.5 0ZM33.5 65.6604C15.739 65.6604 1.34017 51.2615 1.34017 33.5C1.34235 15.7396 15.7412 1.34072 33.5022 1.34289C51.2631 1.34289 65.6598 15.7417 65.6598 33.5027C65.6598 51.2637 51.261 65.6625 33.5 65.6625V65.6604Z" fill="white"/>
</svg>
