<svg width="66" height="66" viewBox="0 0 66 66" fill="none" xmlns="http://www.w3.org/2000/svg">
<circle cx="33" cy="33" r="28.875" fill="#028CB0"/>
<path d="M13.3142 33C13.3142 40.801 17.8517 47.52 24.4137 50.7137L15.0245 24.9896C13.8971 27.5096 13.3143 30.2393 13.3142 33ZM33 52.6858C35.2862 52.6858 37.4851 52.2844 39.5445 51.5688L39.4049 51.3071L33.349 34.7277L27.4503 51.883C29.1955 52.4065 31.0628 52.6858 33 52.6858ZM35.705 23.7679L42.8254 44.9371L44.7975 38.3752C45.6352 35.6527 46.2809 33.6981 46.2809 32.0052C46.2809 29.562 45.4083 27.8866 44.6753 26.5951C43.6631 24.9547 42.7382 23.576 42.7382 21.9704C42.7382 20.1554 44.0994 18.48 46.054 18.48H46.2984C42.6711 15.15 37.924 13.306 33 13.3142C29.7397 13.3136 26.5303 14.1235 23.6606 15.6711C20.791 17.2186 18.351 19.4553 16.5603 22.1798L17.8168 22.2147C19.8762 22.2147 23.0524 21.9529 23.0524 21.9529C24.1344 21.9006 24.2566 23.4538 23.192 23.576C23.192 23.576 22.1275 23.7156 20.9233 23.7679L28.1135 45.0942L32.4241 32.1798L29.3525 23.7679C28.6645 23.73 27.9778 23.6718 27.2932 23.5934C26.2287 23.5236 26.3508 21.9006 27.4154 21.9529C27.4154 21.9529 30.6614 22.2147 32.5986 22.2147C34.6579 22.2147 37.8342 21.9529 37.8342 21.9529C38.8988 21.9006 39.0384 23.4538 37.9738 23.576C37.9738 23.576 36.9092 23.6981 35.705 23.7679ZM42.8952 50.0156C45.8733 48.284 48.3448 45.8012 50.0629 42.8153C51.7809 39.8294 52.6853 36.4449 52.6858 33C52.6858 29.5794 51.8132 26.3683 50.2774 23.5585C50.5893 26.6497 50.1213 29.7698 48.9162 32.6335L42.8952 50.0156ZM33 55.6875C26.9829 55.6875 21.2122 53.2972 16.9575 49.0425C12.7028 44.7878 10.3125 39.0171 10.3125 33C10.3125 26.9829 12.7028 21.2122 16.9575 16.9575C21.2122 12.7028 26.9829 10.3125 33 10.3125C39.0171 10.3125 44.7878 12.7028 49.0425 16.9575C53.2972 21.2122 55.6875 26.9829 55.6875 33C55.6875 39.0171 53.2972 44.7878 49.0425 49.0425C44.7878 53.2972 39.0171 55.6875 33 55.6875Z" fill="white"/>
</svg>
