<svg width="45" height="45" viewBox="0 0 45 45" fill="none" xmlns="http://www.w3.org/2000/svg">
<mask id="mask0_4148_2847" style="mask-type:alpha" maskUnits="userSpaceOnUse" x="0" y="0" width="45" height="45">
<rect width="45" height="45" fill="#D9D9D9"/>
</mask>
<g mask="url(#mask0_4148_2847)">
<path d="M13.5553 33.1082C14.1562 33.1082 14.6671 32.8978 15.0878 32.4772C15.5084 32.0565 15.7188 31.5457 15.7188 30.9447C15.7188 30.3438 15.5084 29.8329 15.0878 29.4122C14.6671 28.9916 14.1562 28.7812 13.5553 28.7812C12.9543 28.7812 12.4435 28.9916 12.0228 29.4122C11.6022 29.8329 11.3918 30.3438 11.3918 30.9447C11.3918 31.5457 11.6022 32.0565 12.0228 32.4772C12.4435 32.8978 12.9543 33.1082 13.5553 33.1082ZM13.5553 14.7188C14.1562 14.7188 14.6671 14.5084 15.0878 14.0878C15.5084 13.6671 15.7188 13.1562 15.7188 12.5553C15.7188 11.9543 15.5084 11.4435 15.0878 11.0228C14.6671 10.6022 14.1562 10.3918 13.5553 10.3918C12.9543 10.3918 12.4435 10.6022 12.0228 11.0228C11.6022 11.4435 11.3918 11.9543 11.3918 12.5553C11.3918 13.1562 11.6022 13.6671 12.0228 14.0878C12.4435 14.5084 12.9543 14.7188 13.5553 14.7188ZM22.75 23.9135C23.351 23.9135 23.8618 23.7031 24.2825 23.2825C24.7031 22.8618 24.9135 22.351 24.9135 21.75C24.9135 21.149 24.7031 20.6382 24.2825 20.2175C23.8618 19.7969 23.351 19.5865 22.75 19.5865C22.149 19.5865 21.6382 19.7969 21.2175 20.2175C20.7969 20.6382 20.5865 21.149 20.5865 21.75C20.5865 22.351 20.7969 22.8618 21.2175 23.2825C21.6382 23.7031 22.149 23.9135 22.75 23.9135ZM31.9447 33.1082C32.5457 33.1082 33.0565 32.8978 33.4772 32.4772C33.8978 32.0565 34.1082 31.5457 34.1082 30.9447C34.1082 30.3438 33.8978 29.8329 33.4772 29.4122C33.0565 28.9916 32.5457 28.7812 31.9447 28.7812C31.3438 28.7812 30.8329 28.9916 30.4122 29.4122C29.9916 29.8329 29.7812 30.3438 29.7812 30.9447C29.7812 31.5457 29.9916 32.0565 30.4122 32.4772C30.8329 32.8978 31.3438 33.1082 31.9447 33.1082ZM31.9447 14.7188C32.5457 14.7188 33.0565 14.5084 33.4772 14.0878C33.8978 13.6671 34.1082 13.1562 34.1082 12.5553C34.1082 11.9543 33.8978 11.4435 33.4772 11.0228C33.0565 10.6022 32.5457 10.3918 31.9447 10.3918C31.3438 10.3918 30.8329 10.6022 30.4122 11.0228C29.9916 11.4435 29.7812 11.9543 29.7812 12.5553C29.7812 13.1562 29.9916 13.6671 30.4122 14.0878C30.8329 14.5084 31.3438 14.7188 31.9447 14.7188ZM7.78604 40.5C6.70732 40.5 5.80664 40.1387 5.08398 39.416C4.36133 38.6934 4 37.7927 4 36.714V6.78603C4 5.70732 4.36133 4.80664 5.08398 4.08398C5.80664 3.36133 6.70732 3 7.78604 3H37.714C38.7927 3 39.6934 3.36133 40.416 4.08398C41.1387 4.80664 41.5 5.70732 41.5 6.78603V36.714C41.5 37.7927 41.1387 38.6934 40.416 39.416C39.6934 40.1387 38.7927 40.5 37.714 40.5H7.78604ZM7.78604 38.1562H37.714C38.0745 38.1562 38.405 38.006 38.7055 37.7055C39.006 37.405 39.1562 37.0745 39.1562 36.714V6.78603C39.1562 6.42549 39.006 6.09496 38.7055 5.79445C38.405 5.49399 38.0745 5.34375 37.714 5.34375H7.78604C7.42549 5.34375 7.09496 5.49399 6.79445 5.79445C6.49398 6.09496 6.34375 6.42549 6.34375 6.78603V36.714C6.34375 37.0745 6.49398 37.405 6.79445 37.7055C7.09496 38.006 7.42549 38.1562 7.78604 38.1562Z" fill="white"/>
</g>
</svg>
