<svg width="45" height="45" viewBox="0 0 45 45" fill="none" xmlns="http://www.w3.org/2000/svg">
<path d="M17.1698 38.9464V33.1963C17.1697 31.7337 18.3621 30.5453 19.8394 30.5355H25.2508C26.7351 30.5355 27.9384 31.7268 27.9384 33.1963V33.1963V38.9642C27.9381 40.206 28.9392 41.2209 30.1932 41.25H33.8008C37.3971 41.25 40.3125 38.3638 40.3125 34.8034V34.8034V18.4459C40.2933 17.0453 39.629 15.73 38.5087 14.8744L26.1707 5.03494C24.0093 3.32169 20.9366 3.32169 18.7752 5.03494L6.4913 14.8923C5.36673 15.7444 4.70135 17.0619 4.6875 18.4638V34.8034C4.6875 38.3638 7.60289 41.25 11.1992 41.25H14.8068C16.0919 41.25 17.1337 40.2186 17.1337 38.9464V38.9464" stroke="white" stroke-width="1.5" stroke-linecap="round" stroke-linejoin="round"/>
</svg>
