<svg width="45" height="45" viewBox="0 0 45 45" fill="none" xmlns="http://www.w3.org/2000/svg">
<mask id="mask0_4150_6119" style="mask-type:alpha" maskUnits="userSpaceOnUse" x="0" y="0" width="45" height="45">
<rect width="45" height="45" fill="#D9D9D9"/>
</mask>
<g mask="url(#mask0_4150_6119)">
<path d="M13.754 32.5C14.2059 32.5 14.5833 32.3472 14.8864 32.0415C15.1894 31.7358 15.3409 31.357 15.3409 30.9051C15.3409 30.4532 15.1881 30.0758 14.8824 29.7727C14.5767 29.4697 14.1979 29.3182 13.746 29.3182C13.2941 29.3182 12.9167 29.471 12.6136 29.7767C12.3106 30.0824 12.1591 30.4612 12.1591 30.9131C12.1591 31.365 12.3119 31.7424 12.6176 32.0455C12.9233 32.3485 13.3021 32.5 13.754 32.5ZM13.754 24.0909C14.2059 24.0909 14.5833 23.9381 14.8864 23.6324C15.1894 23.3267 15.3409 22.9479 15.3409 22.496C15.3409 22.0441 15.1881 21.6667 14.8824 21.3636C14.5767 21.0606 14.1979 20.9091 13.746 20.9091C13.2941 20.9091 12.9167 21.0619 12.6136 21.3676C12.3106 21.6733 12.1591 22.0521 12.1591 22.504C12.1591 22.9559 12.3119 23.3333 12.6176 23.6364C12.9233 23.9394 13.3021 24.0909 13.754 24.0909ZM13.754 15.6818C14.2059 15.6818 14.5833 15.529 14.8864 15.2233C15.1894 14.9176 15.3409 14.5388 15.3409 14.0869C15.3409 13.635 15.1881 13.2576 14.8824 12.9545C14.5767 12.6515 14.1979 12.5 13.746 12.5C13.2941 12.5 12.9167 12.6528 12.6136 12.9585C12.3106 13.2642 12.1591 13.643 12.1591 14.0949C12.1591 14.5468 12.3119 14.9242 12.6176 15.2273C12.9233 15.5303 13.3021 15.6818 13.754 15.6818ZM20.7955 31.7045H32.6136V30.1136H20.7955V31.7045ZM20.7955 23.2955H32.6136V21.7045H20.7955V23.2955ZM20.7955 14.8864H32.6136V13.2955H20.7955V14.8864ZM8.40909 40C7.42424 40 6.60985 39.678 5.96591 39.0341C5.32197 38.3902 5 37.5758 5 36.5909V8.40909C5 7.42424 5.32197 6.60985 5.96591 5.96591C6.60985 5.32197 7.42424 5 8.40909 5H36.5909C37.5758 5 38.3902 5.32197 39.0341 5.96591C39.678 6.60985 40 7.42424 40 8.40909V36.5909C40 37.5758 39.678 38.3902 39.0341 39.0341C38.3902 39.678 37.5758 40 36.5909 40H8.40909ZM8.40909 38.4091H36.5909C37.0455 38.4091 37.4621 38.2197 37.8409 37.8409C38.2197 37.4621 38.4091 37.0455 38.4091 36.5909V8.40909C38.4091 7.95455 38.2197 7.53788 37.8409 7.15909C37.4621 6.7803 37.0455 6.59091 36.5909 6.59091H8.40909C7.95455 6.59091 7.53788 6.7803 7.15909 7.15909C6.7803 7.53788 6.59091 7.95455 6.59091 8.40909V36.5909C6.59091 37.0455 6.7803 37.4621 7.15909 37.8409C7.53788 38.2197 7.95455 38.4091 8.40909 38.4091Z" fill="white"/>
</g>
</svg>
