<svg width="45" height="45" viewBox="0 0 45 45" fill="none" xmlns="http://www.w3.org/2000/svg">
<path fill-rule="evenodd" clip-rule="evenodd" d="M16.884 28.2617C24.3698 28.2617 30.768 29.3961 30.768 33.9273C30.768 38.4586 24.4125 39.6254 16.884 39.6254C9.39614 39.6254 3 38.5012 3 33.9679C3 29.4346 9.35352 28.2617 16.884 28.2617Z" stroke="white" stroke-width="1.5" stroke-linecap="round" stroke-linejoin="round"/>
<path fill-rule="evenodd" clip-rule="evenodd" d="M16.8807 21.7964C11.9659 21.7964 7.98047 17.813 7.98047 12.8982C7.98047 7.98338 11.9659 4 16.8807 4C21.7934 4 25.7789 7.98338 25.7789 12.8982C25.7971 17.7947 21.8401 21.7781 16.9436 21.7964H16.8807Z" stroke="white" stroke-width="1.5" stroke-linecap="round" stroke-linejoin="round"/>
<path d="M30.8672 19.4883C34.116 19.0317 36.618 16.2435 36.6241 12.8689C36.6241 9.54299 34.1992 6.78323 31.0194 6.26172" stroke="white" stroke-width="1.5" stroke-linecap="round" stroke-linejoin="round"/>
<path d="M35.1562 27.3008C38.3036 27.7695 40.5012 28.8734 40.5012 31.1462C40.5012 32.7107 39.4663 33.7253 37.7943 34.3605" stroke="white" stroke-width="1.5" stroke-linecap="round" stroke-linejoin="round"/>
</svg>
