<svg width="472" height="40" viewBox="0 0 472 40" fill="none" xmlns="http://www.w3.org/2000/svg">
<path d="M0 10C0 4.47715 4.47715 0 10 0H472V30C472 35.5228 467.523 40 462 40H0V10Z" fill="#F2F4F7"/>
<path d="M20.9834 14.9922V25H19.7188V16.5713L17.1689 17.501V16.3594L20.7852 14.9922H20.9834ZM31.4287 21.6504V22.6895H24.2373V21.9443L28.6943 15.0469H29.7266L28.6191 17.043L25.6729 21.6504H31.4287ZM30.041 15.0469V25H28.7764V15.0469H30.041Z" fill="#334155"/>
<path d="M46.1654 19.168L43.9987 21.5013L41.832 19.168" stroke="#98A2B3" stroke-width="1.5" stroke-linecap="round" stroke-linejoin="round"/>
<path d="M60 0V40" stroke="#EAECF0"/>
<path d="M82.1654 16.832V15.832H73.832V16.832M77.9987 15.9987V24.1654M77.9987 24.1654H77.1654M77.9987 24.1654H78.832" stroke="#101828" stroke-width="1.5" stroke-linecap="round" stroke-linejoin="round"/>
<rect x="98" y="12" width="16" height="16" rx="8" fill="#334155"/>
<path d="M124 0V40" stroke="#EAECF0"/>
<path d="M138.5 15.168H142.333C143.714 15.168 144.833 16.2873 144.833 17.668C144.833 19.0487 143.714 20.168 142.333 20.168H138.5V15.168Z" stroke="#667085" stroke-width="1.5" stroke-linecap="round" stroke-linejoin="round"/>
<path d="M138.5 20.168H143.167C144.455 20.168 145.5 21.2126 145.5 22.5013C145.5 23.79 144.455 24.8346 143.167 24.8346H138.5V20.168Z" stroke="#667085" stroke-width="1.5" stroke-linecap="round" stroke-linejoin="round"/>
<path d="M171.335 15.168H169.835M171.335 15.168H172.835M171.335 15.168L168.668 24.8346M168.668 24.8346H167.168M168.668 24.8346H170.168" stroke="#667085" stroke-width="1.5" stroke-linecap="round" stroke-linejoin="round"/>
<path d="M193.168 24.832H202.835" stroke="#667085" stroke-width="1.5" stroke-linecap="round" stroke-linejoin="round"/>
<path d="M200.835 15.168V19.3346C200.835 20.8994 199.566 22.168 198.001 22.168C196.436 22.168 195.168 20.8994 195.168 19.3346V15.168" stroke="#667085" stroke-width="1.5" stroke-linecap="round" stroke-linejoin="round"/>
<path d="M221.168 20.1654H230.835M230.168 17.4987V17.332C230.168 16.2275 229.273 15.332 228.168 15.332H223.835C222.73 15.332 221.835 16.2275 221.835 17.332V18.1654C221.835 19.2699 222.73 20.1654 223.835 20.1654H228.001M221.835 22.4987V22.832C221.835 23.9366 222.73 24.832 223.835 24.832H228.168C229.273 24.832 230.168 23.9366 230.168 22.832V21.832" stroke="#667085" stroke-width="1.5" stroke-linecap="round" stroke-linejoin="round"/>
<path d="M244 0V40" stroke="#EAECF0"/>
<path d="M257.168 15.832H263.501M257.168 24.1654H263.501M257.168 19.9987H266.835" stroke="#667085" stroke-width="1.5" stroke-linecap="round" stroke-linejoin="round"/>
<path d="M287.168 15.832H292.835M287.168 24.1654H292.835M285.168 19.9987H294.835" stroke="#667085" stroke-width="1.5" stroke-linecap="round" stroke-linejoin="round"/>
<path d="M316.501 15.832H322.835M316.501 24.1654H322.835M313.168 19.9987H322.835" stroke="#667085" stroke-width="1.5" stroke-linecap="round" stroke-linejoin="round"/>
<path d="M336 0V40" stroke="#EAECF0"/>
<path d="M349.168 16.168L350.168 15.168V18.8346M350.168 18.8346H349.168M350.168 18.8346H350.835M354.835 21.5013H353.772C353.285 21.5013 353.013 20.9586 353.272 20.5729C353.304 20.5254 353.349 20.4887 353.396 20.457L354.596 19.6586C354.644 19.6269 354.689 19.5901 354.721 19.5431C355.018 19.1132 354.715 18.5013 354.17 18.5013H353.168M357.168 21.8346H358.132C358.955 21.8346 359.101 23.093 358.341 23.3051C358.305 23.3153 358.266 23.3194 358.228 23.3208L357.835 23.3346L358.228 23.3485C358.266 23.3498 358.305 23.3539 358.341 23.3642C359.101 23.5763 358.955 24.8346 358.132 24.8346H357.168" stroke="#667085" stroke-width="1.5" stroke-linecap="round" stroke-linejoin="round"/>
<path d="M380.501 16.0013H386.168M380.501 20.0013H386.168M380.501 24.0013H386.168M378.335 16.0013C378.335 16.1854 378.185 16.3346 378.001 16.3346C377.817 16.3346 377.668 16.1854 377.668 16.0013C377.668 15.8172 377.817 15.668 378.001 15.668C378.185 15.668 378.335 15.8172 378.335 16.0013ZM378.335 20.0013C378.335 20.1854 378.185 20.3346 378.001 20.3346C377.817 20.3346 377.668 20.1854 377.668 20.0013C377.668 19.8172 377.817 19.668 378.001 19.668C378.185 19.668 378.335 19.8172 378.335 20.0013ZM378.335 24.0013C378.335 24.1854 378.185 24.3346 378.001 24.3346C377.817 24.3346 377.668 24.1854 377.668 24.0013C377.668 23.8172 377.817 23.668 378.001 23.668C378.185 23.668 378.335 23.8172 378.335 24.0013Z" stroke="#667085" stroke-width="1.5" stroke-linecap="round" stroke-linejoin="round"/>
<path d="M400 0V40" stroke="#EAECF0"/>
<path d="M413.168 22.668L414.999 20.3391C415.518 19.6787 416.511 19.6571 417.058 20.2943L418.668 22.168M417.278 20.55C417.969 19.6704 418.933 18.4243 418.996 18.3433L419.002 18.3347C419.522 17.6786 420.512 17.6585 421.058 18.2943L422.668 20.168M414.501 15.168H421.501C422.238 15.168 422.835 15.7649 422.835 16.5013V23.5013C422.835 24.2377 422.238 24.8346 421.501 24.8346H414.501C413.765 24.8346 413.168 24.2377 413.168 23.5013V16.5013C413.168 15.7649 413.765 15.168 414.501 15.168Z" stroke="#667085" stroke-width="1.5" stroke-linecap="round" stroke-linejoin="round"/>
<path d="M449.167 20.8336L450 20.0003C451.105 18.8957 451.105 17.1049 450 16.0003C448.896 14.8957 447.105 14.8957 446 16.0003L445.167 16.8336M442.834 19.167L442 20.0003C440.896 21.1049 440.896 22.8957 442 24.0003C443.105 25.1049 444.896 25.1049 446 24.0003L446.834 23.167M447.5 18.5003L444.5 21.5003" stroke="#667085" stroke-width="1.5" stroke-linecap="round" stroke-linejoin="round"/>
</svg>
