<svg width="56" height="56" viewBox="0 0 56 56" fill="none" xmlns="http://www.w3.org/2000/svg">
<g clip-path="url(#clip0_6056_3125)">
<path d="M16.3299 48.9922H39.6589C40.8963 48.9922 42.0831 48.5006 42.9581 47.6256C43.8331 46.7506 44.3247 45.5638 44.3247 44.3264V21.9632C44.3245 21.3445 44.0787 20.7513 43.6411 20.3139L31.0108 7.68354C30.5734 7.24601 29.9801 7.00013 29.3614 7H16.3299C15.0924 7 13.9057 7.49157 13.0306 8.36658C12.1556 9.24159 11.6641 10.4284 11.6641 11.6658V44.3264C11.6641 45.5638 12.1556 46.7506 13.0306 47.6256C13.9057 48.5006 15.0924 48.9922 16.3299 48.9922Z" stroke="black" stroke-opacity="0.26" stroke-width="4.6658" stroke-linecap="round" stroke-linejoin="round"/>
</g>
<rect y="39.1992" width="34.83" height="16.79" rx="4" fill="#CD59B4"/>
<path d="M6.95 51L10.1 44H11.38L14.54 51H13.18L10.47 44.69H10.99L8.29 51H6.95ZM8.4 49.38L8.75 48.36H12.53L12.88 49.38H8.4ZM18.2702 51.07C17.8369 51.07 17.4402 50.97 17.0802 50.77C16.7269 50.57 16.4436 50.27 16.2302 49.87C16.0236 49.4633 15.9202 48.95 15.9202 48.33C15.9202 47.7033 16.0202 47.19 16.2202 46.79C16.4269 46.39 16.7069 46.0933 17.0602 45.9C17.4136 45.7 17.8169 45.6 18.2702 45.6C18.7969 45.6 19.2602 45.7133 19.6602 45.94C20.0669 46.1667 20.3869 46.4833 20.6202 46.89C20.8602 47.2967 20.9802 47.7767 20.9802 48.33C20.9802 48.8833 20.8602 49.3667 20.6202 49.78C20.3869 50.1867 20.0669 50.5033 19.6602 50.73C19.2602 50.9567 18.7969 51.07 18.2702 51.07ZM15.3102 52.94V45.66H16.5002V46.92L16.4602 48.34L16.5602 49.76V52.94H15.3102ZM18.1302 50C18.4302 50 18.6969 49.9333 18.9302 49.8C19.1702 49.6667 19.3602 49.4733 19.5002 49.22C19.6402 48.9667 19.7102 48.67 19.7102 48.33C19.7102 47.9833 19.6402 47.6867 19.5002 47.44C19.3602 47.1867 19.1702 46.9933 18.9302 46.86C18.6969 46.7267 18.4302 46.66 18.1302 46.66C17.8302 46.66 17.5602 46.7267 17.3202 46.86C17.0802 46.9933 16.8902 47.1867 16.7502 47.44C16.6102 47.6867 16.5402 47.9833 16.5402 48.33C16.5402 48.67 16.6102 48.9667 16.7502 49.22C16.8902 49.4733 17.0802 49.6667 17.3202 49.8C17.5602 49.9333 17.8302 50 18.1302 50ZM23.1857 49.81L23.2157 48.24L26.0057 45.66H27.5057L25.1357 48.04L24.4757 48.59L23.1857 49.81ZM22.1657 51V43.58H23.4157V51H22.1657ZM26.1957 51L24.2457 48.59L25.0357 47.59L27.7157 51H26.1957Z" fill="white"/>
<defs>
<clipPath id="clip0_6056_3125">
<rect width="55.9896" height="55.9896" fill="white"/>
</clipPath>
</defs>
</svg>
