<svg width="56" height="56" viewBox="0 0 56 56" fill="none" xmlns="http://www.w3.org/2000/svg">
<g clip-path="url(#clip0_4492_658)">
<path d="M16.3299 48.9922H39.6589C40.8963 48.9922 42.0831 48.5006 42.9581 47.6256C43.8331 46.7506 44.3247 45.5638 44.3247 44.3264V21.9632C44.3245 21.3445 44.0787 20.7513 43.6411 20.3139L31.0108 7.68354C30.5734 7.24601 29.9801 7.00013 29.3614 7H16.3299C15.0924 7 13.9057 7.49157 13.0306 8.36658C12.1556 9.24159 11.6641 10.4284 11.6641 11.6658V44.3264C11.6641 45.5638 12.1556 46.7506 13.0306 47.6256C13.9057 48.5006 15.0924 48.9922 16.3299 48.9922Z" stroke="black" stroke-opacity="0.26" stroke-width="4.6658" stroke-linecap="round" stroke-linejoin="round"/>
</g>
<rect y="39.1992" width="34.83" height="16.79" rx="4" fill="#4340C7"/>
<path d="M6.59 51L4.27 44H5.62L7.69 50.33H7.02L9.17 44H10.37L12.46 50.33H11.81L13.93 44H15.17L12.85 51H11.47L9.56 45.29H9.92L7.98 51H6.59ZM18.1087 51.07C17.562 51.07 17.0753 50.9533 16.6487 50.72C16.222 50.48 15.8853 50.1533 15.6387 49.74C15.392 49.3267 15.2687 48.8567 15.2687 48.33C15.2687 47.7967 15.392 47.3267 15.6387 46.92C15.8853 46.5067 16.222 46.1833 16.6487 45.95C17.0753 45.7167 17.562 45.6 18.1087 45.6C18.662 45.6 19.152 45.7167 19.5787 45.95C20.012 46.1833 20.3487 46.5033 20.5887 46.91C20.8353 47.3167 20.9587 47.79 20.9587 48.33C20.9587 48.8567 20.8353 49.3267 20.5887 49.74C20.3487 50.1533 20.012 50.48 19.5787 50.72C19.152 50.9533 18.662 51.07 18.1087 51.07ZM18.1087 50C18.4153 50 18.6887 49.9333 18.9287 49.8C19.1687 49.6667 19.3553 49.4733 19.4887 49.22C19.6287 48.9667 19.6987 48.67 19.6987 48.33C19.6987 47.9833 19.6287 47.6867 19.4887 47.44C19.3553 47.1867 19.1687 46.9933 18.9287 46.86C18.6887 46.7267 18.4187 46.66 18.1187 46.66C17.812 46.66 17.5387 46.7267 17.2987 46.86C17.0653 46.9933 16.8787 47.1867 16.7387 47.44C16.5987 47.6867 16.5287 47.9833 16.5287 48.33C16.5287 48.67 16.5987 48.9667 16.7387 49.22C16.8787 49.4733 17.0653 49.6667 17.2987 49.8C17.5387 49.9333 17.8087 50 18.1087 50ZM22.154 51V45.66H23.344V47.13L23.204 46.7C23.364 46.34 23.614 46.0667 23.954 45.88C24.3007 45.6933 24.7307 45.6 25.244 45.6V46.79C25.1907 46.7767 25.1407 46.77 25.094 46.77C25.0473 46.7633 25.0007 46.76 24.954 46.76C24.4807 46.76 24.104 46.9 23.824 47.18C23.544 47.4533 23.404 47.8633 23.404 48.41V51H22.154ZM28.5155 51.07C28.0022 51.07 27.5389 50.9567 27.1255 50.73C26.7189 50.4967 26.3989 50.1767 26.1655 49.77C25.9322 49.3633 25.8155 48.8833 25.8155 48.33C25.8155 47.7767 25.9322 47.2967 26.1655 46.89C26.3989 46.4833 26.7189 46.1667 27.1255 45.94C27.5389 45.7133 28.0022 45.6 28.5155 45.6C28.9622 45.6 29.3622 45.7 29.7155 45.9C30.0689 46.0933 30.3489 46.39 30.5555 46.79C30.7622 47.19 30.8655 47.7033 30.8655 48.33C30.8655 48.95 30.7655 49.4633 30.5655 49.87C30.3655 50.27 30.0889 50.57 29.7355 50.77C29.3822 50.97 28.9755 51.07 28.5155 51.07ZM28.6655 50C28.9655 50 29.2322 49.9333 29.4655 49.8C29.7055 49.6667 29.8955 49.4733 30.0355 49.22C30.1822 48.9667 30.2555 48.67 30.2555 48.33C30.2555 47.9833 30.1822 47.6867 30.0355 47.44C29.8955 47.1867 29.7055 46.9933 29.4655 46.86C29.2322 46.7267 28.9655 46.66 28.6655 46.66C28.3655 46.66 28.0955 46.7267 27.8555 46.86C27.6222 46.9933 27.4322 47.1867 27.2855 47.44C27.1455 47.6867 27.0755 47.9833 27.0755 48.33C27.0755 48.67 27.1455 48.9667 27.2855 49.22C27.4322 49.4733 27.6222 49.6667 27.8555 49.8C28.0955 49.9333 28.3655 50 28.6655 50ZM30.2855 51V49.74L30.3355 48.32L30.2355 46.9V43.58H31.4755V51H30.2855Z" fill="white"/>
<defs>
<clipPath id="clip0_4492_658">
<rect width="55.9896" height="55.9896" fill="white"/>
</clipPath>
</defs>
</svg>
