<svg width="56" height="56" viewBox="0 0 56 56" fill="none" xmlns="http://www.w3.org/2000/svg">
<g clip-path="url(#clip0_4492_608)">
<path d="M16.3299 48.9922H39.6589C40.8963 48.9922 42.0831 48.5006 42.9581 47.6256C43.8331 46.7506 44.3247 45.5638 44.3247 44.3264V21.9632C44.3245 21.3445 44.0787 20.7513 43.6411 20.3139L31.0108 7.68354C30.5734 7.24601 29.9801 7.00013 29.3614 7H16.3299C15.0924 7 13.9057 7.49157 13.0306 8.36658C12.1556 9.24159 11.6641 10.4284 11.6641 11.6658V44.3264C11.6641 45.5638 12.1556 46.7506 13.0306 47.6256C13.9057 48.5006 15.0924 48.9922 16.3299 48.9922Z" stroke="black" stroke-opacity="0.26" stroke-width="4.6658" stroke-linecap="round" stroke-linejoin="round"/>
</g>
<rect y="39.1992" width="34.83" height="16.79" rx="4" fill="#9B3AD7"/>
<path d="M10.556 47.464H14.744V48.784H10.556V47.464ZM10.688 52H9.128V43.6H15.26V44.908H10.688V52ZM16.6246 52V45.592H18.1246V52H16.6246ZM17.3806 44.536C17.1006 44.536 16.8686 44.448 16.6846 44.272C16.5086 44.096 16.4206 43.884 16.4206 43.636C16.4206 43.38 16.5086 43.168 16.6846 43C16.8686 42.824 17.1006 42.736 17.3806 42.736C17.6606 42.736 17.8886 42.82 18.0646 42.988C18.2486 43.148 18.3406 43.352 18.3406 43.6C18.3406 43.864 18.2526 44.088 18.0766 44.272C17.9006 44.448 17.6686 44.536 17.3806 44.536ZM22.9974 54.412C22.4054 54.412 21.8254 54.332 21.2574 54.172C20.6974 54.02 20.2374 53.796 19.8774 53.5L20.5494 52.372C20.8294 52.604 21.1814 52.788 21.6054 52.924C22.0374 53.068 22.4734 53.14 22.9134 53.14C23.6174 53.14 24.1334 52.976 24.4614 52.648C24.7894 52.328 24.9534 51.844 24.9534 51.196V50.056L25.0734 48.604L25.0254 47.152V45.592H26.4534V51.028C26.4534 52.188 26.1574 53.04 25.5654 53.584C24.9734 54.136 24.1174 54.412 22.9974 54.412ZM22.8054 51.712C22.1974 51.712 21.6454 51.584 21.1494 51.328C20.6614 51.064 20.2734 50.7 19.9854 50.236C19.7054 49.772 19.5654 49.228 19.5654 48.604C19.5654 47.988 19.7054 47.448 19.9854 46.984C20.2734 46.52 20.6614 46.16 21.1494 45.904C21.6454 45.648 22.1974 45.52 22.8054 45.52C23.3494 45.52 23.8374 45.628 24.2694 45.844C24.7014 46.06 25.0454 46.396 25.3014 46.852C25.5654 47.308 25.6974 47.892 25.6974 48.604C25.6974 49.316 25.5654 49.904 25.3014 50.368C25.0454 50.824 24.7014 51.164 24.2694 51.388C23.8374 51.604 23.3494 51.712 22.8054 51.712ZM23.0334 50.44C23.4094 50.44 23.7454 50.364 24.0414 50.212C24.3374 50.052 24.5654 49.836 24.7254 49.564C24.8934 49.284 24.9774 48.964 24.9774 48.604C24.9774 48.244 24.8934 47.928 24.7254 47.656C24.5654 47.376 24.3374 47.164 24.0414 47.02C23.7454 46.868 23.4094 46.792 23.0334 46.792C22.6574 46.792 22.3174 46.868 22.0134 47.02C21.7174 47.164 21.4854 47.376 21.3174 47.656C21.1574 47.928 21.0774 48.244 21.0774 48.604C21.0774 48.964 21.1574 49.284 21.3174 49.564C21.4854 49.836 21.7174 50.052 22.0134 50.212C22.3174 50.364 22.6574 50.44 23.0334 50.44Z" fill="white"/>
<defs>
<clipPath id="clip0_4492_608">
<rect width="55.9896" height="55.9896" fill="white"/>
</clipPath>
</defs>
</svg>
