<svg width="56" height="56" viewBox="0 0 56 56" fill="none" xmlns="http://www.w3.org/2000/svg">
<g clip-path="url(#clip0_4492_618)">
<path d="M16.3299 48.9922H39.6589C40.8963 48.9922 42.0831 48.5006 42.9581 47.6256C43.8331 46.7506 44.3247 45.5638 44.3247 44.3264V21.9632C44.3245 21.3445 44.0787 20.7513 43.6411 20.3139L31.0108 7.68354C30.5734 7.24601 29.9801 7.00013 29.3614 7H16.3299C15.0924 7 13.9057 7.49157 13.0306 8.36658C12.1556 9.24159 11.6641 10.4284 11.6641 11.6658V44.3264C11.6641 45.5638 12.1556 46.7506 13.0306 47.6256C13.9057 48.5006 15.0924 48.9922 16.3299 48.9922Z" stroke="black" stroke-opacity="0.26" stroke-width="4.6658" stroke-linecap="round" stroke-linejoin="round"/>
</g>
<rect y="39.1992" width="34.83" height="16.79" rx="4" fill="#827C46"/>
<path d="M13.21 51.1C12.6633 51.1 12.16 51.0133 11.7 50.84C11.2467 50.66 10.85 50.41 10.51 50.09C10.17 49.7633 9.90667 49.38 9.72 48.94C9.53333 48.5 9.44 48.02 9.44 47.5C9.44 46.98 9.53333 46.5 9.72 46.06C9.90667 45.62 10.17 45.24 10.51 44.92C10.8567 44.5933 11.26 44.3433 11.72 44.17C12.18 43.99 12.6833 43.9 13.23 43.9C13.8233 43.9 14.3567 43.9967 14.83 44.19C15.31 44.3833 15.7133 44.6667 16.04 45.04L15.22 45.84C14.9467 45.5667 14.65 45.3667 14.33 45.24C14.0167 45.1067 13.67 45.04 13.29 45.04C12.9233 45.04 12.5833 45.1 12.27 45.22C11.9567 45.34 11.6867 45.51 11.46 45.73C11.2333 45.95 11.0567 46.21 10.93 46.51C10.81 46.81 10.75 47.14 10.75 47.5C10.75 47.8533 10.81 48.18 10.93 48.48C11.0567 48.78 11.2333 49.0433 11.46 49.27C11.6867 49.49 11.9533 49.66 12.26 49.78C12.5667 49.9 12.9067 49.96 13.28 49.96C13.6267 49.96 13.96 49.9067 14.28 49.8C14.6067 49.6867 14.9167 49.5 15.21 49.24L15.95 50.21C15.5833 50.5033 15.1567 50.7267 14.67 50.88C14.19 51.0267 13.7033 51.1 13.21 51.1ZM14.72 50.04V47.42H15.95V50.21L14.72 50.04ZM17.5446 51V45.66H18.7946V51H17.5446ZM18.1746 44.78C17.9413 44.78 17.7479 44.7067 17.5946 44.56C17.4479 44.4133 17.3746 44.2367 17.3746 44.03C17.3746 43.8167 17.4479 43.64 17.5946 43.5C17.7479 43.3533 17.9413 43.28 18.1746 43.28C18.4079 43.28 18.5979 43.35 18.7446 43.49C18.8979 43.6233 18.9746 43.7933 18.9746 44C18.9746 44.22 18.9013 44.4067 18.7546 44.56C18.6079 44.7067 18.4146 44.78 18.1746 44.78ZM20.6052 51V45.36C20.6052 44.8 20.7686 44.3533 21.0952 44.02C21.4286 43.68 21.9019 43.51 22.5152 43.51C22.7352 43.51 22.9419 43.5333 23.1352 43.58C23.3352 43.6267 23.5019 43.7 23.6352 43.8L23.2952 44.74C23.2019 44.6667 23.0952 44.6133 22.9752 44.58C22.8552 44.54 22.7319 44.52 22.6052 44.52C22.3452 44.52 22.1486 44.5933 22.0152 44.74C21.8819 44.88 21.8152 45.0933 21.8152 45.38V45.98L21.8552 46.54V51H20.6052ZM19.7252 46.7V45.7H23.2852V46.7H19.7252Z" fill="white"/>
<defs>
<clipPath id="clip0_4492_618">
<rect width="55.9896" height="55.9896" fill="white"/>
</clipPath>
</defs>
</svg>
