<svg width="56" height="56" viewBox="0 0 56 56" fill="none" xmlns="http://www.w3.org/2000/svg">
<g clip-path="url(#clip0_4492_678)">
<path d="M16.3299 48.9922H39.6589C40.8963 48.9922 42.0831 48.5006 42.9581 47.6256C43.8331 46.7506 44.3247 45.5638 44.3247 44.3264V21.9632C44.3245 21.3445 44.0787 20.7513 43.6411 20.3139L31.0108 7.68354C30.5734 7.24601 29.9801 7.00013 29.3614 7H16.3299C15.0924 7 13.9057 7.49157 13.0306 8.36658C12.1556 9.24159 11.6641 10.4284 11.6641 11.6658V44.3264C11.6641 45.5638 12.1556 46.7506 13.0306 47.6256C13.9057 48.5006 15.0924 48.9922 16.3299 48.9922Z" stroke="black" stroke-opacity="0.26" stroke-width="4.6658" stroke-linecap="round" stroke-linejoin="round"/>
</g>
<rect y="39.1992" width="34.83" height="16.79" rx="4" fill="#296F5A"/>
<path d="M7.03 51.1C6.58333 51.1 6.17 51.0133 5.79 50.84C5.41667 50.6667 5.11 50.4167 4.87 50.09L5.61 49.2C5.80333 49.4667 6.01333 49.6667 6.24 49.8C6.47333 49.9333 6.72667 50 7 50C7.72667 50 8.09 49.57 8.09 48.71V45.09H5.6V44H9.39V48.64C9.39 49.4667 9.18667 50.0833 8.78 50.49C8.38 50.8967 7.79667 51.1 7.03 51.1ZM14.0534 51.07C13.6201 51.07 13.2234 50.97 12.8634 50.77C12.5101 50.57 12.2268 50.27 12.0134 49.87C11.8068 49.4633 11.7034 48.95 11.7034 48.33C11.7034 47.7033 11.8034 47.19 12.0034 46.79C12.2101 46.39 12.4901 46.0933 12.8434 45.9C13.1968 45.7 13.6001 45.6 14.0534 45.6C14.5801 45.6 15.0434 45.7133 15.4434 45.94C15.8501 46.1667 16.1701 46.4833 16.4034 46.89C16.6434 47.2967 16.7634 47.7767 16.7634 48.33C16.7634 48.8833 16.6434 49.3667 16.4034 49.78C16.1701 50.1867 15.8501 50.5033 15.4434 50.73C15.0434 50.9567 14.5801 51.07 14.0534 51.07ZM11.0934 52.94V45.66H12.2834V46.92L12.2434 48.34L12.3434 49.76V52.94H11.0934ZM13.9134 50C14.2134 50 14.4801 49.9333 14.7134 49.8C14.9534 49.6667 15.1434 49.4733 15.2834 49.22C15.4234 48.9667 15.4934 48.67 15.4934 48.33C15.4934 47.9833 15.4234 47.6867 15.2834 47.44C15.1434 47.1867 14.9534 46.9933 14.7134 46.86C14.4801 46.7267 14.2134 46.66 13.9134 46.66C13.6134 46.66 13.3434 46.7267 13.1034 46.86C12.8634 46.9933 12.6734 47.1867 12.5334 47.44C12.3934 47.6867 12.3234 47.9833 12.3234 48.33C12.3234 48.67 12.3934 48.9667 12.5334 49.22C12.6734 49.4733 12.8634 49.6667 13.1034 49.8C13.3434 49.9333 13.6134 50 13.9134 50ZM20.4589 51.07C19.8656 51.07 19.3456 50.9533 18.8989 50.72C18.4589 50.48 18.1156 50.1533 17.8689 49.74C17.6289 49.3267 17.5089 48.8567 17.5089 48.33C17.5089 47.7967 17.6256 47.3267 17.8589 46.92C18.0989 46.5067 18.4256 46.1833 18.8389 45.95C19.2589 45.7167 19.7356 45.6 20.2689 45.6C20.7889 45.6 21.2522 45.7133 21.6589 45.94C22.0656 46.1667 22.3856 46.4867 22.6189 46.9C22.8522 47.3133 22.9689 47.8 22.9689 48.36C22.9689 48.4133 22.9656 48.4733 22.9589 48.54C22.9589 48.6067 22.9556 48.67 22.9489 48.73H18.4989V47.9H22.2889L21.7989 48.16C21.8056 47.8533 21.7422 47.5833 21.6089 47.35C21.4756 47.1167 21.2922 46.9333 21.0589 46.8C20.8322 46.6667 20.5689 46.6 20.2689 46.6C19.9622 46.6 19.6922 46.6667 19.4589 46.8C19.2322 46.9333 19.0522 47.12 18.9189 47.36C18.7922 47.5933 18.7289 47.87 18.7289 48.19V48.39C18.7289 48.71 18.8022 48.9933 18.9489 49.24C19.0956 49.4867 19.3022 49.6767 19.5689 49.81C19.8356 49.9433 20.1422 50.01 20.4889 50.01C20.7889 50.01 21.0589 49.9633 21.2989 49.87C21.5389 49.7767 21.7522 49.63 21.9389 49.43L22.6089 50.2C22.3689 50.48 22.0656 50.6967 21.6989 50.85C21.3389 50.9967 20.9256 51.07 20.4589 51.07ZM26.5896 53.01C26.0963 53.01 25.6129 52.9433 25.1396 52.81C24.6729 52.6833 24.2896 52.4967 23.9896 52.25L24.5496 51.31C24.7829 51.5033 25.0763 51.6567 25.4296 51.77C25.7896 51.89 26.1529 51.95 26.5196 51.95C27.1063 51.95 27.5363 51.8133 27.8096 51.54C28.0829 51.2733 28.2196 50.87 28.2196 50.33V49.38L28.3196 48.17L28.2796 46.96V45.66H29.4696V50.19C29.4696 51.1567 29.2229 51.8667 28.7296 52.32C28.2363 52.78 27.5229 53.01 26.5896 53.01ZM26.4296 50.76C25.9229 50.76 25.4629 50.6533 25.0496 50.44C24.6429 50.22 24.3196 49.9167 24.0796 49.53C23.8463 49.1433 23.7296 48.69 23.7296 48.17C23.7296 47.6567 23.8463 47.2067 24.0796 46.82C24.3196 46.4333 24.6429 46.1333 25.0496 45.92C25.4629 45.7067 25.9229 45.6 26.4296 45.6C26.8829 45.6 27.2896 45.69 27.6496 45.87C28.0096 46.05 28.2963 46.33 28.5096 46.71C28.7296 47.09 28.8396 47.5767 28.8396 48.17C28.8396 48.7633 28.7296 49.2533 28.5096 49.64C28.2963 50.02 28.0096 50.3033 27.6496 50.49C27.2896 50.67 26.8829 50.76 26.4296 50.76ZM26.6196 49.7C26.9329 49.7 27.2129 49.6367 27.4596 49.51C27.7063 49.3767 27.8963 49.1967 28.0296 48.97C28.1696 48.7367 28.2396 48.47 28.2396 48.17C28.2396 47.87 28.1696 47.6067 28.0296 47.38C27.8963 47.1467 27.7063 46.97 27.4596 46.85C27.2129 46.7233 26.9329 46.66 26.6196 46.66C26.3063 46.66 26.0229 46.7233 25.7696 46.85C25.5229 46.97 25.3296 47.1467 25.1896 47.38C25.0563 47.6067 24.9896 47.87 24.9896 48.17C24.9896 48.47 25.0563 48.7367 25.1896 48.97C25.3296 49.1967 25.5229 49.3767 25.7696 49.51C26.0229 49.6367 26.3063 49.7 26.6196 49.7Z" fill="white"/>
<defs>
<clipPath id="clip0_4492_678">
<rect width="55.9896" height="55.9896" fill="white"/>
</clipPath>
</defs>
</svg>
