<svg width="56" height="56" viewBox="0 0 56 56" fill="none" xmlns="http://www.w3.org/2000/svg">
<g clip-path="url(#clip0_4832_12939)">
<path d="M16.3299 48.9922H39.6589C40.8963 48.9922 42.0831 48.5006 42.9581 47.6256C43.8331 46.7506 44.3247 45.5638 44.3247 44.3264V21.9632C44.3245 21.3445 44.0787 20.7513 43.6411 20.3139L31.0108 7.68354C30.5734 7.24601 29.9801 7.00013 29.3614 7H16.3299C15.0924 7 13.9057 7.49157 13.0306 8.36658C12.1556 9.24159 11.6641 10.4284 11.6641 11.6658V44.3264C11.6641 45.5638 12.1556 46.7506 13.0306 47.6256C13.9057 48.5006 15.0924 48.9922 16.3299 48.9922Z" stroke="black" stroke-opacity="0.26" stroke-width="4.6658" stroke-linecap="round" stroke-linejoin="round"/>
</g>
<rect y="39.1992" width="34.83" height="16.79" rx="4" fill="#FFA800"/>
<path d="M9.436 51.12C8.9 51.12 8.404 51.016 7.948 50.808C7.5 50.6 7.132 50.3 6.844 49.908L7.732 48.84C7.964 49.16 8.216 49.4 8.488 49.56C8.768 49.72 9.072 49.8 9.4 49.8C10.272 49.8 10.708 49.284 10.708 48.252V43.908H7.72V42.6H12.268V48.168C12.268 49.16 12.024 49.9 11.536 50.388C11.056 50.876 10.356 51.12 9.436 51.12ZM17.8641 51.084C17.3441 51.084 16.8681 50.964 16.4361 50.724C16.0121 50.484 15.6721 50.124 15.4161 49.644C15.1681 49.156 15.0441 48.54 15.0441 47.796C15.0441 47.044 15.1641 46.428 15.4041 45.948C15.6521 45.468 15.9881 45.112 16.4121 44.88C16.8361 44.64 17.3201 44.52 17.8641 44.52C18.4961 44.52 19.0521 44.656 19.5321 44.928C20.0201 45.2 20.4041 45.58 20.6841 46.068C20.9721 46.556 21.1161 47.132 21.1161 47.796C21.1161 48.46 20.9721 49.04 20.6841 49.536C20.4041 50.024 20.0201 50.404 19.5321 50.676C19.0521 50.948 18.4961 51.084 17.8641 51.084ZM14.3121 53.328V44.592H15.7401V46.104L15.6921 47.808L15.8121 49.512V53.328H14.3121ZM17.6961 49.8C18.0561 49.8 18.3761 49.72 18.6561 49.56C18.9441 49.4 19.1721 49.168 19.3401 48.864C19.5081 48.56 19.5921 48.204 19.5921 47.796C19.5921 47.38 19.5081 47.024 19.3401 46.728C19.1721 46.424 18.9441 46.192 18.6561 46.032C18.3761 45.872 18.0561 45.792 17.6961 45.792C17.3361 45.792 17.0121 45.872 16.7241 46.032C16.4361 46.192 16.2081 46.424 16.0401 46.728C15.8721 47.024 15.7881 47.38 15.7881 47.796C15.7881 48.204 15.8721 48.56 16.0401 48.864C16.2081 49.168 16.4361 49.4 16.7241 49.56C17.0121 49.72 17.3361 49.8 17.6961 49.8ZM25.4427 53.412C24.8507 53.412 24.2707 53.332 23.7027 53.172C23.1427 53.02 22.6827 52.796 22.3227 52.5L22.9947 51.372C23.2747 51.604 23.6267 51.788 24.0507 51.924C24.4827 52.068 24.9187 52.14 25.3587 52.14C26.0627 52.14 26.5787 51.976 26.9067 51.648C27.2347 51.328 27.3987 50.844 27.3987 50.196V49.056L27.5187 47.604L27.4707 46.152V44.592H28.8987V50.028C28.8987 51.188 28.6027 52.04 28.0107 52.584C27.4187 53.136 26.5627 53.412 25.4427 53.412ZM25.2507 50.712C24.6427 50.712 24.0907 50.584 23.5947 50.328C23.1067 50.064 22.7187 49.7 22.4307 49.236C22.1507 48.772 22.0107 48.228 22.0107 47.604C22.0107 46.988 22.1507 46.448 22.4307 45.984C22.7187 45.52 23.1067 45.16 23.5947 44.904C24.0907 44.648 24.6427 44.52 25.2507 44.52C25.7947 44.52 26.2827 44.628 26.7147 44.844C27.1467 45.06 27.4907 45.396 27.7467 45.852C28.0107 46.308 28.1427 46.892 28.1427 47.604C28.1427 48.316 28.0107 48.904 27.7467 49.368C27.4907 49.824 27.1467 50.164 26.7147 50.388C26.2827 50.604 25.7947 50.712 25.2507 50.712ZM25.4787 49.44C25.8547 49.44 26.1907 49.364 26.4867 49.212C26.7827 49.052 27.0107 48.836 27.1707 48.564C27.3387 48.284 27.4227 47.964 27.4227 47.604C27.4227 47.244 27.3387 46.928 27.1707 46.656C27.0107 46.376 26.7827 46.164 26.4867 46.02C26.1907 45.868 25.8547 45.792 25.4787 45.792C25.1027 45.792 24.7627 45.868 24.4587 46.02C24.1627 46.164 23.9307 46.376 23.7627 46.656C23.6027 46.928 23.5227 47.244 23.5227 47.604C23.5227 47.964 23.6027 48.284 23.7627 48.564C23.9307 48.836 24.1627 49.052 24.4587 49.212C24.7627 49.364 25.1027 49.44 25.4787 49.44Z" fill="white"/>
<defs>
<clipPath id="clip0_4832_12939">
<rect width="55.9896" height="55.9896" fill="white"/>
</clipPath>
</defs>
</svg>
