<svg width="56" height="56" viewBox="0 0 56 56" fill="none" xmlns="http://www.w3.org/2000/svg">
<g clip-path="url(#clip0_6056_3115)">
<path d="M16.3299 48.9922H39.6589C40.8963 48.9922 42.0831 48.5006 42.9581 47.6256C43.8331 46.7506 44.3247 45.5638 44.3247 44.3264V21.9632C44.3245 21.3445 44.0787 20.7513 43.6411 20.3139L31.0108 7.68354C30.5734 7.24601 29.9801 7.00013 29.3614 7H16.3299C15.0924 7 13.9057 7.49157 13.0306 8.36658C12.1556 9.24159 11.6641 10.4284 11.6641 11.6658V44.3264C11.6641 45.5638 12.1556 46.7506 13.0306 47.6256C13.9057 48.5006 15.0924 48.9922 16.3299 48.9922Z" stroke="black" stroke-opacity="0.26" stroke-width="4.6658" stroke-linecap="round" stroke-linejoin="round"/>
</g>
<rect y="39.1992" width="34.83" height="16.79" rx="4" fill="#F16529"/>
<path d="M6.94 51V44H8.01L11.07 49.11H10.51L13.52 44H14.59L14.6 51H13.37L13.36 45.93H13.62L11.06 50.2H10.48L7.88 45.93H8.18V51H6.94ZM19.3308 51.07C18.8974 51.07 18.5008 50.97 18.1408 50.77C17.7874 50.57 17.5041 50.27 17.2908 49.87C17.0841 49.4633 16.9808 48.95 16.9808 48.33C16.9808 47.7033 17.0808 47.19 17.2808 46.79C17.4874 46.39 17.7674 46.0933 18.1208 45.9C18.4741 45.7 18.8774 45.6 19.3308 45.6C19.8574 45.6 20.3208 45.7133 20.7208 45.94C21.1274 46.1667 21.4474 46.4833 21.6808 46.89C21.9208 47.2967 22.0408 47.7767 22.0408 48.33C22.0408 48.8833 21.9208 49.3667 21.6808 49.78C21.4474 50.1867 21.1274 50.5033 20.7208 50.73C20.3208 50.9567 19.8574 51.07 19.3308 51.07ZM16.3708 52.94V45.66H17.5608V46.92L17.5208 48.34L17.6208 49.76V52.94H16.3708ZM19.1908 50C19.4908 50 19.7574 49.9333 19.9908 49.8C20.2308 49.6667 20.4208 49.4733 20.5608 49.22C20.7008 48.9667 20.7708 48.67 20.7708 48.33C20.7708 47.9833 20.7008 47.6867 20.5608 47.44C20.4208 47.1867 20.2308 46.9933 19.9908 46.86C19.7574 46.7267 19.4908 46.66 19.1908 46.66C18.8908 46.66 18.6208 46.7267 18.3808 46.86C18.1408 46.9933 17.9508 47.1867 17.8108 47.44C17.6708 47.6867 17.6008 47.9833 17.6008 48.33C17.6008 48.67 17.6708 48.9667 17.8108 49.22C17.9508 49.4733 18.1408 49.6667 18.3808 49.8C18.6208 49.9333 18.8908 50 19.1908 50ZM22.7463 49.41V48.51L26.1963 44H27.5863L24.1863 48.51L23.5363 48.31H29.0863V49.41H22.7463ZM26.5863 51V49.41L26.6263 48.31V46.9H27.8463V51H26.5863Z" fill="white"/>
<defs>
<clipPath id="clip0_6056_3115">
<rect width="55.9896" height="55.9896" fill="white"/>
</clipPath>
</defs>
</svg>
