<svg width="56" height="56" viewBox="0 0 56 56" fill="none" xmlns="http://www.w3.org/2000/svg">
<g clip-path="url(#clip0_2514_1754)">
<path d="M16.3299 48.9922H39.6589C40.8963 48.9922 42.0831 48.5006 42.9581 47.6256C43.8331 46.7506 44.3247 45.5638 44.3247 44.3264V21.9632C44.3245 21.3445 44.0787 20.7513 43.6411 20.3139L31.0108 7.68354C30.5734 7.24601 29.9801 7.00013 29.3614 7H16.3299C15.0924 7 13.9057 7.49157 13.0306 8.36658C12.1556 9.24159 11.6641 10.4284 11.6641 11.6658V44.3264C11.6641 45.5638 12.1556 46.7506 13.0306 47.6256C13.9057 48.5006 15.0924 48.9922 16.3299 48.9922Z" stroke="black" stroke-opacity="0.26" stroke-width="4.6658" stroke-linecap="round" stroke-linejoin="round"/>
</g>
<rect y="39.1992" width="34.83" height="16.79" rx="4" fill="#E13347"/>
<path d="M7.128 52V43.6H10.584C11.328 43.6 11.964 43.72 12.492 43.96C13.028 44.2 13.44 44.544 13.728 44.992C14.016 45.44 14.16 45.972 14.16 46.588C14.16 47.204 14.016 47.736 13.728 48.184C13.44 48.632 13.028 48.976 12.492 49.216C11.964 49.456 11.328 49.576 10.584 49.576H7.992L8.688 48.844V52H7.128ZM8.688 49.012L7.992 48.256H10.512C11.2 48.256 11.716 48.112 12.06 47.824C12.412 47.528 12.588 47.116 12.588 46.588C12.588 46.052 12.412 45.64 12.06 45.352C11.716 45.064 11.2 44.92 10.512 44.92H7.992L8.688 44.152V49.012ZM18.2624 52.084C17.6464 52.084 17.0904 51.948 16.5944 51.676C16.1064 51.396 15.7224 51.012 15.4424 50.524C15.1624 50.036 15.0224 49.46 15.0224 48.796C15.0224 48.132 15.1624 47.556 15.4424 47.068C15.7224 46.58 16.1064 46.2 16.5944 45.928C17.0904 45.656 17.6464 45.52 18.2624 45.52C18.7984 45.52 19.2784 45.64 19.7024 45.88C20.1264 46.112 20.4624 46.468 20.7104 46.948C20.9584 47.428 21.0824 48.044 21.0824 48.796C21.0824 49.54 20.9624 50.156 20.7224 50.644C20.4824 51.124 20.1504 51.484 19.7264 51.724C19.3024 51.964 18.8144 52.084 18.2624 52.084ZM18.4424 50.8C18.8024 50.8 19.1224 50.72 19.4024 50.56C19.6904 50.4 19.9184 50.168 20.0864 49.864C20.2624 49.56 20.3504 49.204 20.3504 48.796C20.3504 48.38 20.2624 48.024 20.0864 47.728C19.9184 47.424 19.6904 47.192 19.4024 47.032C19.1224 46.872 18.8024 46.792 18.4424 46.792C18.0824 46.792 17.7584 46.872 17.4704 47.032C17.1904 47.192 16.9624 47.424 16.7864 47.728C16.6184 48.024 16.5344 48.38 16.5344 48.796C16.5344 49.204 16.6184 49.56 16.7864 49.864C16.9624 50.168 17.1904 50.4 17.4704 50.56C17.7584 50.72 18.0824 50.8 18.4424 50.8ZM20.3864 52V50.488L20.4464 48.784L20.3264 47.08V43.096H21.8144V52H20.3864ZM23.9927 52V45.232C23.9927 44.56 24.1887 44.024 24.5807 43.624C24.9807 43.216 25.5487 43.012 26.2847 43.012C26.5487 43.012 26.7967 43.04 27.0287 43.096C27.2687 43.152 27.4687 43.24 27.6287 43.36L27.2207 44.488C27.1087 44.4 26.9807 44.336 26.8367 44.296C26.6927 44.248 26.5447 44.224 26.3927 44.224C26.0807 44.224 25.8447 44.312 25.6847 44.488C25.5247 44.656 25.4447 44.912 25.4447 45.256V45.976L25.4927 46.648V52H23.9927ZM22.9367 46.84V45.64H27.2087V46.84H22.9367Z" fill="white"/>
<defs>
<clipPath id="clip0_2514_1754">
<rect width="55.9896" height="55.9896" fill="white"/>
</clipPath>
</defs>
</svg>
