<svg width="56" height="56" viewBox="0 0 56 56" fill="none" xmlns="http://www.w3.org/2000/svg">
<g clip-path="url(#clip0_4492_688)">
<path d="M16.3299 48.9922H39.6589C40.8963 48.9922 42.0831 48.5006 42.9581 47.6256C43.8331 46.7506 44.3247 45.5638 44.3247 44.3264V21.9632C44.3245 21.3445 44.0787 20.7513 43.6411 20.3139L31.0108 7.68354C30.5734 7.24601 29.9801 7.00013 29.3614 7H16.3299C15.0924 7 13.9057 7.49157 13.0306 8.36658C12.1556 9.24159 11.6641 10.4284 11.6641 11.6658V44.3264C11.6641 45.5638 12.1556 46.7506 13.0306 47.6256C13.9057 48.5006 15.0924 48.9922 16.3299 48.9922Z" stroke="black" stroke-opacity="0.26" stroke-width="4.6658" stroke-linecap="round" stroke-linejoin="round"/>
</g>
<rect y="39.1992" width="34.83" height="16.79" rx="4" fill="#399A89"/>
<path d="M6.128 52V43.6H9.584C10.328 43.6 10.964 43.72 11.492 43.96C12.028 44.2 12.44 44.544 12.728 44.992C13.016 45.44 13.16 45.972 13.16 46.588C13.16 47.204 13.016 47.736 12.728 48.184C12.44 48.632 12.028 48.976 11.492 49.216C10.964 49.456 10.328 49.576 9.584 49.576H6.992L7.688 48.844V52H6.128ZM7.688 49.012L6.992 48.256H9.512C10.2 48.256 10.716 48.112 11.06 47.824C11.412 47.528 11.588 47.116 11.588 46.588C11.588 46.052 11.412 45.64 11.06 45.352C10.716 45.064 10.2 44.92 9.512 44.92H6.992L7.688 44.152V49.012ZM18.1513 45.52C18.6633 45.52 19.1193 45.62 19.5193 45.82C19.9273 46.02 20.2473 46.328 20.4793 46.744C20.7113 47.152 20.8273 47.68 20.8273 48.328V52H19.3273V48.52C19.3273 47.952 19.1913 47.528 18.9193 47.248C18.6553 46.968 18.2833 46.828 17.8033 46.828C17.4513 46.828 17.1393 46.9 16.8673 47.044C16.5953 47.188 16.3833 47.404 16.2313 47.692C16.0873 47.972 16.0153 48.328 16.0153 48.76V52H14.5153V45.592H15.9433V47.32L15.6913 46.792C15.9153 46.384 16.2393 46.072 16.6633 45.856C17.0953 45.632 17.5913 45.52 18.1513 45.52ZM25.6458 54.412C25.0538 54.412 24.4738 54.332 23.9058 54.172C23.3458 54.02 22.8858 53.796 22.5258 53.5L23.1978 52.372C23.4778 52.604 23.8298 52.788 24.2538 52.924C24.6858 53.068 25.1218 53.14 25.5618 53.14C26.2658 53.14 26.7818 52.976 27.1098 52.648C27.4378 52.328 27.6018 51.844 27.6018 51.196V50.056L27.7218 48.604L27.6738 47.152V45.592H29.1018V51.028C29.1018 52.188 28.8058 53.04 28.2138 53.584C27.6218 54.136 26.7658 54.412 25.6458 54.412ZM25.4538 51.712C24.8458 51.712 24.2938 51.584 23.7978 51.328C23.3098 51.064 22.9218 50.7 22.6338 50.236C22.3538 49.772 22.2138 49.228 22.2138 48.604C22.2138 47.988 22.3538 47.448 22.6338 46.984C22.9218 46.52 23.3098 46.16 23.7978 45.904C24.2938 45.648 24.8458 45.52 25.4538 45.52C25.9978 45.52 26.4858 45.628 26.9178 45.844C27.3498 46.06 27.6938 46.396 27.9498 46.852C28.2138 47.308 28.3458 47.892 28.3458 48.604C28.3458 49.316 28.2138 49.904 27.9498 50.368C27.6938 50.824 27.3498 51.164 26.9178 51.388C26.4858 51.604 25.9978 51.712 25.4538 51.712ZM25.6818 50.44C26.0578 50.44 26.3938 50.364 26.6898 50.212C26.9858 50.052 27.2138 49.836 27.3738 49.564C27.5418 49.284 27.6258 48.964 27.6258 48.604C27.6258 48.244 27.5418 47.928 27.3738 47.656C27.2138 47.376 26.9858 47.164 26.6898 47.02C26.3938 46.868 26.0578 46.792 25.6818 46.792C25.3058 46.792 24.9658 46.868 24.6618 47.02C24.3658 47.164 24.1338 47.376 23.9658 47.656C23.8058 47.928 23.7258 48.244 23.7258 48.604C23.7258 48.964 23.8058 49.284 23.9658 49.564C24.1338 49.836 24.3658 50.052 24.6618 50.212C24.9658 50.364 25.3058 50.44 25.6818 50.44Z" fill="white"/>
<defs>
<clipPath id="clip0_4492_688">
<rect width="55.9896" height="55.9896" fill="white"/>
</clipPath>
</defs>
</svg>
