<svg width="56" height="56" viewBox="0 0 56 56" fill="none" xmlns="http://www.w3.org/2000/svg">
<g clip-path="url(#clip0_4492_598)">
<path d="M16.3299 48.9922H39.6589C40.8963 48.9922 42.0831 48.5006 42.9581 47.6256C43.8331 46.7506 44.3247 45.5638 44.3247 44.3264V21.9632C44.3245 21.3445 44.0787 20.7513 43.6411 20.3139L31.0108 7.68354C30.5734 7.24601 29.9801 7.00013 29.3614 7H16.3299C15.0924 7 13.9057 7.49157 13.0306 8.36658C12.1556 9.24159 11.6641 10.4284 11.6641 11.6658V44.3264C11.6641 45.5638 12.1556 46.7506 13.0306 47.6256C13.9057 48.5006 15.0924 48.9922 16.3299 48.9922Z" stroke="black" stroke-opacity="0.26" stroke-width="4.6658" stroke-linecap="round" stroke-linejoin="round"/>
</g>
<rect y="39.1992" width="34.83" height="16.79" rx="4" fill="#FF767F"/>
<path d="M8.94 51V44H11.82C12.44 44 12.97 44.1 13.41 44.3C13.8567 44.5 14.2 44.7867 14.44 45.16C14.68 45.5333 14.8 45.9767 14.8 46.49C14.8 47.0033 14.68 47.4467 14.44 47.82C14.2 48.1867 13.8567 48.47 13.41 48.67C12.97 48.8633 12.44 48.96 11.82 48.96H9.66L10.24 48.37V51H8.94ZM13.52 51L11.75 48.46H13.14L14.92 51H13.52ZM10.24 48.51L9.66 47.89H11.76C12.3333 47.89 12.7633 47.7667 13.05 47.52C13.3433 47.2733 13.49 46.93 13.49 46.49C13.49 46.0433 13.3433 45.7 13.05 45.46C12.7633 45.22 12.3333 45.1 11.76 45.1H9.66L10.24 44.46V48.51ZM19.3756 51V49.92L19.3056 49.69V47.8C19.3056 47.4333 19.1956 47.15 18.9756 46.95C18.7556 46.7433 18.4223 46.64 17.9756 46.64C17.6756 46.64 17.379 46.6867 17.0856 46.78C16.799 46.8733 16.5556 47.0033 16.3556 47.17L15.8656 46.26C16.1523 46.04 16.4923 45.8767 16.8856 45.77C17.2856 45.6567 17.699 45.6 18.1256 45.6C18.899 45.6 19.4956 45.7867 19.9156 46.16C20.3423 46.5267 20.5556 47.0967 20.5556 47.87V51H19.3756ZM17.6956 51.07C17.2956 51.07 16.9456 51.0033 16.6456 50.87C16.3456 50.73 16.1123 50.54 15.9456 50.3C15.7856 50.0533 15.7056 49.7767 15.7056 49.47C15.7056 49.17 15.7756 48.9 15.9156 48.66C16.0623 48.42 16.299 48.23 16.6256 48.09C16.9523 47.95 17.3856 47.88 17.9256 47.88H19.4756V48.71H18.0156C17.589 48.71 17.3023 48.78 17.1556 48.92C17.009 49.0533 16.9356 49.22 16.9356 49.42C16.9356 49.6467 17.0256 49.8267 17.2056 49.96C17.3856 50.0933 17.6356 50.16 17.9556 50.16C18.2623 50.16 18.5356 50.09 18.7756 49.95C19.0223 49.81 19.199 49.6033 19.3056 49.33L19.5156 50.08C19.3956 50.3933 19.179 50.6367 18.8656 50.81C18.559 50.9833 18.169 51.07 17.6956 51.07ZM22.1598 51V45.66H23.3498V47.13L23.2098 46.7C23.3698 46.34 23.6198 46.0667 23.9598 45.88C24.3065 45.6933 24.7365 45.6 25.2498 45.6V46.79C25.1965 46.7767 25.1465 46.77 25.0998 46.77C25.0532 46.7633 25.0065 46.76 24.9598 46.76C24.4865 46.76 24.1098 46.9 23.8298 47.18C23.5498 47.4533 23.4098 47.8633 23.4098 48.41V51H22.1598Z" fill="white"/>
<defs>
<clipPath id="clip0_4492_598">
<rect width="55.9896" height="55.9896" fill="white"/>
</clipPath>
</defs>
</svg>
