<svg width="56" height="56" viewBox="0 0 56 56" fill="none" xmlns="http://www.w3.org/2000/svg">
<g clip-path="url(#clip0_4493_708)">
<path d="M16.3299 48.9922H39.6589C40.8963 48.9922 42.0831 48.5006 42.9581 47.6256C43.8331 46.7506 44.3247 45.5638 44.3247 44.3264V21.9632C44.3245 21.3445 44.0787 20.7513 43.6411 20.3139L31.0108 7.68354C30.5734 7.24601 29.9801 7.00013 29.3614 7H16.3299C15.0924 7 13.9057 7.49157 13.0306 8.36658C12.1556 9.24159 11.6641 10.4284 11.6641 11.6658V44.3264C11.6641 45.5638 12.1556 46.7506 13.0306 47.6256C13.9057 48.5006 15.0924 48.9922 16.3299 48.9922Z" stroke="black" stroke-opacity="0.26" stroke-width="4.6658" stroke-linecap="round" stroke-linejoin="round"/>
</g>
<rect y="39.1992" width="34.83" height="16.79" rx="4" fill="#30822E"/>
<path d="M7.09 51L10.04 46.94V47.92L7.23 44H8.7L10.79 46.9L10.19 46.91L12.26 44H13.67L10.88 47.85V46.91L13.85 51H12.35L10.15 47.92H10.74L8.57 51H7.09ZM14.7536 51V43.58H16.0036V51H14.7536ZM19.2942 51.07C18.8476 51.07 18.4176 51.0133 18.0042 50.9C17.5976 50.78 17.2742 50.6367 17.0342 50.47L17.5142 49.52C17.7542 49.6733 18.0409 49.8 18.3742 49.9C18.7076 50 19.0409 50.05 19.3742 50.05C19.7676 50.05 20.0509 49.9967 20.2242 49.89C20.4042 49.7833 20.4942 49.64 20.4942 49.46C20.4942 49.3133 20.4342 49.2033 20.3142 49.13C20.1942 49.05 20.0376 48.99 19.8442 48.95C19.6509 48.91 19.4342 48.8733 19.1942 48.84C18.9609 48.8067 18.7242 48.7633 18.4842 48.71C18.2509 48.65 18.0376 48.5667 17.8442 48.46C17.6509 48.3467 17.4942 48.1967 17.3742 48.01C17.2542 47.8233 17.1942 47.5767 17.1942 47.27C17.1942 46.93 17.2909 46.6367 17.4842 46.39C17.6776 46.1367 17.9476 45.9433 18.2942 45.81C18.6476 45.67 19.0642 45.6 19.5442 45.6C19.9042 45.6 20.2676 45.64 20.6342 45.72C21.0009 45.8 21.3042 45.9133 21.5442 46.06L21.0642 47.01C20.8109 46.8567 20.5542 46.7533 20.2942 46.7C20.0409 46.64 19.7876 46.61 19.5342 46.61C19.1542 46.61 18.8709 46.6667 18.6842 46.78C18.5042 46.8933 18.4142 47.0367 18.4142 47.21C18.4142 47.37 18.4742 47.49 18.5942 47.57C18.7142 47.65 18.8709 47.7133 19.0642 47.76C19.2576 47.8067 19.4709 47.8467 19.7042 47.88C19.9442 47.9067 20.1809 47.95 20.4142 48.01C20.6476 48.07 20.8609 48.1533 21.0542 48.26C21.2542 48.36 21.4142 48.5033 21.5342 48.69C21.6542 48.8767 21.7142 49.12 21.7142 49.42C21.7142 49.7533 21.6142 50.0433 21.4142 50.29C21.2209 50.5367 20.9442 50.73 20.5842 50.87C20.2242 51.0033 19.7942 51.07 19.2942 51.07ZM21.963 51L24.313 47.94L24.293 48.61L22.053 45.66H23.443L25.013 47.76H24.483L26.063 45.66H27.413L25.153 48.61L25.163 47.94L27.503 51H26.093L24.443 48.77L24.963 48.84L23.343 51H21.963Z" fill="white"/>
<defs>
<clipPath id="clip0_4493_708">
<rect width="55.9896" height="55.9896" fill="white"/>
</clipPath>
</defs>
</svg>
