<svg width="56" height="56" viewBox="0 0 56 56" fill="none" xmlns="http://www.w3.org/2000/svg">
<g clip-path="url(#clip0_4492_588)">
<path d="M16.3299 48.9922H39.6589C40.8963 48.9922 42.0831 48.5006 42.9581 47.6256C43.8331 46.7506 44.3247 45.5638 44.3247 44.3264V21.9632C44.3245 21.3445 44.0787 20.7513 43.6411 20.3139L31.0108 7.68354C30.5734 7.24601 29.9801 7.00013 29.3614 7H16.3299C15.0924 7 13.9057 7.49157 13.0306 8.36658C12.1556 9.24159 11.6641 10.4284 11.6641 11.6658V44.3264C11.6641 45.5638 12.1556 46.7506 13.0306 47.6256C13.9057 48.5006 15.0924 48.9922 16.3299 48.9922Z" stroke="black" stroke-opacity="0.26" stroke-width="4.6658" stroke-linecap="round" stroke-linejoin="round"/>
</g>
<rect y="39.1992" width="34.83" height="16.79" rx="4" fill="#6260BD"/>
<path d="M8.492 52V50.956L13.916 44.332L14.096 44.92H8.576V43.6H15.5V44.644L10.076 51.268L9.884 50.68H15.656V52H8.492ZM16.941 52V45.592H18.441V52H16.941ZM17.697 44.536C17.417 44.536 17.185 44.448 17.001 44.272C16.825 44.096 16.737 43.884 16.737 43.636C16.737 43.38 16.825 43.168 17.001 43C17.185 42.824 17.417 42.736 17.697 42.736C17.977 42.736 18.205 42.82 18.381 42.988C18.565 43.148 18.657 43.352 18.657 43.6C18.657 43.864 18.569 44.088 18.393 44.272C18.217 44.448 17.985 44.536 17.697 44.536ZM23.9618 52.084C23.4418 52.084 22.9658 51.964 22.5338 51.724C22.1098 51.484 21.7698 51.124 21.5138 50.644C21.2658 50.156 21.1418 49.54 21.1418 48.796C21.1418 48.044 21.2618 47.428 21.5018 46.948C21.7498 46.468 22.0858 46.112 22.5098 45.88C22.9338 45.64 23.4178 45.52 23.9618 45.52C24.5938 45.52 25.1498 45.656 25.6298 45.928C26.1178 46.2 26.5018 46.58 26.7818 47.068C27.0698 47.556 27.2138 48.132 27.2138 48.796C27.2138 49.46 27.0698 50.04 26.7818 50.536C26.5018 51.024 26.1178 51.404 25.6298 51.676C25.1498 51.948 24.5938 52.084 23.9618 52.084ZM20.4098 54.328V45.592H21.8378V47.104L21.7898 48.808L21.9098 50.512V54.328H20.4098ZM23.7938 50.8C24.1538 50.8 24.4738 50.72 24.7538 50.56C25.0418 50.4 25.2698 50.168 25.4378 49.864C25.6058 49.56 25.6898 49.204 25.6898 48.796C25.6898 48.38 25.6058 48.024 25.4378 47.728C25.2698 47.424 25.0418 47.192 24.7538 47.032C24.4738 46.872 24.1538 46.792 23.7938 46.792C23.4338 46.792 23.1098 46.872 22.8218 47.032C22.5338 47.192 22.3058 47.424 22.1378 47.728C21.9698 48.024 21.8858 48.38 21.8858 48.796C21.8858 49.204 21.9698 49.56 22.1378 49.864C22.3058 50.168 22.5338 50.4 22.8218 50.56C23.1098 50.72 23.4338 50.8 23.7938 50.8Z" fill="white"/>
<defs>
<clipPath id="clip0_4492_588">
<rect width="55.9896" height="55.9896" fill="white"/>
</clipPath>
</defs>
</svg>
