<svg width="12" height="6" viewBox="0 0 12 6" fill="none" xmlns="http://www.w3.org/2000/svg">
<g id="Vector">
<mask id="path-1-inside-1_1579_1212" fill="white">
<path d="M0 0L6 6L9 3L12 0"/>
</mask>
<path d="M0.707107 -0.707107C0.316583 -1.09763 -0.316582 -1.09763 -0.707107 -0.707107C-1.09763 -0.316583 -1.09763 0.316582 -0.707107 0.707107L0.707107 -0.707107ZM6 6L5.29289 6.70711C5.48043 6.89464 5.73478 7 6 7C6.26522 7 6.51957 6.89464 6.70711 6.70711L6 6ZM12.7071 0.707107C13.0976 0.316582 13.0976 -0.316583 12.7071 -0.707107C12.3166 -1.09763 11.6834 -1.09763 11.2929 -0.707107L12.7071 0.707107ZM-0.707107 0.707107L5.29289 6.70711L6.70711 5.29289L0.707107 -0.707107L-0.707107 0.707107ZM6.70711 6.70711L9.70711 3.70711L8.29289 2.29289L5.29289 5.29289L6.70711 6.70711ZM9.70711 3.70711L12.7071 0.707107L11.2929 -0.707107L8.29289 2.29289L9.70711 3.70711Z" fill="white" mask="url(#path-1-inside-1_1579_1212)"/>
</g>
</svg>
