<svg width="13" height="10" viewBox="0 0 13 10" fill="none" xmlns="http://www.w3.org/2000/svg">
<mask id="path-1-inside-1_4814_376" fill="white">
<path d="M8 10L13 5L10.5 2.5L8 2.38419e-07"/>
</mask>
<path d="M6.93934 8.93934C6.35355 9.52513 6.35355 10.4749 6.93934 11.0607C7.52513 11.6464 8.47487 11.6464 9.06066 11.0607L6.93934 8.93934ZM13 5L14.0607 6.06066C14.342 5.77936 14.5 5.39782 14.5 5C14.5 4.60218 14.342 4.22064 14.0607 3.93934L13 5ZM9.06066 -1.06066C8.47487 -1.64645 7.52513 -1.64645 6.93934 -1.06066C6.35355 -0.474873 6.35355 0.474874 6.93934 1.06066L9.06066 -1.06066ZM9.06066 11.0607L14.0607 6.06066L11.9393 3.93934L6.93934 8.93934L9.06066 11.0607ZM14.0607 3.93934L11.5607 1.43934L9.43934 3.56066L11.9393 6.06066L14.0607 3.93934ZM11.5607 1.43934L9.06066 -1.06066L6.93934 1.06066L9.43934 3.56066L11.5607 1.43934Z" fill="white" mask="url(#path-1-inside-1_4814_376)"/>
<path d="M0 5H11.3333" stroke="white" stroke-width="1.5"/>
</svg>
