<svg width="6" height="12" viewBox="0 0 6 12" fill="none" xmlns="http://www.w3.org/2000/svg">
<g id="Vector">
<mask id="path-1-inside-1_2406_2641" fill="white">
<path d="M0 12L6 6L3 3L-5.24537e-07 0"/>
</mask>
<path d="M-1.41421 10.5858C-2.19526 11.3668 -2.19526 12.6332 -1.41421 13.4142C-0.633165 14.1953 0.633165 14.1953 1.41421 13.4142L-1.41421 10.5858ZM6 6L7.41421 7.41421C7.78929 7.03914 8 6.53043 8 6C8 5.46957 7.78929 4.96086 7.41421 4.58579L6 6ZM1.41421 -1.41421C0.633164 -2.19526 -0.633166 -2.19526 -1.41421 -1.41421C-2.19526 -0.633165 -2.19526 0.633165 -1.41421 1.41421L1.41421 -1.41421ZM1.41421 13.4142L7.41421 7.41421L4.58579 4.58579L-1.41421 10.5858L1.41421 13.4142ZM7.41421 4.58579L4.41421 1.58579L1.58579 4.41421L4.58579 7.41421L7.41421 4.58579ZM4.41421 1.58579L1.41421 -1.41421L-1.41421 1.41421L1.58579 4.41421L4.41421 1.58579Z" fill="white" mask="url(#path-1-inside-1_2406_2641)"/>
</g>
</svg>
