<svg width="20" height="20" viewBox="0 0 20 20" fill="none" xmlns="http://www.w3.org/2000/svg">
<mask id="mask0_2953_3527" style="mask-type:alpha" maskUnits="userSpaceOnUse" x="0" y="0" width="20" height="20">
<rect width="20" height="20" fill="#D9D9D9"/>
</mask>
<g mask="url(#mask0_2953_3527)">
<path d="M17.4596 18.6471L15.0013 16.1888V18.043H13.3346V13.3346H18.043V15.0013H16.168L18.6263 17.4596L17.4596 18.6471ZM10.0013 18.3346C8.84852 18.3346 7.76519 18.1159 6.7513 17.6784C5.73741 17.2409 4.85547 16.6471 4.10547 15.8971C3.35547 15.1471 2.76172 14.2652 2.32422 13.2513C1.88672 12.2374 1.66797 11.1541 1.66797 10.0013C1.66797 8.84852 1.88672 7.76519 2.32422 6.7513C2.76172 5.73741 3.35547 4.85547 4.10547 4.10547C4.85547 3.35547 5.73741 2.76172 6.7513 2.32422C7.76519 1.88672 8.84852 1.66797 10.0013 1.66797C11.1541 1.66797 12.2374 1.88672 13.2513 2.32422C14.2652 2.76172 15.1471 3.35547 15.8971 4.10547C16.6471 4.85547 17.2409 5.73741 17.6784 6.7513C18.1159 7.76519 18.3346 8.84852 18.3346 10.0013C18.3346 10.2791 18.3207 10.5569 18.293 10.8346C18.2652 11.1124 18.2235 11.3902 18.168 11.668H16.4596C16.5291 11.3902 16.5812 11.1124 16.6159 10.8346C16.6506 10.5569 16.668 10.2791 16.668 10.0013C16.668 9.72352 16.6506 9.44575 16.6159 9.16797C16.5812 8.89019 16.5291 8.61241 16.4596 8.33464H13.6263C13.668 8.61241 13.6992 8.89019 13.7201 9.16797C13.7409 9.44575 13.7513 9.72352 13.7513 10.0013C13.7513 10.2791 13.7409 10.5569 13.7201 10.8346C13.6992 11.1124 13.668 11.3902 13.6263 11.668H11.9596C12.0013 11.3902 12.0326 11.1124 12.0534 10.8346C12.0742 10.5569 12.0846 10.2791 12.0846 10.0013C12.0846 9.72352 12.0742 9.44575 12.0534 9.16797C12.0326 8.89019 12.0013 8.61241 11.9596 8.33464H8.04297C8.0013 8.61241 7.97005 8.89019 7.94922 9.16797C7.92839 9.44575 7.91797 9.72352 7.91797 10.0013C7.91797 10.2791 7.92839 10.5569 7.94922 10.8346C7.97005 11.1124 8.0013 11.3902 8.04297 11.668H10.8346V13.3346H8.41797C8.58464 13.9319 8.79991 14.5048 9.0638 15.0534C9.32769 15.602 9.64019 16.1263 10.0013 16.6263C10.2791 16.6263 10.5569 16.6089 10.8346 16.5742C11.1124 16.5395 11.3902 16.5082 11.668 16.4805V18.1888C11.3902 18.2166 11.1124 18.2478 10.8346 18.2826C10.5569 18.3173 10.2791 18.3346 10.0013 18.3346ZM3.54297 11.668H6.3763C6.33464 11.3902 6.30339 11.1124 6.28255 10.8346C6.26172 10.5569 6.2513 10.2791 6.2513 10.0013C6.2513 9.72352 6.26172 9.44575 6.28255 9.16797C6.30339 8.89019 6.33464 8.61241 6.3763 8.33464H3.54297C3.47352 8.61241 3.42144 8.89019 3.38672 9.16797C3.352 9.44575 3.33464 9.72352 3.33464 10.0013C3.33464 10.2791 3.352 10.5569 3.38672 10.8346C3.42144 11.1124 3.47352 11.3902 3.54297 11.668ZM4.2513 6.66797H6.70964C6.83464 6.15408 6.99089 5.65061 7.17839 5.15755C7.36589 4.6645 7.58464 4.18186 7.83464 3.70964C7.07075 3.95964 6.38325 4.33811 5.77214 4.84505C5.16102 5.352 4.65408 5.95964 4.2513 6.66797ZM7.83464 16.293C7.58464 15.8207 7.36589 15.3381 7.17839 14.8451C6.99089 14.352 6.83464 13.8485 6.70964 13.3346H4.2513C4.65408 14.043 5.16102 14.6506 5.77214 15.1576C6.38325 15.6645 7.07075 16.043 7.83464 16.293ZM8.41797 6.66797H11.5846C11.418 6.07075 11.2027 5.49783 10.9388 4.94922C10.6749 4.40061 10.3624 3.8763 10.0013 3.3763C9.64019 3.8763 9.32769 4.40061 9.0638 4.94922C8.79991 5.49783 8.58464 6.07075 8.41797 6.66797ZM13.293 6.66797H15.7513C15.3485 5.95964 14.8416 5.352 14.2305 4.84505C13.6194 4.33811 12.9319 3.95964 12.168 3.70964C12.418 4.18186 12.6367 4.6645 12.8242 5.15755C13.0117 5.65061 13.168 6.15408 13.293 6.66797Z" fill="url(#paint0_linear_2953_3527)"/>
</g>
<defs>
<linearGradient id="paint0_linear_2953_3527" x1="-3.03723" y1="-17.9352" x2="17.8445" y2="-15.0575" gradientUnits="userSpaceOnUse">
<stop stop-color="#0085FF"/>
<stop offset="1" stop-color="#3633D0"/>
</linearGradient>
</defs>
</svg>
