<svg width="20" height="20" viewBox="0 0 20 20" fill="none" xmlns="http://www.w3.org/2000/svg">
<g id="pace">
<mask id="mask0_2514_1689" style="mask-type:alpha" maskUnits="userSpaceOnUse" x="0" y="0" width="20" height="20">
<rect id="Bounding box" width="20" height="20" fill="#D9D9D9"/>
</mask>
<g mask="url(#mask0_2514_1689)">
<path id="pace_2" d="M10.3333 18.6667C9.18056 18.6667 8.09722 18.4479 7.08333 18.0104C6.06944 17.5729 5.1875 16.9792 4.4375 16.2292C3.6875 15.4792 3.09375 14.5972 2.65625 13.5833C2.21875 12.5694 2 11.4861 2 10.3333C2 9.18056 2.21875 8.09722 2.65625 7.08333C3.09375 6.06944 3.6875 5.1875 4.4375 4.4375C5.1875 3.6875 6.06944 3.09375 7.08333 2.65625C8.09722 2.21875 9.18056 2 10.3333 2C11.4861 2 12.5694 2.21875 13.5833 2.65625C14.5972 3.09375 15.4792 3.6875 16.2292 4.4375C16.9792 5.1875 17.5729 6.06944 18.0104 7.08333C18.4479 8.09722 18.6667 9.18056 18.6667 10.3333C18.6667 10.7083 18.6458 11.0764 18.6042 11.4375C18.5625 11.7986 18.4931 12.1528 18.3958 12.5C18.2014 12.2778 17.9757 12.0903 17.7188 11.9375C17.4618 11.7847 17.1806 11.6806 16.875 11.625C16.9167 11.4167 16.9479 11.2049 16.9687 10.9896C16.9896 10.7743 17 10.5556 17 10.3333C17 8.47222 16.3542 6.89583 15.0625 5.60417C13.7708 4.3125 12.1944 3.66667 10.3333 3.66667C8.47222 3.66667 6.89583 4.3125 5.60417 5.60417C4.3125 6.89583 3.66667 8.47222 3.66667 10.3333C3.66667 12.1944 4.3125 13.7708 5.60417 15.0625C6.89583 16.3542 8.47222 17 10.3333 17C11.0417 17 11.7188 16.8958 12.3646 16.6875C13.0104 16.4792 13.6042 16.1875 14.1458 15.8125C14.3125 16.0486 14.5174 16.2569 14.7604 16.4375C15.0035 16.6181 15.2639 16.7569 15.5417 16.8542C14.8333 17.4236 14.0382 17.8681 13.1562 18.1875C12.2743 18.5069 11.3333 18.6667 10.3333 18.6667ZM16.375 15.3333C16.0833 15.3333 15.8368 15.2326 15.6354 15.0312C15.434 14.8299 15.3333 14.5833 15.3333 14.2917C15.3333 14 15.434 13.7535 15.6354 13.5521C15.8368 13.3507 16.0833 13.25 16.375 13.25C16.6667 13.25 16.9132 13.3507 17.1146 13.5521C17.316 13.7535 17.4167 14 17.4167 14.2917C17.4167 14.5833 17.316 14.8299 17.1146 15.0312C16.9132 15.2326 16.6667 15.3333 16.375 15.3333ZM13.0833 14.25L9.5 10.6667V6.16667H11.1667V10L14.25 13.0833L13.0833 14.25Z" fill="#60D34C"/>
</g>
</g>
</svg>
