<svg width="236" height="28" viewBox="0 0 236 28" fill="none" xmlns="http://www.w3.org/2000/svg">
<g id="Frame" clip-path="url(#clip0_1583_40)">
<path id="Vector" d="M13.7959 28.0008C10.0999 28.0008 6.9079 26.6928 4.2199 24.0768C1.6039 21.3888 0.295898 18.1968 0.295898 14.5008C0.295898 10.7808 1.6039 7.57685 4.2199 4.88885C6.9079 2.27285 10.0999 0.964844 13.7959 0.964844C17.1799 0.964844 20.1559 2.08085 22.7239 4.31285C22.6039 4.43285 22.4359 4.60085 22.2199 4.81685C22.0039 5.03285 21.7999 5.24885 21.6079 5.46485C21.4159 5.68085 21.2359 5.87285 21.0679 6.04085C20.9239 6.18485 20.8519 6.25685 20.8519 6.25685C19.8439 5.41685 18.7519 4.76885 17.5759 4.31285C16.4239 3.83285 15.1639 3.59285 13.7959 3.59285C12.2839 3.59285 10.9039 3.86885 9.6559 4.42085C8.4079 4.94885 7.2439 5.75285 6.1639 6.83285C4.0279 9.01685 2.9599 11.5728 2.9599 14.5008C2.9599 17.4048 4.0279 19.9488 6.1639 22.1328C8.3719 24.2928 10.9159 25.3728 13.7959 25.3728C16.3399 25.3728 18.5839 24.5448 20.5279 22.8888C20.9359 23.2488 21.2959 23.5728 21.6079 23.8608C21.8719 24.1248 22.1119 24.3648 22.3279 24.5808C22.5439 24.7728 22.6519 24.8568 22.6519 24.8328C20.0599 26.9448 17.1079 28.0008 13.7959 28.0008ZM38.5467 28.0008C36.6987 28.0008 34.9467 27.6408 33.2907 26.9208C31.6587 26.2008 30.2307 25.2288 29.0067 24.0048C27.7827 22.7808 26.8107 21.3528 26.0907 19.7208C25.3707 18.0648 25.0107 16.3128 25.0107 14.4648C25.0107 12.5928 25.3587 10.8408 26.0547 9.20885C26.7747 7.57685 27.7467 6.14885 28.9707 4.92485C30.1947 3.70085 31.6227 2.74085 33.2547 2.04485C34.9107 1.32485 36.6747 0.964844 38.5467 0.964844C40.4187 0.964844 42.1707 1.32485 43.8027 2.04485C45.4587 2.74085 46.8987 3.70085 48.1227 4.92485C49.3467 6.14885 50.3067 7.57685 51.0027 9.20885C51.7227 10.8408 52.0827 12.5928 52.0827 14.4648C52.0827 16.3368 51.7227 18.1008 51.0027 19.7568C50.3067 21.3888 49.3467 22.8168 48.1227 24.0408C46.8987 25.2648 45.4587 26.2368 43.8027 26.9568C42.1707 27.6528 40.4187 28.0008 38.5467 28.0008ZM38.5467 3.59285C37.0827 3.59285 35.6907 3.88085 34.3707 4.45685C33.0507 5.03285 31.8987 5.82485 30.9147 6.83285C29.9307 7.81685 29.1387 8.96885 28.5387 10.2888C27.9627 11.6088 27.6747 13.0008 27.6747 14.4648C27.6747 15.9288 27.9627 17.3208 28.5387 18.6408C29.1387 19.9608 29.9307 21.1248 30.9147 22.1328C31.8987 23.1168 33.0507 23.9088 34.3707 24.5088C35.6907 25.0848 37.0827 25.3728 38.5467 25.3728C40.0107 25.3728 41.4027 25.0848 42.7227 24.5088C44.0427 23.9088 45.1947 23.1168 46.1787 22.1328C47.1627 21.1248 47.9427 19.9608 48.5187 18.6408C49.1187 17.3208 49.4187 15.9288 49.4187 14.4648C49.4187 13.0008 49.1187 11.6088 48.5187 10.2888C47.9427 8.96885 47.1627 7.81685 46.1787 6.83285C45.1947 5.82485 44.0427 5.03285 42.7227 4.45685C41.4027 3.88085 40.0107 3.59285 38.5467 3.59285ZM58.1853 28.0008V0.964844L77.9133 21.4488V4.56485L80.5773 0.964844V28.0008L60.8493 7.51685V24.4368L58.1853 28.0008ZM89.7241 28.0008V0.964844H102.036V3.59285H92.3881V28.0008H89.7241ZM128.82 8.30885C128.82 9.19685 128.724 9.98885 128.532 10.6848C128.34 11.3568 128.088 11.9568 127.776 12.4848C127.464 12.9888 127.104 13.4328 126.696 13.8168C126.288 14.1768 125.88 14.4768 125.472 14.7168C124.512 15.3168 123.408 15.6888 122.16 15.8328L128.712 28.0008H125.688L119.172 15.8328H107.58V13.2048H121.692C122.076 13.2048 122.52 13.1208 123.024 12.9528C123.552 12.7608 124.044 12.4728 124.5 12.0888C124.98 11.7048 125.376 11.2008 125.688 10.5768C126.024 9.95285 126.192 9.20885 126.192 8.34485C126.192 7.45685 126.048 6.71285 125.76 6.11285C125.472 5.51285 125.112 5.03285 124.68 4.67285C124.248 4.28885 123.768 4.01285 123.24 3.84485C122.712 3.67685 122.196 3.59285 121.692 3.59285H107.58V0.964844H122.16C123.408 1.01285 124.512 1.30085 125.472 1.82885C125.88 2.04485 126.288 2.33285 126.696 2.69285C127.104 3.05285 127.464 3.49685 127.776 4.02485C128.088 4.52885 128.34 5.14085 128.532 5.86085C128.724 6.55685 128.82 7.37285 128.82 8.30885ZM147.098 1.00084L160.13 28.0008H157.214L147.098 7.30085L136.982 28.0008H134.066L147.098 1.00084ZM175.339 28.0008C171.643 28.0008 168.451 26.6928 165.763 24.0768C163.147 21.3888 161.839 18.1968 161.839 14.5008C161.839 10.7808 163.147 7.57685 165.763 4.88885C168.451 2.27285 171.643 0.964844 175.339 0.964844C178.723 0.964844 181.699 2.08085 184.267 4.31285C184.147 4.43285 183.979 4.60085 183.763 4.81685C183.547 5.03285 183.343 5.24885 183.151 5.46485C182.959 5.68085 182.779 5.87285 182.611 6.04085C182.467 6.18485 182.395 6.25685 182.395 6.25685C181.387 5.41685 180.295 4.76885 179.119 4.31285C177.967 3.83285 176.707 3.59285 175.339 3.59285C173.827 3.59285 172.447 3.86885 171.199 4.42085C169.951 4.94885 168.787 5.75285 167.707 6.83285C165.571 9.01685 164.503 11.5728 164.503 14.5008C164.503 17.4048 165.571 19.9488 167.707 22.1328C169.915 24.2928 172.459 25.3728 175.339 25.3728C177.883 25.3728 180.127 24.5448 182.071 22.8888C182.479 23.2488 182.839 23.5728 183.151 23.8608C183.415 24.1248 183.655 24.3648 183.871 24.5808C184.087 24.7728 184.195 24.8568 184.195 24.8328C181.603 26.9448 178.651 28.0008 175.339 28.0008ZM193.189 28.0008V0.964844H205.501V3.59285H195.853V28.0008H193.189ZM211.045 0.964844H213.709V28.0008H211.045V0.964844ZM227.181 28.0008C225.957 28.0008 224.781 27.8208 223.653 27.4608C222.525 27.1008 221.373 26.5008 220.197 25.6608L222.069 23.7528C222.981 24.3528 223.869 24.7728 224.733 25.0128C225.621 25.2528 226.497 25.3728 227.361 25.3728C228.033 25.3728 228.717 25.2528 229.413 25.0128C230.109 24.7488 230.733 24.3888 231.285 23.9328C231.837 23.4528 232.293 22.8768 232.653 22.2048C233.013 21.5088 233.193 20.7288 233.193 19.8648C233.193 18.8088 232.869 18.0168 232.221 17.4888C231.573 16.9368 230.757 16.5048 229.773 16.1928C228.789 15.8568 227.721 15.5568 226.569 15.2928C225.441 15.0288 224.385 14.6448 223.401 14.1408C222.417 13.6128 221.601 12.8928 220.953 11.9808C220.305 11.0448 219.981 9.77285 219.981 8.16485C219.981 6.91685 220.233 5.84885 220.737 4.96085C221.265 4.04885 221.937 3.30485 222.753 2.72885C223.569 2.12885 224.493 1.68485 225.525 1.39685C226.557 1.10885 227.601 0.964844 228.657 0.964844C229.833 0.964844 230.985 1.14485 232.113 1.50485C233.265 1.84085 234.441 2.42885 235.641 3.26885L233.733 5.17685C232.869 4.57685 231.993 4.16885 231.105 3.95285C230.241 3.71285 229.365 3.59285 228.477 3.59285C227.781 3.59285 227.085 3.67685 226.389 3.84485C225.717 3.98885 225.093 4.24085 224.517 4.60085C223.965 4.93685 223.509 5.40485 223.149 6.00485C222.813 6.58085 222.645 7.30085 222.645 8.16485C222.645 9.22085 222.969 10.0368 223.617 10.6128C224.265 11.1648 225.081 11.6208 226.065 11.9808C227.049 12.3408 228.105 12.6648 229.233 12.9528C230.385 13.2408 231.453 13.6488 232.437 14.1768C233.421 14.6808 234.237 15.3768 234.885 16.2648C235.533 17.1288 235.857 18.3288 235.857 19.8648C235.857 21.1608 235.641 22.3128 235.209 23.3208C234.777 24.3288 234.177 25.1808 233.409 25.8768C232.641 26.5728 231.717 27.1008 230.637 27.4608C229.581 27.8208 228.429 28.0008 227.181 28.0008Z" fill="white"/>
</g>
<defs>
<clipPath id="clip0_1583_40">
<rect width="236" height="28" fill="white"/>
</clipPath>
</defs>
</svg>
