<svg width="18" height="20" viewBox="0 0 18 20" fill="none" xmlns="http://www.w3.org/2000/svg">
<mask id="mask0_4147_4573" style="mask-type:alpha" maskUnits="userSpaceOnUse" x="0" y="0" width="18" height="20">
<rect x="0.5" y="0.5" width="17" height="19" fill="#D9D9D9" stroke="#30363D"/>
</mask>
<g mask="url(#mask0_4147_4573)">
<path d="M1.32083 14.7043V14.7344L1.34216 14.7132L2.7135 13.3466H14.1539C14.286 13.3466 14.4065 13.2915 14.5153 13.1827C14.624 13.074 14.6792 12.9534 14.6792 12.8213V6.96262C14.835 6.92567 14.9787 6.88329 15.11 6.83547C15.2379 6.78895 15.3637 6.72955 15.4875 6.65729V12.8213C15.4875 13.2018 15.3602 13.5188 15.1057 13.7732C14.8513 14.0277 14.5343 14.155 14.1539 14.155H3.0641V14.1498L3.05527 14.1586L0.5125 16.7014V3.84696C0.5125 3.46653 0.639796 3.14953 0.894256 2.89507C1.14872 2.64061 1.46572 2.51331 1.84615 2.51331H10.1508C10.1187 2.64761 10.1001 2.7795 10.0949 2.90896C10.0897 3.03898 10.088 3.17655 10.0899 3.32165H1.84615C1.71405 3.32165 1.59349 3.37683 1.48475 3.48556C1.41835 3.55196 1.37192 3.62277 1.34583 3.69792V3.33415H1.33333H1.32083V3.84696V14.488V14.7043ZM9.2375 10.43V11.2383H3.42917V10.43H9.2375ZM12.5708 8.73831H3.42917V7.92998H12.5708V8.73831ZM11.6873 6.23831H3.42917V5.42998H10.7499C10.8734 5.60692 11.0104 5.76109 11.1608 5.89244C11.3107 6.02322 11.4862 6.13849 11.6873 6.23831ZM13.8333 5.37292C13.2597 5.37292 12.7714 5.17124 12.3678 4.76762C11.9642 4.36399 11.7625 3.87572 11.7625 3.30208C11.7625 2.72846 11.9642 2.2402 12.3678 1.83657C12.7714 1.43294 13.2597 1.23125 13.8333 1.23125C14.407 1.23125 14.8952 1.43294 15.2988 1.83657C15.7025 2.2402 15.9042 2.72846 15.9042 3.30208C15.9042 3.87572 15.7025 4.36399 15.2988 4.76762C14.8952 5.17124 14.407 5.37292 13.8333 5.37292Z" fill="white" stroke="#30363D" stroke-width="0.025"/>
</g>
</svg>
