<svg width="26" height="26" viewBox="0 0 26 26" fill="none" xmlns="http://www.w3.org/2000/svg">
<rect x="21" width="5" height="5" rx="2.5" fill="url(#paint0_linear_5587_2421)"/>
<path d="M19.1406 13.3475C18.2812 12.3439 17.8907 11.4742 17.8907 9.99665V9.49427C17.8907 7.56887 17.4475 6.32831 16.4841 5.08776C14.9991 3.16117 12.4993 2 10.052 2H9.94797C7.55218 2 5.13066 3.10785 3.61999 4.95624C2.60392 6.22167 2.10932 7.51555 2.10932 9.49427V9.99665C2.10932 11.4742 1.74452 12.3439 0.859398 13.3475C0.208126 14.0868 0 15.0371 0 16.0655C0 17.0952 0.337913 18.0703 1.01608 18.863C1.9012 19.8133 3.15113 20.4199 4.42795 20.5254C6.27653 20.7363 8.12511 20.8157 10.0006 20.8157C11.8749 20.8157 13.7235 20.683 15.5732 20.5254C16.8489 20.4199 18.0988 19.8133 18.9839 18.863C19.6609 18.0703 20 17.0952 20 16.0655C20 15.0371 19.7919 14.0868 19.1406 13.3475Z" fill="url(#paint1_linear_5587_2421)"/>
<path d="M12.3651 22.27C11.777 22.1444 8.1932 22.1444 7.60507 22.27C7.10229 22.3861 6.55859 22.6562 6.55859 23.2487C6.58782 23.8139 6.91872 24.3127 7.37707 24.629L7.3759 24.6302C7.96871 25.0923 8.66441 25.3862 9.39285 25.4916C9.78104 25.5449 10.1762 25.5426 10.5785 25.4916C11.3057 25.3862 12.0014 25.0923 12.5943 24.6302L12.5931 24.629C13.0514 24.3127 13.3823 23.8139 13.4116 23.2487C13.4116 22.6562 12.8679 22.3861 12.3651 22.27Z" fill="url(#paint2_linear_5587_2421)"/>
<defs>
<linearGradient id="paint0_linear_5587_2421" x1="19.6127" y1="-5.77273" x2="25.7692" y2="-4.92326" gradientUnits="userSpaceOnUse">
<stop stop-color="#0085FF"/>
<stop offset="1" stop-color="#211CF2"/>
</linearGradient>
<linearGradient id="paint1_linear_5587_2421" x1="-5.54913" y1="-19.7235" x2="19.0173" y2="-16.1205" gradientUnits="userSpaceOnUse">
<stop stop-color="#0085FF"/>
<stop offset="1" stop-color="#3633D0"/>
</linearGradient>
<linearGradient id="paint2_linear_5587_2421" x1="4.65719" y1="18.3023" x2="12.6231" y2="20.5475" gradientUnits="userSpaceOnUse">
<stop stop-color="#0085FF"/>
<stop offset="1" stop-color="#211CF2"/>
</linearGradient>
</defs>
</svg>
