<svg width="18" height="20" viewBox="0 0 18 20" fill="none" xmlns="http://www.w3.org/2000/svg">
<mask id="mask0_4147_4635" style="mask-type:alpha" maskUnits="userSpaceOnUse" x="0" y="0" width="18" height="20">
<rect x="0.5" y="0.5" width="17" height="19" fill="#D9D9D9" stroke="#30363D"/>
</mask>
<g mask="url(#mask0_4147_4635)">
<path d="M0.984896 14.6806V14.6931H0.997396H10.9974H11.0099V14.6806V14.1421C11.0099 13.9444 10.9604 13.771 10.8612 13.6224C10.7617 13.4735 10.5842 13.3324 10.3301 13.1984C9.70748 12.8657 9.05112 12.6108 8.36109 12.4337C7.67075 12.2566 6.88281 12.1681 5.9974 12.1681C5.11198 12.1681 4.32404 12.2566 3.63371 12.4337C2.94367 12.6108 2.28731 12.8657 1.66465 13.1984C1.41063 13.3324 1.23305 13.4735 1.13363 13.6224C1.03435 13.771 0.984896 13.9444 0.984896 14.1421V14.6806ZM0.176563 15.5014V14.1421C0.176563 13.7577 0.276091 13.4278 0.474687 13.1519C0.67368 12.8754 0.9412 12.6542 1.2776 12.4885C1.99982 12.1447 2.71686 11.8706 3.42872 11.6662C4.1399 11.462 4.99604 11.3598 5.9974 11.3598C6.99875 11.3598 7.8549 11.462 8.56607 11.6662C9.27793 11.8706 9.99497 12.1447 10.7172 12.4885C11.0536 12.6542 11.3211 12.8754 11.5201 13.1519C11.7187 13.4278 11.8182 13.7577 11.8182 14.1421V15.5014H0.176563ZM13.5099 15.5014V14.1037C13.5099 13.619 13.4118 13.1614 13.2156 12.731C13.0259 12.3151 12.7597 11.9562 12.4168 11.6545C12.8085 11.7368 13.1865 11.8491 13.5505 11.9911C13.9295 12.1389 14.3041 12.3052 14.6745 12.4899C15.0341 12.6707 15.3156 12.9019 15.5193 13.1833C15.723 13.4645 15.8246 13.7712 15.8246 14.1037V15.5014H13.5099ZM5.9974 9.4758C5.31324 9.4758 4.72787 9.23235 4.24061 8.74509C3.75335 8.25783 3.5099 7.67246 3.5099 6.9883C3.5099 6.30413 3.75335 5.71875 4.24061 5.2315C4.72787 4.74424 5.31324 4.50078 5.9974 4.50078C6.68155 4.50078 7.26693 4.74424 7.75418 5.2315C8.24144 5.71875 8.4849 6.30413 8.4849 6.9883C8.4849 7.67246 8.24144 8.25783 7.75418 8.74509C7.26693 9.23235 6.68155 9.4758 5.9974 9.4758ZM12.0426 6.9883C12.0426 7.67246 11.7991 8.25783 11.3119 8.74509C10.8246 9.23235 10.2393 9.4758 9.55511 9.4758C9.52069 9.4758 9.47648 9.47188 9.4223 9.46391C9.37741 9.45731 9.33929 9.45019 9.30786 9.44259C9.58505 9.09968 9.79858 8.71991 9.94843 8.30335C10.1005 7.88058 10.1766 7.44154 10.1766 6.9863C10.1766 6.531 10.097 6.09585 9.93775 5.68093C9.78071 5.27167 9.57016 4.88902 9.30612 4.53303C9.34474 4.52041 9.38331 4.51205 9.42181 4.50792C9.46625 4.50316 9.51068 4.50078 9.55511 4.50078C10.2393 4.50078 10.8246 4.74424 11.3119 5.2315C11.7991 5.71875 12.0426 6.30413 12.0426 6.9883ZM5.9974 8.66747C6.45907 8.66747 6.8546 8.50294 7.18332 8.17422C7.51203 7.84551 7.67656 7.44998 7.67656 6.9883C7.67656 6.52663 7.51203 6.13109 7.18332 5.80238C6.8546 5.47367 6.45907 5.30914 5.9974 5.30914C5.53572 5.30914 5.14019 5.47367 4.81147 5.80238C4.48276 6.13109 4.31823 6.52663 4.31823 6.9883C4.31823 7.44998 4.48276 7.84551 4.81147 8.17422C5.14019 8.50294 5.53572 8.66747 5.9974 8.66747Z" fill="white" stroke="#30363D" stroke-width="0.025"/>
</g>
</svg>
