<svg width="21" height="20" viewBox="0 0 21 20" fill="none" xmlns="http://www.w3.org/2000/svg">
<path d="M2.14813 20C1.57281 20 1.09245 19.8073 0.707031 19.4219C0.321615 19.0365 0.128906 18.5561 0.128906 17.9808V13.75H1.37891V17.9808C1.37891 18.1731 1.45903 18.3494 1.61928 18.5096C1.77955 18.6699 1.95583 18.75 2.14813 18.75H6.37891V20H2.14813ZM18.1097 20H13.8789V18.75H18.1097C18.302 18.75 18.4783 18.6699 18.6385 18.5096C18.7988 18.3494 18.8789 18.1731 18.8789 17.9808V13.75H20.1289V17.9808C20.1289 18.5561 19.9362 19.0365 19.5508 19.4219C19.1654 19.8073 18.685 20 18.1097 20ZM0.128906 2.01922C0.128906 1.44391 0.321615 0.963542 0.707031 0.578125C1.09245 0.192708 1.57281 0 2.14813 0H6.37891V1.25H2.14813C1.95583 1.25 1.77955 1.33013 1.61928 1.49038C1.45903 1.65065 1.37891 1.82693 1.37891 2.01922V6.25H0.128906V2.01922ZM20.1289 2.01922V6.25H18.8789V2.01922C18.8789 1.82693 18.7988 1.65065 18.6385 1.49038C18.4783 1.33013 18.302 1.25 18.1097 1.25H13.8789V0H18.1097C18.685 0 19.1654 0.192708 19.5508 0.578125C19.9362 0.963542 20.1289 1.44391 20.1289 2.01922ZM10.177 16.5144C10.4542 16.5144 10.6878 16.4195 10.8777 16.2296C11.0676 16.0397 11.1626 15.8061 11.1626 15.5288C11.1626 15.2516 11.0676 15.018 10.8777 14.8281C10.6878 14.6382 10.4542 14.5433 10.177 14.5433C9.89974 14.5433 9.66617 14.6382 9.47625 14.8281C9.28635 15.018 9.19141 15.2516 9.19141 15.5288C9.19141 15.8061 9.28635 16.0397 9.47625 16.2296C9.66617 16.4195 9.89974 16.5144 10.177 16.5144ZM9.53275 12.3822H10.7323C10.7643 11.8502 10.8677 11.4127 11.0424 11.0697C11.217 10.7268 11.5536 10.3061 12.052 9.80769C12.685 9.17467 13.1213 8.64222 13.3609 8.21034C13.6005 7.77845 13.7202 7.29807 13.7202 6.76922C13.7202 5.80449 13.3941 5.01603 12.7419 4.40384C12.0896 3.79166 11.2507 3.48556 10.2251 3.48556C9.40775 3.48556 8.68419 3.69229 8.05437 4.10575C7.42456 4.51923 6.93498 5.11378 6.58562 5.88941L7.73469 6.37259C7.96065 5.84695 8.28877 5.42828 8.71906 5.11659C9.14933 4.80489 9.6353 4.64903 10.177 4.64903C10.8613 4.64903 11.4218 4.84655 11.8585 5.24159C12.2952 5.63662 12.5135 6.15304 12.5135 6.79087C12.5135 7.17548 12.4186 7.53805 12.2287 7.87859C12.0388 8.21914 11.7122 8.59534 11.2491 9.00722C10.6257 9.59534 10.1838 10.1386 9.92338 10.637C9.66296 11.1354 9.53275 11.7172 9.53275 12.3822Z" fill="white"/>
</svg>
