<svg width="5" height="9" viewBox="0 0 5 9" fill="none" xmlns="http://www.w3.org/2000/svg">
<mask id="path-1-inside-1_5662_6901" fill="white">
<path d="M0.128906 9L4.12891 4.5L2.12891 2.25L0.128906 0"/>
</mask>
<path d="M-0.618503 8.33564C-0.985421 8.74842 -0.94824 9.38049 -0.535458 9.74741C-0.122675 10.1143 0.509398 10.0771 0.876316 9.66436L-0.618503 8.33564ZM4.12891 4.5L4.87632 5.16436C5.2131 4.78548 5.2131 4.21452 4.87632 3.83564L4.12891 4.5ZM0.876315 -0.664364C0.509397 -1.07715 -0.122675 -1.11433 -0.535458 -0.747409C-0.948241 -0.380491 -0.985421 0.251581 -0.618503 0.664364L0.876315 -0.664364ZM0.876316 9.66436L4.87632 5.16436L3.3815 3.83564L-0.618503 8.33564L0.876316 9.66436ZM4.87632 3.83564L2.87632 1.58564L1.3815 2.91436L3.3815 5.16436L4.87632 3.83564ZM2.87632 1.58564L0.876315 -0.664364L-0.618503 0.664364L1.3815 2.91436L2.87632 1.58564Z" fill="#E13347" mask="url(#path-1-inside-1_5662_6901)"/>
</svg>
