<svg width="18" height="21" viewBox="0 0 18 21" fill="none" xmlns="http://www.w3.org/2000/svg">
<path d="M13.7324 2.22622C13.588 2.18039 13.588 1.98625 13.7324 1.94042L14.5799 1.6717C14.7661 1.61255 14.9354 1.51289 15.0742 1.38063C15.213 1.24836 15.3176 1.08712 15.3796 0.909694L15.6618 0.103114C15.7099 -0.0343711 15.9138 -0.0343711 15.9619 0.103114L16.2441 0.910111C16.3062 1.08751 16.4109 1.24869 16.5498 1.38088C16.6887 1.51308 16.858 1.61264 17.0443 1.6717L17.8913 1.94042C17.9229 1.9503 17.9505 1.96943 17.97 1.99509C17.9895 2.02076 18 2.05163 18 2.08332C18 2.115 17.9895 2.14588 17.97 2.17154C17.9505 2.1972 17.9229 2.21634 17.8913 2.22622L17.0439 2.49494C16.8576 2.55405 16.6884 2.65364 16.5496 2.78583C16.4108 2.91802 16.3062 3.07917 16.2441 3.25653L15.9619 4.06352C15.9516 4.09363 15.9315 4.11984 15.9045 4.13843C15.8776 4.15702 15.8451 4.16702 15.8119 4.16702C15.7786 4.16702 15.7462 4.15702 15.7192 4.13843C15.6923 4.11984 15.6722 4.09363 15.6618 4.06352L15.3796 3.25653C15.3175 3.07917 15.213 2.91802 15.0741 2.78583C14.9353 2.65364 14.7661 2.55405 14.5799 2.49494L13.7324 2.22622ZM11.5016 3.83563C11.4827 3.82966 11.4662 3.81815 11.4545 3.80274C11.4428 3.78733 11.4365 3.76881 11.4365 3.74981C11.4365 3.7308 11.4428 3.71228 11.4545 3.69687C11.4662 3.68146 11.4827 3.66996 11.5016 3.66398L12.01 3.50275C12.2366 3.43067 12.4142 3.26153 12.4899 3.04572L12.6592 2.5616C12.6655 2.54356 12.6776 2.52786 12.6938 2.51673C12.7099 2.5056 12.7294 2.49961 12.7494 2.49961C12.7693 2.49961 12.7888 2.5056 12.8049 2.51673C12.8211 2.52786 12.8332 2.54356 12.8395 2.5616L13.0088 3.04572C13.046 3.15215 13.1088 3.24887 13.1921 3.3282C13.2754 3.40752 13.377 3.46729 13.4887 3.50275L13.9971 3.66398C14.0161 3.66996 14.0325 3.68146 14.0442 3.69687C14.0559 3.71228 14.0622 3.7308 14.0622 3.74981C14.0622 3.76881 14.0559 3.78733 14.0442 3.80274C14.0325 3.81815 14.0161 3.82966 13.9971 3.83563L13.4887 3.99686C13.377 4.03232 13.2754 4.09209 13.1921 4.17142C13.1088 4.25075 13.046 4.34746 13.0088 4.4539L12.8395 4.93801C12.8332 4.95605 12.8211 4.97175 12.8049 4.98288C12.7888 4.99401 12.7693 5 12.7494 5C12.7294 5 12.7099 4.99401 12.6938 4.98288C12.6776 4.97175 12.6655 4.95605 12.6592 4.93801L12.4899 4.4539C12.4527 4.34746 12.3899 4.25075 12.3066 4.17142C12.2233 4.09209 12.1217 4.03232 12.01 3.99686L11.5016 3.83563ZM11.0427 0.89053C11.0302 0.886417 11.0194 0.87871 11.0118 0.868481C11.0041 0.858252 11 0.846008 11 0.833453C11 0.820898 11.0041 0.808654 11.0118 0.798425C11.0194 0.788195 11.0302 0.780488 11.0427 0.776376L11.3813 0.668887C11.5327 0.620975 11.6512 0.508071 11.7015 0.36392L11.8144 0.0414548C11.8187 0.029592 11.8268 0.0193047 11.8376 0.0120248C11.8483 0.00474449 11.8612 0.000832518 11.8743 0.000832517C11.8875 0.000832517 11.9004 0.00474449 11.9111 0.0120248C11.9219 0.0193047 11.93 0.029592 11.9343 0.0414547L12.0472 0.36392C12.072 0.434959 12.1138 0.49951 12.1694 0.552448C12.225 0.605387 12.2928 0.645255 12.3674 0.668887L12.706 0.776376C12.7185 0.780488 12.7293 0.788195 12.7369 0.798425C12.7446 0.808654 12.7487 0.820897 12.7487 0.833453C12.7487 0.846008 12.7446 0.858252 12.7369 0.868481C12.7293 0.87871 12.7185 0.886417 12.706 0.89053L12.3674 0.998019C12.2928 1.02165 12.225 1.06152 12.1694 1.11446C12.1138 1.1674 12.072 1.23195 12.0472 1.30299L11.9343 1.62503C11.93 1.6369 11.9219 1.64718 11.9111 1.65446C11.9004 1.66174 11.8875 1.66566 11.8743 1.66566C11.8612 1.66566 11.8483 1.66174 11.8376 1.65446C11.8268 1.64718 11.8187 1.6369 11.8144 1.62503L11.7015 1.30257C11.6512 1.15842 11.5327 1.04551 11.3813 0.997602L11.0427 0.89053Z" fill="white" fill-opacity="0.8"/>
<path d="M17.7241 19.1932L13.6436 15.1127C14.626 13.8049 15.1563 12.213 15.1546 10.5773C15.1546 6.39919 11.7554 3 7.57728 3C3.39919 3 0 6.39919 0 10.5773C0 14.7554 3.39919 18.1546 7.57728 18.1546C9.21299 18.1563 10.8049 17.626 12.1127 16.6436L16.1932 20.7241C16.3998 20.9088 16.6692 21.0073 16.9461 20.9996C17.2231 20.9918 17.4865 20.8783 17.6824 20.6824C17.8783 20.4865 17.9918 20.2231 17.9996 19.9461C18.0073 19.6692 17.9088 19.3998 17.7241 19.1932ZM2.16494 10.5773C2.16494 9.50682 2.48237 8.4604 3.07708 7.57034C3.6718 6.68029 4.51709 5.98657 5.50607 5.57693C6.49504 5.16728 7.58328 5.0601 8.63317 5.26893C9.68307 5.47777 10.6475 5.99325 11.4044 6.75018C12.1613 7.5071 12.6768 8.47149 12.8856 9.52138C13.0945 10.5713 12.9873 11.6595 12.5776 12.6485C12.168 13.6375 11.4743 14.4828 10.5842 15.0775C9.69416 15.6722 8.64774 15.9896 7.57728 15.9896C6.14237 15.9879 4.76672 15.4171 3.75208 14.4025C2.73744 13.3878 2.16666 12.0122 2.16494 10.5773Z" fill="white" fill-opacity="0.8"/>
</svg>
