<svg width="24" height="24" viewBox="0 0 24 24" fill="none" xmlns="http://www.w3.org/2000/svg">
<path d="M12 15.3488C12.9302 15.3488 13.7209 15.0232 14.3721 14.3721C15.0233 13.7209 15.3489 12.9302 15.3489 12C15.3489 11.0698 15.0233 10.2791 14.3721 9.62789C13.7209 8.97673 12.9302 8.65114 12 8.65114C11.0698 8.65114 10.2791 8.97673 9.62792 9.62789C8.97675 10.2791 8.65117 11.0698 8.65117 12C8.65117 12.9302 8.97675 13.7209 9.62792 14.3721C10.2791 15.0232 11.0698 15.3488 12 15.3488ZM12 17.0232C10.6061 17.0232 9.42043 16.5345 8.44296 15.557C7.46551 14.5796 6.97678 13.3939 6.97678 12C6.97678 10.6061 7.46551 9.4204 8.44296 8.44293C9.42043 7.46548 10.6061 6.97675 12 6.97675C13.3939 6.97675 14.5796 7.46548 15.5571 8.44293C16.5345 9.4204 17.0232 10.6061 17.0232 12C17.0232 13.3939 16.5345 14.5796 15.5571 15.557C14.5796 16.5345 13.3939 17.0232 12 17.0232ZM4.18605 12.8372H0V11.1628H4.18605V12.8372ZM24 12.8372H19.814V11.1628H24V12.8372ZM11.1628 4.18602V0H12.8372V4.18602H11.1628ZM11.1628 24V19.8139H12.8372V24H11.1628ZM5.94207 7.06254L3.32741 4.53804L4.51019 3.29945L7.02827 5.8862L5.94207 7.06254ZM19.4898 20.7005L16.9546 18.0965L18.058 16.9374L20.6726 19.4619L19.4898 20.7005ZM16.9374 5.94202L19.4619 3.32735L20.7005 4.51014L18.1138 7.02821L16.9374 5.94202ZM3.2995 19.4898L5.90342 16.9546L7.04113 18.0579L4.52738 20.6833L3.2995 19.4898Z" fill="white" fill-opacity="0.9"/>
</svg>
