<svg width="42" height="21" viewBox="0 0 42 21" fill="none" xmlns="http://www.w3.org/2000/svg">
<g id="Vector">
<mask id="path-1-inside-1_2406_2640" fill="white">
<path d="M0 0L21 21L31.5 10.5L42 0"/>
</mask>
<path d="M2.12132 -2.12132C0.949748 -3.29289 -0.949747 -3.29289 -2.12132 -2.12132C-3.29289 -0.949748 -3.29289 0.949747 -2.12132 2.12132L2.12132 -2.12132ZM21 21L18.8787 23.1213C19.4413 23.6839 20.2044 24 21 24C21.7956 24 22.5587 23.6839 23.1213 23.1213L21 21ZM44.1213 2.12132C45.2929 0.949747 45.2929 -0.949748 44.1213 -2.12132C42.9497 -3.29289 41.0503 -3.29289 39.8787 -2.12132L44.1213 2.12132ZM-2.12132 2.12132L18.8787 23.1213L23.1213 18.8787L2.12132 -2.12132L-2.12132 2.12132ZM23.1213 23.1213L33.6213 12.6213L29.3787 8.37868L18.8787 18.8787L23.1213 23.1213ZM33.6213 12.6213L44.1213 2.12132L39.8787 -2.12132L29.3787 8.37868L33.6213 12.6213Z" fill="white" fill-opacity="0.8" mask="url(#path-1-inside-1_2406_2640)"/>
</g>
</svg>
