<svg width="36" height="14" viewBox="0 0 36 14" fill="none" xmlns="http://www.w3.org/2000/svg">
<mask id="path-1-inside-1_7328_5684" fill="white">
<path d="M0 0L18 14L27 7L36 0"/>
</mask>
<path d="M1.22788 -1.5787C0.355987 -2.25684 -0.900564 -2.09978 -1.5787 -1.22788C-2.25684 -0.355987 -2.09978 0.900564 -1.22788 1.5787L1.22788 -1.5787ZM18 14L16.7721 15.5787C17.4943 16.1404 18.5057 16.1404 19.2279 15.5787L18 14ZM37.2279 1.5787C38.0998 0.900564 38.2568 -0.355987 37.5787 -1.22788C36.9006 -2.09978 35.644 -2.25684 34.7721 -1.5787L37.2279 1.5787ZM-1.22788 1.5787L16.7721 15.5787L19.2279 12.4213L1.22788 -1.5787L-1.22788 1.5787ZM19.2279 15.5787L28.2279 8.5787L25.7721 5.4213L16.7721 12.4213L19.2279 15.5787ZM28.2279 8.5787L37.2279 1.5787L34.7721 -1.5787L25.7721 5.4213L28.2279 8.5787Z" fill="white" fill-opacity="0.8" mask="url(#path-1-inside-1_7328_5684)"/>
</svg>
